<svg xmlns="http://www.w3.org/2000/svg" width="40" height="40" viewBox="0 0 40 40">
  <path id="Path_7699" data-name="Path 7699" d="M20,38.75A18.75,18.75,0,1,0,1.25,20H0A20,20,0,1,1,20,40ZM5.808,36.433l4.375-4.375a.625.625,0,0,1,.442-.183H23.491l7.317-7.317a2.664,2.664,0,0,0,.392-3.625l-5.134,5.133-.884-.884,5.625-5.625a.625.625,0,0,1,.884,0,4.011,4.011,0,0,1,0,5.884l-7.5,7.5a.625.625,0,0,1-.442.184H10.884L6.692,37.317Zm-5.625-5,7.5-7.5a.625.625,0,0,1,.442-.183H23.75a.625.625,0,0,1,.625.625c0,1.3-.653,3.75-3.125,3.75H14.375v-1.25H21.25c1.274,0,1.683-1.133,1.813-1.875H8.384L1.067,32.317Zm4.375-10,1.875-1.875a.625.625,0,0,1,.442-.183h5v1.25H7.134L5.442,22.317Zm11.067-.808v-1.25h2.866l6.25-6.25H21.875v-1.25H26.25a.625.625,0,0,1,.625.625v3.75h-1.25V14.009l-6.433,6.433a.625.625,0,0,1-.442.183Zm-2.5,0v-1.25h1.25v1.25ZM5.061,14.254A14.938,14.938,0,0,1,19.375,3.75V5A13.692,13.692,0,0,0,6.253,14.629Z" fill="#e84f14"/>
</svg>
