<svg xmlns="http://www.w3.org/2000/svg" width="40" height="39.96" viewBox="0 0 40 39.96">
  <path id="Path_7667" data-name="Path 7667" d="M4.163,39.959A4.167,4.167,0,0,1,0,35.8V20.812a4.167,4.167,0,0,1,4.163-4.163H5.571L4.957,15.01A4.242,4.242,0,0,1,7.314,9.581L29.646.324l.1-.038a4.262,4.262,0,0,1,5.51,2.444l4.469,11.619a4.278,4.278,0,0,1-2.378,5.476l-.773.313a4.1,4.1,0,0,1,.06.674V35.8a4.167,4.167,0,0,1-4.163,4.162ZM1.332,35.8a2.834,2.834,0,0,0,2.831,2.831h28.3A2.834,2.834,0,0,0,35.3,35.8V27.305H1.332Zm0-9.823H35.3v-4H1.332Zm.017-5.328H35.281a2.827,2.827,0,0,0-2.814-2.664H4.163A2.826,2.826,0,0,0,1.349,20.645ZM16.276,10.576l1.413,3.53a.666.666,0,0,1-.321.843l-3.4,1.7h18.5a4.164,4.164,0,0,1,3.68,2.226l.7-.282a2.94,2.94,0,0,0,1.633-3.764L34.008,3.211q-.013-.035-.028-.07a2.926,2.926,0,0,0-3.824-1.582L7.824,10.816a2.916,2.916,0,0,0-1.62,3.73l.789,2.1h3.5L9.392,13.9a.666.666,0,0,1,.32-.843l5.647-2.825.051-.023a.666.666,0,0,1,.866.371Zm-5.419,3.393.915,2.288,4.452-2.226-.915-2.289ZM27.972,36.754a4,4,0,1,1,0-6.91,4,4,0,1,1,0,6.91ZM29.086,30.8a3.98,3.98,0,0,1,0,5,2.636,2.636,0,0,0,.884.163,2.664,2.664,0,1,0-.884-5.165ZM23.31,33.3a2.664,2.664,0,0,0,2.664,2.664,2.636,2.636,0,0,0,.884-.163,3.98,3.98,0,0,1,0-5,2.636,2.636,0,0,0-.884-.163A2.664,2.664,0,0,0,23.31,33.3Zm4.662,1.744a2.615,2.615,0,0,0,0-3.487A2.615,2.615,0,0,0,27.972,35.043Zm.121-21.3,6.354-2.824.541,1.217-6.354,2.824Zm-4.241-1.408L33.029,8.1l.558,1.209L24.41,13.545Z" transform="translate(0 0.001)" fill="#e84f14"/>
</svg>
