<svg xmlns="http://www.w3.org/2000/svg" width="40" height="46.904" viewBox="0 0 40 46.904">
  <path id="Path_7700" data-name="Path 7700" d="M8.806,40.322A29,29,0,0,1,0,19.132V9.051A.987.987,0,0,1,.725,8.1,75.884,75.884,0,0,0,19.5.137a.986.986,0,0,1,1,0A78.023,78.023,0,0,0,39.273,8.1.986.986,0,0,1,40,9.051V19.132a29,29,0,0,1-8.807,21.19C26.867,44.56,21.829,46.9,20,46.9S13.132,44.56,8.806,40.322ZM1.972,9.8v9.332a27.068,27.068,0,0,0,8.215,19.78c4.254,4.168,8.8,6.018,9.812,6.018s5.558-1.851,9.812-6.018a27.068,27.068,0,0,0,8.214-19.78V9.8A80.161,80.161,0,0,1,20,2.13,77.707,77.707,0,0,1,1.972,9.8ZM22.016,41.089a.987.987,0,0,1,.36-1.348l.057-.033a.987.987,0,1,1,1,1.7l-.065.038a.986.986,0,0,1-1.348-.359Zm2.521-1.546a.987.987,0,0,1,.186-1.383,25.2,25.2,0,0,0,2.83-2.518A24.021,24.021,0,0,0,30.389,32.1a.987.987,0,0,1,1.652,1.079,25.964,25.964,0,0,1-3.069,3.834,27.194,27.194,0,0,1-3.052,2.715.986.986,0,0,1-1.383-.186ZM14.563,31.8,8.737,25.976a3.208,3.208,0,0,1,4.537-4.537L16.831,25,26.725,15.1a3.208,3.208,0,0,1,4.538,4.537L19.1,31.8a3.209,3.209,0,0,1-4.537,0Zm-4.431-8.968a1.237,1.237,0,0,0,0,1.747l5.826,5.826a1.236,1.236,0,0,0,1.747,0L29.867,18.244A1.235,1.235,0,0,0,28.12,16.5L17.529,27.089a.987.987,0,0,1-1.4,0l-4.255-4.255a1.236,1.236,0,0,0-1.747,0ZM3.906,15.785v-3.81a.987.987,0,0,1,.691-.941c1.805-.566,3.614-1.206,5.377-1.9a.987.987,0,1,1,.723,1.836c-1.581.623-3.2,1.2-4.818,1.727v3.089a.987.987,0,1,1-1.973,0Zm8.317-6.5a.984.984,0,0,1,.507-1.3l.016-.007a.987.987,0,1,1,.8,1.805l-.018.008a.988.988,0,0,1-1.3-.508Z" fill="#e84f14"/>
</svg>
