<svg xmlns="http://www.w3.org/2000/svg" width="40" height="38.297" viewBox="0 0 40 38.297">
  <path id="Path_7666" data-name="Path 7666" d="M19.814,38.039a.84.84,0,0,1,.017-1.2l3.642-3.651H9.645A7.816,7.816,0,0,1,1.7,25.529,7.818,7.818,0,0,1,9.653,17.87H29.516a6.11,6.11,0,0,0,6.238-5.957,6.11,6.11,0,0,0-6.238-5.957H10.147a5.125,5.125,0,1,1-.009-1.7H29.507a7.816,7.816,0,0,1,7.94,7.659,7.811,7.811,0,0,1-7.94,7.659H9.653a6.112,6.112,0,0,0-6.246,5.957,6.112,6.112,0,0,0,6.246,5.957H23.482l-3.651-3.651a.849.849,0,0,1,1.2-1.2l5.1,5.106a.848.848,0,0,1,0,1.2l-5.1,5.1-.017.017a.819.819,0,0,1-.583.241A.873.873,0,0,1,19.814,38.039ZM1.7,5.1a3.4,3.4,0,1,0,3.4-3.4A3.4,3.4,0,0,0,1.7,5.1ZM29.788,32.329a5.106,5.106,0,1,1,5.106,5.106A5.11,5.11,0,0,1,29.788,32.329Zm1.7,0a3.4,3.4,0,1,0,3.4-3.4A3.4,3.4,0,0,0,31.49,32.329Z" fill="#e84f14"/>
</svg>
