<svg xmlns="http://www.w3.org/2000/svg" width="40" height="39.994" viewBox="0 0 40 39.994">
  <path id="Path_7665" data-name="Path 7665" d="M14.255,38.851,1.145,25.74a3.909,3.909,0,0,1,0-5.528l8.421-8.421a.781.781,0,0,1,1.1,1.1L2.25,21.317a2.346,2.346,0,0,0,0,3.318l13.11,13.11a2.347,2.347,0,0,0,3.318,0L37.743,18.682a2.331,2.331,0,0,0,.687-1.658l.007-12.882L37.7,3.4,34.8,6.3A3.2,3.2,0,1,1,33.7,5.2l2.9-2.9-.724-.725-12.9-.007h0a2.331,2.331,0,0,0-1.659.687l-6.6,6.6a.781.781,0,0,1-1.1-1.1l6.6-6.6A3.883,3.883,0,0,1,22.972,0h0L36.2.012a.781.781,0,0,1,.552.229l.952.953.965-.965a.781.781,0,0,1,1.1,1.1l-.966.966.966.967A.781.781,0,0,1,40,3.819l-.007,13.206a3.884,3.884,0,0,1-1.145,2.762L19.784,38.851a3.913,3.913,0,0,1-5.528,0ZM30.895,6.784a1.638,1.638,0,1,0,2.729.7l-.9.9a.781.781,0,1,1-1.1-1.1l.9-.9a1.642,1.642,0,0,0-1.627.411ZM14.589,34.511l-9.1-9.1a3.093,3.093,0,0,1,0-4.375L19.893,6.624a3.1,3.1,0,0,1,4.375,0l9.1,9.1a3.093,3.093,0,0,1,0,4.375L18.964,34.511a3.093,3.093,0,0,1-4.375,0ZM21,7.729,6.59,22.136a1.531,1.531,0,0,0,0,2.165l9.1,9.1a1.531,1.531,0,0,0,2.165,0L32.267,19a1.531,1.531,0,0,0,0-2.165l-9.1-9.1a1.532,1.532,0,0,0-2.165,0ZM16.463,29.685,12.45,25.672a.781.781,0,0,1,1.1-1.1l4.013,4.013a.781.781,0,0,1-1.1,1.1Zm-.2-5.953a.781.781,0,0,1,0-1.1l.534-.534a3.007,3.007,0,0,1,.332-3.717.781.781,0,1,1,1.1,1.1,1.63,1.63,0,0,0,2.28,2.28,1.516,1.516,0,0,0-.156-2.123h0a3.286,3.286,0,0,1-.975-2.161A2.834,2.834,0,0,1,20.2,15.3a3.008,3.008,0,0,1,3.717-.332l.45-.45a.781.781,0,0,1,1.1,1.1l-.45.45a3.007,3.007,0,0,1-.332,3.717.781.781,0,0,1-1.1-1.1,1.516,1.516,0,0,0-.156-2.123h0a1.516,1.516,0,0,0-2.123-.156,1.29,1.29,0,0,0-.363.991,1.726,1.726,0,0,0,.519,1.132h0a3.074,3.074,0,0,1,.156,4.333,2.836,2.836,0,0,1-2.023.82,3.232,3.232,0,0,1-1.693-.488l-.534.534a.782.782,0,0,1-1.105,0Zm-5.956-.2a.781.781,0,1,1,.552.229A.787.787,0,0,1,10.31,23.533Zm1.238-12.619a.781.781,0,1,1,.552.229A.787.787,0,0,1,11.548,10.914Z" fill="#e84f14"/>
</svg>
