<svg xmlns="http://www.w3.org/2000/svg" width="40" height="37.252" viewBox="0 0 40 37.252">
  <path id="Path_7669" data-name="Path 7669" d="M9.964,37.252a.853.853,0,0,1-.61-.264l-9.121-9.4a.85.85,0,0,1-.234-.6V4.282A4.274,4.274,0,0,1,4.258,0H24.724a4.258,4.258,0,0,1,4.24,4.282V32.97a4.258,4.258,0,0,1-4.24,4.282ZM1.708,4.282V26.145H8.256A2.584,2.584,0,0,1,10.85,28.7v6.847H24.734a2.547,2.547,0,0,0,2.521-2.573V4.272a2.547,2.547,0,0,0-2.531-2.563H4.258A2.563,2.563,0,0,0,1.708,4.282Zm7.433,30V28.7a.873.873,0,0,0-.886-.843H2.86Zm26.279,2.261-2.966-5.7a.851.851,0,0,1-.1-.394l.017-25.8a3.8,3.8,0,0,1,7.606,0L40,30.442a.855.855,0,0,1-.1.394l-2.966,5.7a.855.855,0,0,1-1.516,0Zm.758-2.273,1.558-3H34.621Zm-2.111-4.706H38.29l-.012-18.37h-4.2Zm.013-20.078h4.195V8.63H34.082Zm0-4.843,0,2.28h4.192V4.641a2.094,2.094,0,0,0-4.189,0ZM6.628,23.069a.854.854,0,0,1,0-1.709H22.879a.854.854,0,0,1,0,1.709Zm0-5.126a.854.854,0,1,1,0-1.709H22.879a.854.854,0,1,1,0,1.709Zm0-5.126a.854.854,0,0,1,0-1.709H22.879a.854.854,0,0,1,0,1.709Zm0-4.785a.854.854,0,1,1,0-1.709h7.5a.854.854,0,0,1,0,1.709Z" fill="#e84f14"/>
</svg>
