<svg xmlns="http://www.w3.org/2000/svg" width="1066.016" height="381.016" viewBox="0 0 1066.016 381.016">
  <g id="Group_13142" data-name="Group 13142" transform="translate(-150 -3485)">
    <g id="Path_1761" data-name="Path 1761" transform="translate(171.748 3507.35)" fill="#25282d">
      <path d="M 954.3150024414063 337.0704956054688 L 954.3070068359375 337.0704956054688 L 828.7428588867188 337.0704956054688 C 819.66650390625 337.0704956054688 810.8619995117188 335.2929992675781 802.573974609375 331.7873840332031 C 798.5905151367188 330.1023864746094 794.7482299804688 328.0168762207031 791.1542358398438 325.588623046875 C 787.593994140625 323.1833801269531 784.2462768554688 320.4211120605469 781.2037353515625 317.3785095214844 C 778.1612548828125 314.3359985351563 775.3989868164063 310.9880065917969 772.9937744140625 307.427734375 C 770.5656127929688 303.8336181640625 768.4801025390625 299.9913635253906 766.7952270507813 296.0077514648438 C 763.2897338867188 287.7195129394531 761.5122680664063 278.9147338867188 761.5122680664063 269.838134765625 L 761.5122680664063 67.98237609863281 C 761.5122680664063 34.44924926757813 734.2337646484375 7.16799783706665 700.703857421875 7.16799783706665 L 700.6953735351563 7.16799783706665 L 575.135498046875 7.16799783706665 C 541.6162719726563 7.18137264251709 514.3485107421875 34.46262359619141 514.3507690429688 67.98237609863281 L 514.3506469726563 269.838134765625 C 514.3506469726563 278.9147338867188 512.5731201171875 287.7195129394531 509.067626953125 296.0077514648438 C 507.3827514648438 299.9913635253906 505.2972412109375 303.8336181640625 502.8691101074219 307.4278869628906 C 500.4639892578125 310.9880065917969 497.7017517089844 314.3359985351563 494.6592407226563 317.3785095214844 C 491.6167602539063 320.4211120605469 488.2690124511719 323.1833801269531 484.7088623046875 325.588623046875 C 481.11474609375 328.0168762207031 477.2726135253906 330.1023864746094 473.2890014648438 331.7873840332031 C 465.0010070800781 335.2929992675781 456.1965026855469 337.0704956054688 447.1201171875 337.0704956054688 L 321.5559997558594 337.0704956054688 C 312.4796142578125 337.0704956054688 303.6751098632813 335.2929992675781 295.3871154785156 331.7873840332031 C 291.4035034179688 330.1023864746094 287.5613708496094 328.0168762207031 283.9672546386719 325.588623046875 C 280.4071350097656 323.1833801269531 277.0593872070313 320.4211120605469 274.0168762207031 317.3785095214844 C 270.974365234375 314.3359985351563 268.2121276855469 310.9880065917969 265.8070068359375 307.4278869628906 C 263.3788757324219 303.8336181640625 261.2933654785156 299.9913635253906 259.6084899902344 296.0077514648438 C 256.1029968261719 287.7195129394531 254.3255004882813 278.9147338867188 254.3255004882813 269.838134765625 L 254.3255004882813 67.98237609863281 C 254.3255004882813 34.46262359619141 227.0576171875 7.18137264251709 193.5408782958984 7.16799783706665 L 67.98062133789063 7.16799783706665 C 59.77012252807617 7.16799783706665 51.80500030517578 8.776247978210449 44.30662536621094 11.94787311553955 C 40.7027473449707 13.47224807739258 37.22687530517578 15.3589973449707 33.97574996948242 17.55562210083008 C 30.75562286376953 19.73124694824219 27.72762298583984 22.2297477722168 24.97587394714355 24.98187255859375 C 22.2242488861084 27.73387336730957 19.72599792480469 30.76199722290039 17.55087471008301 33.98237228393555 C 15.35462379455566 37.23374938964844 13.46837425231934 40.70962142944336 11.94449901580811 44.31349945068359 C 8.773748397827148 51.81187438964844 7.166623592376709 59.7766227722168 7.167748928070068 67.98649597167969 L 7.167748928070068 157.59912109375 C 7.167748928070068 159.3686218261719 5.728248596191406 160.8081207275391 3.958873748779297 160.8081207275391 C 2.189498662948608 160.8081207275391 0.7499988079071045 159.3686218261719 0.7499988079071045 157.59912109375 L 0.7499988079071045 67.98237609863281 C 0.7499988079071045 58.90574645996094 2.527498722076416 50.10099792480469 6.032998561859131 41.81274795532227 C 7.717873573303223 37.82912445068359 9.803373336791992 33.98687362670898 12.23149871826172 30.39262199401855 C 14.63674831390381 26.83237266540527 17.39887428283691 23.4844970703125 20.44137382507324 20.44187355041504 C 23.48387336730957 17.39937210083008 26.83174896240234 14.63699817657471 30.39187431335449 12.2317476272583 C 33.98600006103516 9.803623199462891 37.828125 7.718122959136963 41.81162261962891 6.033123016357422 C 50.09975051879883 2.5274977684021 58.90424728393555 0.7499977946281433 67.98062133789063 0.7499977946281433 L 193.5446166992188 0.7499977946281433 C 202.6210021972656 0.7499977946281433 211.4254913330078 2.5274977684021 219.7135009765625 6.033123016357422 C 223.6971282958984 7.718122959136963 227.5392456054688 9.803623199462891 231.1333770751953 12.2317476272583 C 234.6934967041016 14.63699817657471 238.0412445068359 17.39924812316895 241.0837554931641 20.44187355041504 C 244.1262512207031 23.4844970703125 246.8885040283203 26.83237266540527 249.2936248779297 30.39262199401855 C 251.7217559814453 33.98687362670898 253.8072509765625 37.82912445068359 255.4921264648438 41.81274795532227 C 258.9976196289063 50.10099792480469 260.7751159667969 58.90574645996094 260.7751159667969 67.98237609863281 L 260.7751159667969 269.838134765625 C 260.7730102539063 278.04736328125 262.3788757324219 286.0119934082031 265.5482482910156 293.510498046875 C 267.0715026855469 297.114501953125 268.9571228027344 300.5904846191406 271.1526184082031 303.8421325683594 C 273.3271179199219 307.0626220703125 275.8246154785156 310.0911254882813 278.5756225585938 312.843505859375 C 281.3266296386719 315.5958862304688 284.3538818359375 318.0948791503906 287.5733642578125 320.27099609375 C 290.8238830566406 322.4679870605469 294.2988586425781 324.3552551269531 297.9020080566406 325.8802490234375 C 305.3989868164063 329.0532531738281 313.3626098632813 330.6628723144531 321.5718688964844 330.6644897460938 L 447.135986328125 330.6644897460938 C 455.3464965820313 330.6644897460938 463.3116149902344 329.0562438964844 470.8099975585938 325.8846130371094 C 474.4138793945313 324.3602600097656 477.8896179199219 322.4735107421875 481.140869140625 320.2768859863281 C 484.3609924316406 318.1012573242188 487.3890075683594 315.6027526855469 490.140625 312.8507385253906 C 492.8923645019531 310.0987548828125 495.3905029296875 307.0704956054688 497.5657348632813 303.8502502441406 C 499.7619934082031 300.598876953125 501.6482543945313 297.1228637695313 503.172119140625 293.5190124511719 C 506.3428649902344 286.0206298828125 507.9500122070313 278.0558776855469 507.9488830566406 269.8460083007813 L 507.9488830566406 67.98237609863281 C 507.9488830566406 58.90574645996094 509.7263793945313 50.10099792480469 513.2318725585938 41.81274795532227 C 514.916748046875 37.82912445068359 517.0022583007813 33.98687362670898 519.4303588867188 30.39262199401855 C 521.8355102539063 26.83237266540527 524.5977783203125 23.4844970703125 527.6402587890625 20.44187355041504 C 530.6827392578125 17.39924812316895 534.030517578125 14.63699817657471 537.5906372070313 12.2317476272583 C 541.1847534179688 9.803623199462891 545.02685546875 7.718122959136963 549.010498046875 6.033123016357422 C 557.2985229492188 2.5274977684021 566.10302734375 0.7499977946281433 575.1793823242188 0.7499977946281433 L 700.7434692382813 0.7499977946281433 C 709.8198852539063 0.7499977946281433 718.62451171875 2.5274977684021 726.9124755859375 6.033123016357422 C 730.89599609375 7.718122959136963 734.7380981445313 9.803623199462891 738.332275390625 12.2317476272583 C 741.8923950195313 14.63699817657471 745.240234375 17.39924812316895 748.2827758789063 20.44187355041504 C 751.3252563476563 23.4844970703125 754.08740234375 26.83237266540527 756.4926147460938 30.39262199401855 C 758.920654296875 33.98687362670898 761.006103515625 37.82912445068359 762.6909790039063 41.81274795532227 C 766.1964721679688 50.10099792480469 767.9739990234375 58.90574645996094 767.9739990234375 67.98237609863281 L 767.9739990234375 269.838134765625 C 767.9739990234375 303.3622436523438 795.24365234375 330.6488647460938 828.7625122070313 330.6644897460938 L 954.31884765625 330.6644897460938 C 987.8467407226563 330.6644897460938 1015.127380371094 303.3851318359375 1015.131896972656 269.854248046875 L 1015.131896972656 180.2212524414063 L 1015.131896972656 180.2093658447266 L 1015.131469726563 180.1973724365234 C 1015.09423828125 179.0271301269531 1015.697143554688 177.9298706054688 1016.704895019531 177.333740234375 C 1017.19921875 177.0412445068359 1017.764221191406 176.8867492675781 1018.338745117188 176.8867492675781 C 1018.913146972656 176.8867492675781 1019.478149414063 177.0412445068359 1019.972473144531 177.333740234375 C 1020.97998046875 177.9298706054688 1021.5830078125 179.0271301269531 1021.546020507813 180.1974945068359 L 1021.545654296875 180.2093658447266 L 1021.545654296875 180.2212524414063 L 1021.545654296875 269.838134765625 C 1021.545654296875 278.9147338867188 1019.768127441406 287.7195129394531 1016.262634277344 296.0077514648438 C 1014.577758789063 299.9913635253906 1012.492248535156 303.8336181640625 1010.064147949219 307.4278869628906 C 1007.658874511719 310.9880065917969 1004.896728515625 314.3359985351563 1001.854248046875 317.3785095214844 C 998.811767578125 320.4211120605469 995.4638671875 323.1833801269531 991.9037475585938 325.588623046875 C 988.3096313476563 328.0168762207031 984.467529296875 330.1023864746094 980.4840087890625 331.7873840332031 C 972.1958618164063 335.2929992675781 963.391357421875 337.0704956054688 954.3150024414063 337.0704956054688 Z" stroke="none"/>
      <path d="M 954.3150024414063 336.3204956054688 C 963.29052734375 336.3204956054688 971.9966430664063 334.5628662109375 980.1917724609375 331.0966186523438 C 984.1307373046875 329.4305114746094 987.9298706054688 327.3682556152344 991.48388671875 324.9672546386719 C 995.0045166015625 322.5887451171875 998.3151245117188 319.8571166992188 1001.323852539063 316.8482360839844 C 1004.332641601563 313.8393859863281 1007.064147949219 310.5286254882813 1009.442626953125 307.0079956054688 C 1011.843627929688 303.4538879394531 1013.905883789063 299.6546325683594 1015.571899414063 295.7156372070313 C 1019.038146972656 287.5202331542969 1020.795654296875 278.8138732910156 1020.795654296875 269.838134765625 L 1020.795654296875 180.2212524414063 L 1020.795654296875 180.1974945068359 L 1020.79638671875 180.1738739013672 C 1020.824768066406 179.2769927978516 1020.362731933594 178.4360046386719 1019.590881347656 177.9793701171875 C 1019.211730957031 177.7552490234375 1018.778869628906 177.6367492675781 1018.338745117188 177.6367492675781 C 1017.898620605469 177.6367492675781 1017.465637207031 177.7552490234375 1017.086730957031 177.979248046875 C 1016.314636230469 178.4360046386719 1015.852600097656 179.2768707275391 1015.881103515625 180.1736297607422 L 1015.881896972656 180.1973724365234 L 1015.881896972656 180.2212524414063 L 1015.881896972656 269.8543701171875 C 1015.877258300781 303.7987365722656 988.26025390625 331.4144897460938 954.31884765625 331.4144897460938 L 828.7621459960938 331.4144897460938 C 794.8298950195313 331.3986206054688 767.2239990234375 303.775634765625 767.2239990234375 269.838134765625 L 767.2239990234375 67.98237609863281 C 767.2239990234375 59.00662231445313 765.4664916992188 50.30024719238281 762.000244140625 42.10487365722656 C 760.334228515625 38.16587448120117 758.2720947265625 34.36649703979492 755.87109375 30.81249809265137 C 753.4926147460938 27.291748046875 750.7611083984375 23.98099708557129 747.7523803710938 20.97224807739258 C 744.74365234375 17.9633731842041 741.4329833984375 15.2317476272583 737.912353515625 12.85324764251709 C 734.3583984375 10.45212268829346 730.5592651367188 8.389997482299805 726.6202392578125 6.723872661590576 C 718.4252319335938 3.257622718811035 709.718994140625 1.499997854232788 700.7434692382813 1.499997854232788 L 575.1793823242188 1.499997854232788 C 566.203857421875 1.499997854232788 557.4977416992188 3.257622718811035 549.3026123046875 6.723872661590576 C 545.36376953125 8.389997482299805 541.5645141601563 10.45212268829346 538.010498046875 12.85324764251709 C 534.489990234375 15.2317476272583 531.1793823242188 17.9633731842041 528.170654296875 20.97224807739258 C 525.161865234375 23.98099708557129 522.4302368164063 27.291748046875 520.0518798828125 30.81249809265137 C 517.6507568359375 34.36649703979492 515.588623046875 38.16587448120117 513.922607421875 42.10487365722656 C 510.4563598632813 50.30024719238281 508.6988830566406 59.00662231445313 508.6988830566406 67.98237609863281 L 508.6988830566406 269.8458862304688 C 508.7000122070313 278.15673828125 507.0728759765625 286.2197570800781 503.8628845214844 293.8111267089844 C 502.3201293945313 297.4596252441406 500.4106140136719 300.9784851074219 498.187255859375 304.2699890136719 C 495.9853820800781 307.5298767089844 493.4565124511719 310.5952453613281 490.6709899902344 313.3810119628906 C 487.885498046875 316.166748046875 484.8203735351563 318.6959838867188 481.5607604980469 320.8983764648438 C 478.2693786621094 323.1221313476563 474.7506103515625 325.0321350097656 471.1021118164063 326.5753784179688 C 463.5107421875 329.786376953125 455.4473876953125 331.4144897460938 447.135986328125 331.4144897460938 L 321.5717468261719 331.4144897460938 C 313.2616271972656 331.4128723144531 305.1996154785156 329.7832336425781 297.6097412109375 326.5709838867188 C 293.9620056152344 325.0271301269531 290.4440002441406 323.1164855957031 287.1533813476563 320.8922424316406 C 283.8943786621094 318.6894836425781 280.8299865722656 316.1598815917969 278.0452575683594 313.3737487792969 C 275.2603759765625 310.5876159667969 272.7322387695313 307.5218811035156 270.531005859375 304.2618713378906 C 268.3083801269531 300.9701232910156 266.3995056152344 297.4511108398438 264.8573608398438 293.802490234375 C 261.6487426757813 286.2109985351563 260.0228881835938 278.1480102539063 260.0251159667969 269.838134765625 L 260.0251159667969 67.98237609863281 C 260.0251159667969 59.00662231445313 258.2676086425781 50.30024719238281 254.8013763427734 42.10487365722656 C 253.1353759765625 38.16587448120117 251.0732421875 34.36649703979492 248.672119140625 30.81249809265137 C 246.2937469482422 27.291748046875 243.5621185302734 23.98099708557129 240.5533752441406 20.97224807739258 C 237.5446166992188 17.9633731842041 234.2339935302734 15.2317476272583 230.7135009765625 12.85324764251709 C 227.1595001220703 10.45212268829346 223.3602447509766 8.389997482299805 219.4213714599609 6.723872661590576 C 211.2262420654297 3.257622718811035 202.5201263427734 1.499997854232788 193.5446166992188 1.499997854232788 L 67.98062133789063 1.499997854232788 C 59.00512313842773 1.499997854232788 50.29899978637695 3.257622718811035 42.10387420654297 6.723872661590576 C 38.16487503051758 8.389997482299805 34.36574935913086 10.45212268829346 30.81174850463867 12.85324764251709 C 27.29112434387207 15.2317476272583 23.98049926757813 17.9633731842041 20.97174835205078 20.97224807739258 C 17.96299934387207 23.98099708557129 15.23149871826172 27.291748046875 12.85299873352051 30.81249809265137 C 10.45199871063232 34.36649703979492 8.389748573303223 38.16587448120117 6.723748683929443 42.10487365722656 C 3.257498741149902 50.30024719238281 1.499998807907104 59.00662231445313 1.499998807907104 67.98237609863281 L 1.499998807907104 157.59912109375 C 1.499998807907104 158.9550018310547 2.602998733520508 160.0581207275391 3.958873748779297 160.0581207275391 C 5.314748764038086 160.0581207275391 6.417748928070068 158.9550018310547 6.417748928070068 157.59912109375 L 6.417748928070068 67.98662567138672 C 6.416623592376709 59.67587280273438 8.04374885559082 51.61274719238281 11.25362396240234 44.0213737487793 C 12.79649925231934 40.37299728393555 14.70599842071533 36.85412216186523 16.92937469482422 33.56249618530273 C 19.13124847412109 30.3026237487793 21.66012382507324 27.23724746704102 24.44549942016602 24.45149803161621 C 27.23099899291992 21.66574859619141 30.29612350463867 19.13649749755859 33.55587387084961 16.93412208557129 C 36.84712219238281 14.71037292480469 40.36599731445313 12.80037307739258 44.01437377929688 11.25712299346924 C 51.60574722290039 8.046122550964355 59.66912460327148 6.41799783706665 67.98062133789063 6.41799783706665 L 193.5412445068359 6.41799783706665 C 227.4713745117188 6.431497573852539 255.0755004882813 34.04924774169922 255.0755004882813 67.98237609863281 L 255.0755004882813 269.838134765625 C 255.0755004882813 278.8138732910156 256.8330078125 287.5202331542969 260.2992553710938 295.7156372070313 C 261.9652404785156 299.6546325683594 264.0273742675781 303.4538879394531 266.4284973144531 307.0079956054688 C 268.806884765625 310.5286254882813 271.5385131835938 313.8393859863281 274.5472412109375 316.8482360839844 C 277.5559997558594 319.8571166992188 280.8666381835938 322.5887451171875 284.3871154785156 324.9672546386719 C 287.9411315917969 327.3682556152344 291.7403869628906 329.4305114746094 295.6792602539063 331.0966186523438 C 303.8743591308594 334.5628662109375 312.5805053710938 336.3204956054688 321.5559997558594 336.3204956054688 L 447.1201171875 336.3204956054688 C 456.0956115722656 336.3204956054688 464.8017578125 334.5628662109375 472.9968872070313 331.0966186523438 C 476.9357604980469 329.4305114746094 480.7349853515625 327.3682556152344 484.2890014648438 324.9672546386719 C 487.8095092773438 322.5887451171875 491.1201171875 319.8571166992188 494.1288757324219 316.8482360839844 C 497.1376342773438 313.8393859863281 499.8692626953125 310.5286254882813 502.2476196289063 307.0079956054688 C 504.6487426757813 303.4538879394531 506.7108764648438 299.6546325683594 508.3768615722656 295.7156372070313 C 511.8431091308594 287.5202331542969 513.6006469726563 278.8138732910156 513.6006469726563 269.838134765625 L 513.6007690429688 67.98249816894531 C 513.5985107421875 34.04924774169922 541.2025146484375 6.431497573852539 575.135498046875 6.41799783706665 L 700.6954956054688 6.41799783706665 L 700.703857421875 6.41799783706665 C 734.6472778320313 6.41799783706665 762.2622680664063 34.03562164306641 762.2622680664063 67.98237609863281 L 762.2622680664063 269.838134765625 C 762.2622680664063 278.8138732910156 764.019775390625 287.5202331542969 767.4860229492188 295.7154846191406 C 769.152099609375 299.6546325683594 771.2142333984375 303.4538879394531 773.615234375 307.0079956054688 C 775.9937744140625 310.5286254882813 778.7252197265625 313.8393859863281 781.7340087890625 316.8482360839844 C 784.7427368164063 319.8571166992188 788.0535278320313 322.5887451171875 791.573974609375 324.9672546386719 C 795.1279907226563 327.3682556152344 798.92724609375 329.4305114746094 802.8661499023438 331.0966186523438 C 811.061279296875 334.5628662109375 819.7673950195313 336.3204956054688 828.7428588867188 336.3204956054688 L 954.3070068359375 336.3204956054688 L 954.3150024414063 336.3204956054688 M 954.3150024414063 337.8204956054688 L 954.3070068359375 337.8204956054688 L 828.7428588867188 337.8204956054688 C 791.1983642578125 337.8204956054688 760.7622680664063 307.3836364746094 760.7622680664063 269.838134765625 L 760.7622680664063 67.98237609863281 C 760.7622680664063 34.80879592895508 733.8709716796875 7.917997360229492 700.7037963867188 7.917997360229492 C 700.6997680664063 7.917997360229492 700.6995239257813 7.917997360229492 700.6954956054688 7.91799783706665 L 575.135498046875 7.91799783706665 C 541.9736328125 7.931247711181641 515.0985107421875 34.81974792480469 515.1007690429688 67.98237609863281 L 515.1006469726563 269.838134765625 C 515.1006469726563 307.3836364746094 484.6647338867188 337.8204956054688 447.1201171875 337.8204956054688 L 321.5559997558594 337.8204956054688 C 284.0113830566406 337.8204956054688 253.5755004882813 307.3836364746094 253.5755004882813 269.838134765625 L 253.5755004882813 67.98237609863281 C 253.5755004882813 34.8172492980957 226.7008666992188 7.931247711181641 193.5406188964844 7.91799783706665 L 67.98062133789063 7.91799783706665 C 34.80387496948242 7.91799783706665 7.913373947143555 34.81287384033203 7.917748928070068 67.98637390136719 L 7.917748928070068 157.59912109375 C 7.917748928070068 159.7856292724609 6.145248889923096 161.5581207275391 3.958873748779297 161.5581207275391 C 1.772498726844788 161.5581207275391 -1.220703097715159e-06 159.7856292724609 -1.220703097715159e-06 157.59912109375 L -1.220703097715159e-06 67.98237609863281 C -1.220703097715159e-06 30.43674850463867 30.43599891662598 -2.197265530412551e-06 67.98062133789063 -2.197265530412551e-06 L 193.5446166992188 -2.197265530412551e-06 C 231.0892486572266 -2.197265530412551e-06 261.5251159667969 30.43674850463867 261.5251159667969 67.98237609863281 L 261.5251159667969 269.838134765625 C 261.5163879394531 303.0101318359375 288.40087890625 329.9078674316406 321.5719909667969 329.9144897460938 L 447.135986328125 329.9144897460938 C 480.3126220703125 329.9144897460938 507.2032470703125 303.0197448730469 507.1988830566406 269.8461303710938 L 507.1988830566406 67.98237609863281 C 507.1988830566406 30.43674850463867 537.634765625 -2.197265530412551e-06 575.1793823242188 -2.197265530412551e-06 L 700.7434692382813 -2.197265530412551e-06 C 738.2882690429688 -2.197265530412551e-06 768.7239990234375 30.43674850463867 768.7239990234375 67.98237609863281 L 768.7239990234375 269.838134765625 C 768.7239990234375 303.010009765625 795.5997314453125 329.8989868164063 828.7628784179688 329.9144897460938 L 954.31884765625 329.9144897460938 C 987.4860229492188 329.9144897460938 1014.377380371094 303.02587890625 1014.381896972656 269.8541259765625 L 1014.381896972656 180.2212524414063 C 1014.335998535156 178.7776184082031 1015.079895019531 177.4236297607422 1016.322998046875 176.6882476806641 C 1016.944641113281 176.320556640625 1017.641662597656 176.13671875 1018.338684082031 176.13671875 C 1019.035705566406 176.13671875 1019.732727050781 176.320556640625 1020.354370117188 176.6882476806641 C 1021.597351074219 177.4236297607422 1022.341247558594 178.7776184082031 1022.295654296875 180.2212524414063 L 1022.295654296875 269.838134765625 C 1022.295654296875 307.3836364746094 991.859619140625 337.8204956054688 954.3150024414063 337.8204956054688 Z" stroke="none" fill="#fff"/>
    </g>
    <rect id="Rectangle_2124" data-name="Rectangle 2124" width="51.381" height="51.381" transform="translate(150 3650)" fill="#e84f14"/>
    <rect id="Rectangle_2239" data-name="Rectangle 2239" width="51.016" height="52.016" transform="translate(1165 3650)" fill="#e84f14"/>
    <rect id="Rectangle_2240" data-name="Rectangle 2240" width="51.016" height="51.016" transform="translate(791 3485)" fill="#e84f14"/>
    <rect id="Rectangle_2241" data-name="Rectangle 2241" width="51.016" height="51.016" transform="translate(529 3815)" fill="#e84f14"/>
    <text id="_01" data-name="01" transform="translate(162 3684)" fill="#fff" font-size="24" font-family="SegoeUI, Segoe UI" letter-spacing="0.025em"><tspan x="0" y="0">01</tspan></text>
    <text id="_04" data-name="04" transform="translate(1177 3684)" fill="#fff" font-size="24" font-family="SegoeUI, Segoe UI" letter-spacing="0.025em"><tspan x="0" y="0">04</tspan></text>
    <text id="_03" data-name="03" transform="translate(803 3518)" fill="#fff" font-size="24" font-family="SegoeUI, Segoe UI" letter-spacing="0.025em"><tspan x="0" y="0">03</tspan></text>
    <text id="_02" data-name="02" transform="translate(541 3848)" fill="#fff" font-size="24" font-family="SegoeUI, Segoe UI" letter-spacing="0.025em"><tspan x="0" y="0">02</tspan></text>
  </g>
</svg>
