<svg xmlns="http://www.w3.org/2000/svg" width="49.63" height="37.925" viewBox="0 0 49.63 37.925">
  <path id="Path_7764" data-name="Path 7764" d="M43.118,35.339q-.033-.151-.053-.307L39.08,2.574A2.137,2.137,0,0,1,42.752.843l.085.089a13.586,13.586,0,0,1,3.625,7.691l3.144,25.6a3.274,3.274,0,0,1-.149,1.456q-.051.152-.117.3t-.144.283a3.293,3.293,0,0,1-6.077-.925Zm.64-10.578,1.232,10.034a1.356,1.356,0,0,0,2.692-.33L46.449,24.43ZM41.117,2.134a.179.179,0,0,0-.112.2l2.517,20.5,2.692-.33L44.537,8.86a11.648,11.648,0,0,0-3.108-6.594l-.085-.089a.182.182,0,0,0-.134-.066A.22.22,0,0,0,41.117,2.134ZM2.981,37.395l-.018,0A3.375,3.375,0,0,1,.037,33.55v-.007l3.3-21.222A4.237,4.237,0,0,1,1.093,8.032L1.974.852A.969.969,0,1,1,3.9,1.088l-.882,7.18a2.309,2.309,0,0,0,1.6,2.494l.643.079L6.425,1.4a.969.969,0,1,1,1.924.236L7.189,11.077l.643.079A2.309,2.309,0,0,0,9.993,9.125l.882-7.18a.969.969,0,1,1,1.924.236l-.882,7.18A4.236,4.236,0,0,1,8.7,12.98L6.754,34.351A3.376,3.376,0,0,1,3.4,37.42,3.455,3.455,0,0,1,2.981,37.395ZM1.955,33.836A1.436,1.436,0,0,0,3.2,35.468l.018,0a1.436,1.436,0,0,0,1.6-1.3l1.933-21.2-.764-.094h0l-.765-.094Zm8.2-13.49A14.689,14.689,0,1,1,24.844,35.035,14.705,14.705,0,0,1,10.155,20.346Zm1.939,0A12.75,12.75,0,1,0,24.844,7.6,12.764,12.764,0,0,0,12.094,20.346Zm2.849,0A9.908,9.908,0,0,1,26.4,10.568a.969.969,0,0,1,.806,1.109c0,.018-.007.035-.011.052a.968.968,0,0,1-1.1.753,7.958,7.958,0,1,0,5.737,4.054.968.968,0,0,1,.341-1.287l.045-.028a.969.969,0,0,1,1.315.386,9.9,9.9,0,1,1-18.6,4.738Zm15.219-6.464a1,1,0,0,1-.181-.055.987.987,0,0,1-.167-.089,1.05,1.05,0,0,1-.148-.121.982.982,0,0,1-.209-.314,1,1,0,0,1-.055-.181.985.985,0,0,1,0-.379c0-.023.011-.046.017-.068a.942.942,0,0,1,.038-.113.958.958,0,0,1,.089-.168.976.976,0,0,1,.435-.357,1,1,0,0,1,.181-.055.959.959,0,0,1,.379,0,.975.975,0,0,1,.181.055.957.957,0,0,1,.168.089.929.929,0,0,1,.147.12.963.963,0,0,1,.265.875,1.026,1.026,0,0,1-.055.181.981.981,0,0,1-.089.167.929.929,0,0,1-.12.147.99.99,0,0,1-.147.121l-.023.014a.955.955,0,0,1-.145.075.976.976,0,0,1-.56.055Z" fill="#e84f14"/>
</svg>
