<svg xmlns="http://www.w3.org/2000/svg" width="67.01" height="34.741" viewBox="0 0 67.01 34.741">
  <path id="towing-vehicle" d="M66.915,139.919l-5.47-11.475a4.492,4.492,0,0,0-4.037-2.548H55.07a.982.982,0,0,0,0,1.963h2.338a2.519,2.519,0,0,1,2.264,1.429l.128.269H52.4a1.7,1.7,0,0,0-1.7,1.7v.808a5.216,5.216,0,0,0,2.9,4.693l5.006,2.5a5.272,5.272,0,0,0,2.342.552h3.741l.359.754v1.791H62.793a1.9,1.9,0,0,0-1.9,1.9v7.235H59.251a5.154,5.154,0,0,0-9.938,0H47.671c0-4.287,0-21.13,0-23.63h2.818a.982.982,0,1,0,0-1.963H47.671v-1.642a.982.982,0,1,0-1.963,0v16.571H35.469a4.088,4.088,0,0,0,.507-1.245h3.876a2.259,2.259,0,0,0,1.828-.937l1.392-1.933a2.242,2.242,0,0,0-.458-3.1l-4.257-3.266a6.052,6.052,0,0,0-2.909-1.2l-3.6-3.092a8.474,8.474,0,0,0-5.237-2.03l-2.023-.062a25.021,25.021,0,0,0-15.028,4.487L5.77,129.609a2.151,2.151,0,0,0-1.394,2.784l1.518,4.223a4.487,4.487,0,0,0,4.213,2.964h1.1a4.088,4.088,0,0,0,.507,1.245H1.636A1.638,1.638,0,0,0,0,142.461v2.891a1.638,1.638,0,0,0,1.636,1.636H3.917v1.4a2.421,2.421,0,0,0,.522,1.5l2.115,2.66a2.4,2.4,0,0,0,1.884.908H9.483a5.154,5.154,0,0,0,10.24,0h1.526a5.154,5.154,0,0,0,10.24,0h5.944a.982.982,0,1,0,0-1.963H31.338a5.154,5.154,0,0,0-9.938,0H19.572a5.154,5.154,0,0,0-9.938,0h-1.2a.443.443,0,0,1-.348-.167l-2.114-2.658a.448.448,0,0,1-.1-.278v-1.4H45.708v4.5H42.013a.982.982,0,0,0,0,1.963h7.149a5.154,5.154,0,0,0,10.24,0h5.2a2.41,2.41,0,0,0,2.408-2.407v-10.7a.983.983,0,0,0-.1-.422Zm-14.256-7.852v-.547h2.148v3.649L54.475,135A3.263,3.263,0,0,1,52.659,132.067Zm8.287,5.78a3.3,3.3,0,0,1-1.465-.345l-2.711-1.353v-4.628h3.966l3.016,6.326ZM26.369,149.668a3.192,3.192,0,1,1-3.192,3.192A3.2,3.2,0,0,1,26.369,149.668Zm-11.766,0a3.192,3.192,0,1,1-3.192,3.192,3.2,3.2,0,0,1,3.192-3.192Zm4.626-10.088h8.725a4.088,4.088,0,0,0,.507,1.245H18.722A4.084,4.084,0,0,0,19.229,139.58Zm10.587-.9a2.149,2.149,0,1,1,2.149,2.149A2.151,2.151,0,0,1,29.816,138.676Zm11.662-3.112-.281.39c-.1,0-.193.008-.289.008-1.83,0-2.951-.776-2.951-1.2,0-.288.561-.783,1.584-1.037l1.878,1.441A.288.288,0,0,1,41.477,135.564Zm-16.954-9.643,2.023.061a6.5,6.5,0,0,1,4.019,1.558l1.95,1.672-4.936.307a4.756,4.756,0,0,1-1.434-.128l-6-1.466a18.517,18.517,0,0,0-4.428-.527A22.982,22.982,0,0,1,24.523,125.921ZM7.741,135.953,6.223,131.73a.188.188,0,0,1,.122-.243l3.935-1.209.019-.006.59-.181a16.568,16.568,0,0,1,8.788-.257l6,1.466a6.71,6.71,0,0,0,2.024.181l6.716-.417a4.106,4.106,0,0,1,.533,0l.029,0a4.09,4.09,0,0,1,2.183.834l.56.429a2.868,2.868,0,0,0-1.727,2.434c0,1.29,1.083,2.353,2.726,2.854H35.938a4.112,4.112,0,0,0-7.946,0h-8.8a4.112,4.112,0,0,0-7.946,0H10.106a2.52,2.52,0,0,1-2.365-1.664Zm5.328,2.724a2.149,2.149,0,1,1,2.149,2.149A2.151,2.151,0,0,1,13.069,138.676ZM1.963,145.025v-2.236H45.708v2.236H1.963Zm63.084-.707v2.191H62.856v-2.191ZM54.282,156.052a3.192,3.192,0,1,1,3.192-3.192,3.2,3.2,0,0,1-3.192,3.192Zm10.73-4.833a.446.446,0,0,1-.41.271H62.856v-3.018h2.191v2.574A.44.44,0,0,1,65.012,151.219Z" transform="translate(0 -123.273)" fill="#e84f14"/>
</svg>
