<svg xmlns="http://www.w3.org/2000/svg" width="41.13" height="42.548" viewBox="0 0 41.13 42.548">
  <path id="Path_7765" data-name="Path 7765" d="M9.53,42.426a.709.709,0,0,1-.312-.587V38.293h0a.707.707,0,0,1-.317-.075l-1.1-.551-1.1.551a.709.709,0,0,1-.634,0l-1.1-.551-1.1.551a.709.709,0,0,1-.634,0l-1.1-.551-1.1.551A.709.709,0,0,1,0,37.584V34.032c0-.009.709-2.917.709-2.917V11.434L.021,8.682S0,4.964,0,4.964A.709.709,0,0,1,1.026,4.33l1.1.551,1.1-.551a.709.709,0,0,1,.634,0l1.1.551,1.1-.551a.71.71,0,0,1,.634,0l1.1.551L8.9,4.33a.709.709,0,0,1,.634,0l1.1.551,1.1-.551a.709.709,0,0,1,.634,0l1.1.551,1.1-.551a.709.709,0,0,1,.634,0l1.1.551.709-.355V.709A.709.709,0,0,1,18.046.075l1.1.551,1.1-.551a.709.709,0,0,1,.634,0l1.1.551,1.1-.551a.709.709,0,0,1,.634,0l1.1.551,1.1-.551a.709.709,0,0,1,.634,0l1.1.551,1.1-.551a.709.709,0,0,1,.634,0l1.1.551,1.1-.551a.709.709,0,0,1,.634,0l1.1.551,1.1-.551a.709.709,0,0,1,.634,0l1.1.551,1.1-.551a.709.709,0,0,1,.634,0L39,.625,40.1.075A.709.709,0,0,1,41.13.709s0,4.3,0,4.309-.7,4.232-.7,4.232l.375,4.884a54.059,54.059,0,0,1-.027,8.609l-.349,4.183.7,4.885s.007,4.355.007,4.355A.709.709,0,0,1,40.1,36.8L39,36.25l-1.1.551a.709.709,0,0,1-.634,0l-1.1-.551-1.1.551a.709.709,0,0,1-.634,0l-1.1-.551-1.1.551a.709.709,0,0,1-.634,0l-1.1-.551v5.589a.709.709,0,0,1-1.026.634L26.78,41.13H13.61L10.191,42.5a.709.709,0,0,1-.661-.071Zm1.107-1.635,2.573-1.029a.711.711,0,0,1,.263-.051H26.947a.708.708,0,0,1,.317.075l1.81.905V39H27.656V37.584h1.418V36.166H27.656V34.748h1.418V33.329H27.656V31.911h1.418V30.222l-1.81.905a.709.709,0,0,1-.317.075H13.474a.711.711,0,0,1-.263-.051l-2.573-1.029v1.789h1.418v1.418H10.637v1.418h1.418v1.418H10.637v1.418h1.418V39H10.637ZM8.118,36.241l1.1.551V34.748h-7.8v1.689l.392-.2a.709.709,0,0,1,.634,0l1.1.551,1.1-.551a.709.709,0,0,1,.634,0l1.1.551,1.1-.551a.709.709,0,0,1,.634,0Zm28.365-1.418,1.1.551,1.1-.551a.709.709,0,0,1,.634,0l.392.2v-2.4H38.293v1.418H36.875V32.62H35.457v1.418H34.039V32.62H32.62v1.418H31.2V32.62h-.709v2.127a.71.71,0,0,1,.317.075l1.1.551,1.1-.551a.709.709,0,0,1,.634,0l1.1.551,1.1-.551a.709.709,0,0,1,.634,0ZM2.127,11.346S2.12,31.318,2.106,31.374l-.489,1.955h7.6V29.075a.709.709,0,0,1,.972-.658l3.419,1.368h8.373V11.346c0-.058.51-2.127.51-2.127H1.617S2.127,11.288,2.127,11.346ZM30.156,28.471a.709.709,0,0,1,.336.6V31.2H39.6l-.594-4.155c-.007-.053.35-4.422.35-4.422a52.627,52.627,0,0,0,.027-8.382L39,9.273c0-.057.579-3.6.579-3.6H24.111s-.015,2.981-.019,3,0,.007,0,.01L23.4,11.434V12.1a8.51,8.51,0,1,1,0,12.681v5.006H26.78l2.687-1.343a.709.709,0,0,1,.69.031ZM23.4,14.184v8.508a7.092,7.092,0,1,0,0-8.508ZM1.418,7.8H22.692V6.111l-.392.2a.709.709,0,0,1-.634,0l-1.1-.551-1.1.551a.709.709,0,0,1-.634,0l-1.1-.551-1.1.551a.709.709,0,0,1-.634,0l-1.1-.551-1.1.551a.709.709,0,0,1-.634,0l-1.1-.551-1.1.551a.709.709,0,0,1-.634,0l-1.1-.551-1.1.551a.709.709,0,0,1-.634,0l-1.1-.551-1.1.551a.709.709,0,0,1-.634,0l-1.1-.551-1.1.551a.709.709,0,0,1-.634,0l-.392-.2ZM38.293,2.837V4.255h1.418v-2.4l-.392.2a.709.709,0,0,1-.634,0l-1.1-.551-1.1.551a.709.709,0,0,1-.634,0l-1.1-.551-1.1.551a.709.709,0,0,1-.634,0l-1.1-.551-1.1.551a.709.709,0,0,1-.634,0l-1.1-.551-1.1.551a.709.709,0,0,1-.634,0l-1.1-.551-1.1.551a.709.709,0,0,1-.634,0L23.4,1.5l-1.1.551a.709.709,0,0,1-.634,0l-1.1-.551-1.1.551a.71.71,0,0,1-.634,0l-.392-.2v2.4h1.418V2.837h1.418V4.255h1.418V2.837h1.418V4.255h1.418V2.837h1.418V4.255h1.418V2.837h1.418V4.255H31.2V2.837H32.62V4.255h1.418V2.837h1.418V4.255h1.418V2.837ZM16.31,35.457A3.546,3.546,0,1,1,19.856,39,3.546,3.546,0,0,1,16.31,35.457Zm1.418,0a2.127,2.127,0,1,0,2.127-2.127A2.127,2.127,0,0,0,17.728,35.457ZM7.078,24.56a6.867,6.867,0,0,0-2.331,1.48.709.709,0,0,1-1.2-.51v-6.2A3.017,3.017,0,0,1,6.559,16.31H7.3a6.382,6.382,0,0,1,9.406-.119,6.863,6.863,0,0,0,2.544-1.037l.215-.143a.709.709,0,0,1,1.1.59v5.5a3.017,3.017,0,0,1-3.014,3.014h-.188a6.383,6.383,0,0,1-5.029,2.831q-.14.006-.279.006A6.383,6.383,0,0,1,7.078,24.56Zm1.566-.391a4.958,4.958,0,0,0,6.884-.058h-6A6.966,6.966,0,0,0,8.644,24.168Zm-3.68-4.844v4.732a8.257,8.257,0,0,1,4.561-1.363h8.027a1.6,1.6,0,0,0,1.6-1.6V16.851a8.27,8.27,0,0,1-3.717.878H6.559A1.6,1.6,0,0,0,4.964,19.324ZM9.5,16.31h5.116a4.953,4.953,0,0,0-2.558-.709h-.006A4.947,4.947,0,0,0,9.5,16.31Zm19.329,6.042a3.636,3.636,0,0,1-1.525.34,4.094,4.094,0,0,1-3.9-4.255,4.094,4.094,0,0,1,3.9-4.255,4.023,4.023,0,0,1,3.845,3.546h2.892a.709.709,0,0,1,.709.709,4.254,4.254,0,0,1-5.921,3.915Zm1.666-1.078a2.841,2.841,0,0,0,2.747-2.127H27.746A2.841,2.841,0,0,0,30.493,21.274ZM24.82,18.438A2.68,2.68,0,0,0,27.3,21.274h.022a4.237,4.237,0,0,1-1.086-2.836.709.709,0,0,1,.709-.709h2.758A2.572,2.572,0,0,0,27.3,15.6,2.68,2.68,0,0,0,24.82,18.438Z" fill="#e84f14"/>
</svg>
