<svg xmlns="http://www.w3.org/2000/svg" width="50.719" height="45" viewBox="0 0 50.719 45">
  <path id="Path_7766" data-name="Path 7766" d="M3.674,45a1.141,1.141,0,0,1-1.139-1.139V31.669a.743.743,0,1,1,1.486,0V43.514H19.335V29.453a1.736,1.736,0,0,1,1.734-1.734h8.583a1.736,1.736,0,0,1,1.734,1.734V43.514H46.7V31.669a.743.743,0,1,1,1.486,0V43.861A1.141,1.141,0,0,1,47.045,45ZM20.821,29.453V43.514H29.9V29.453a.248.248,0,0,0-.248-.248H21.068A.248.248,0,0,0,20.821,29.453Zm13.9,11.125A1.584,1.584,0,0,1,33.136,39V30.889a1.583,1.583,0,0,1,1.582-1.582h9.194a1.583,1.583,0,0,1,1.582,1.582V39a1.584,1.584,0,0,1-1.582,1.582Zm-.1-9.689V39a.1.1,0,0,0,.1.1h9.194a.1.1,0,0,0,.1-.1V30.889a.1.1,0,0,0-.1-.1H34.718A.1.1,0,0,0,34.622,30.889ZM6.807,40.579A1.584,1.584,0,0,1,5.225,39V30.889a1.583,1.583,0,0,1,1.582-1.582H16a1.583,1.583,0,0,1,1.582,1.582V39A1.584,1.584,0,0,1,16,40.579Zm-.1-9.689V39a.1.1,0,0,0,.1.1H16a.1.1,0,0,0,.1-.1V30.889a.1.1,0,0,0-.1-.1H6.807A.1.1,0,0,0,6.711,30.889ZM21.892,37.1a.743.743,0,0,1,0-1.486h.594a.743.743,0,0,1,0,1.486Zm25.549-6.176h0ZM46.757,28.7V22.986H4.024V28.7a.743.743,0,0,1-1.486,0V22.986H1.2a1.141,1.141,0,0,1-1.14-1.139V17.8A1.141,1.141,0,0,1,1.2,16.662H2.538V11.587a.743.743,0,0,1-.355-.634A1.441,1.441,0,0,0,.743,9.514.743.743,0,0,1,0,8.771V6.953A.743.743,0,0,1,.743,6.21H15.262v-2.6A3.619,3.619,0,0,1,18.877,0H31.843a3.619,3.619,0,0,1,3.615,3.615v6.6H47.146a2.937,2.937,0,0,1,2.088-2.086V7.7H37.712a.743.743,0,1,1,0-1.486H49.976a.743.743,0,0,1,.743.743V8.771a.743.743,0,0,1-.743.743,1.441,1.441,0,0,0-1.44,1.439.743.743,0,0,1-.293.592v5.117H49.58a1.141,1.141,0,0,1,1.14,1.139v4.046a1.141,1.141,0,0,1-1.14,1.139H48.243V28.7a.743.743,0,1,1-1.486,0ZM1.547,21.5H49.233V18.147H1.547Zm2.477-4.838H46.757V11.7h-11.3v.025a3.619,3.619,0,0,1-3.615,3.615H18.877a3.619,3.619,0,0,1-3.615-3.615V7.7H1.486v.428A2.937,2.937,0,0,1,3.574,10.21h9.46a.743.743,0,0,1,0,1.486H4.024ZM16.747,3.615h0v8.106a2.131,2.131,0,0,0,2.129,2.129H31.842a2.131,2.131,0,0,0,2.129-2.129V3.615a2.131,2.131,0,0,0-2.129-2.129H18.877A2.132,2.132,0,0,0,16.747,3.615Zm10.123,8.9a.743.743,0,0,1,0-1.486h.2a.743.743,0,0,1,0,1.486Zm-3.219,0a.743.743,0,0,1,0-1.486h.2a.743.743,0,1,1,0,1.486Zm.07-2.109a1.886,1.886,0,0,1-1.838-1.494l-.934-4.466h-.91a.743.743,0,0,1,0-1.486h.928A1.47,1.47,0,0,1,22.4,4.13l.938,4.483a.394.394,0,0,0,.384.312h4.412a.394.394,0,0,0,.367-.254l1.308-3.463H23.99a.743.743,0,0,1,0-1.486h6.24a1.194,1.194,0,0,1,1.117,1.617L29.89,9.2a1.888,1.888,0,0,1-1.757,1.215Z" fill="#e84f14"/>
</svg>
