<svg xmlns="http://www.w3.org/2000/svg" width="767.672" height="560.088" viewBox="0 0 767.672 560.088">
  <g id="Group_5383" data-name="Group 5383" transform="translate(151.499 655.433) rotate(-90)" opacity="0.02">
    <path id="Union_16" data-name="Union 16" d="M523,762.5l1.626-1.213,13.26-10.091,6.631-5.049,2.573-1.954v1.8l-2.012,1.429-6.744,4.787-13.491,9.574-1,.721Zm-3.819,0,4.58-3.664,13.144-10.354,9.857-7.764c.108-.088.218-.167.328-.258v2.729l-2.736,2.049-6.661,4.985-13.32,9.961-3.139,2.315Zm-22.078,0c-.009-1.047-.013-2.1-.028-3.139l-.154-19.876-.049-19.872-.025-9.936-.009-4.97c0-1.517-.138-3.649.752-5.472a9.935,9.935,0,0,1,3.28-3.5l3.273-2.579,6.579-5.1,13.159-10.186,9.08-7.028-8.254,5.885-25.736,18.639,25.564-19.028,12.732-9.625,6.357-4.834c1.151-.893,2.319-1.764,3.467-2.663v4.373l-2.245,1.711-6.609,5.029-13.219,10.059L511.8,690.453l-6.613,5.026-3.316,2.48a7.953,7.953,0,0,0-2.673,2.593,9.478,9.478,0,0,0-.55,4.167l-.073,4.965-.148,9.937-.3,19.875c-.132,7.668-.307,15.34-.461,23.008Zm-1.12,0-.331-25.8-.359-19.37-.2-9.685c-.2-3.143.411-6.848-1.463-8.491-8.456-6.384-17.268-12.761-25.883-19.14L454.823,670.3l-6.458-4.862c-1.67-1.191-3.35-2.6-5.017-3.717-.01.108-.034.231-.043.331-.046.476.009,1.515,0,2.283l.022,4.982.039,9.963.077,19.92-.012,19.928-.031,9.96-.017,4.982c.009,1.691-.111,3.3.4,4.437a3.768,3.768,0,0,0,1.12,1.436l1.633,1.29,3.283,2.593,6.56,5.181L469.5,759.367l4.044,3.136h-.709l-3.547-2.67-13.356-9.849-6.676-4.921-3.338-2.464-1.675-1.236a5.186,5.186,0,0,1-1.617-1.981c-.823-1.815-.633-3.721-.7-5.3l-.1-4.981-.2-9.959-.347-19.919-.017-1.334-.019,1.214-.865,39.93-.3-40.343L440,660.933c-8.333,6.589-16.737,13.03-25.107,19.54l-25.975,20.119-.383,39.25q-.129,11.329-.231,22.661h-2.116q.047-11.346.092-22.688l.178-40.154v-.907l.6-.461,26.684-20.33q6.221-4.72,12.429-9.474l-11.871,8.459-26.015,18.865,25.843-19.255,12.871-9.749,6.425-4.886,3.212-2.446,1.608-1.218a9.433,9.433,0,0,0,.7-.767L412.768,638.96,399.379,629.3l-6.695-4.828-3.347-2.415a5.584,5.584,0,0,0-3-1.4,5.042,5.042,0,0,0-2.954,1.317l-3.342,2.423-6.687,4.85-13.371,9.7c-8.62,6.347-17.519,12.26-26.014,18.733a6.422,6.422,0,0,0,.754.84L336.4,659.8l3.431,2.59,6.857,5.18,13.722,10.346L374.2,688.11l6.894,5.1,3.449,2.548a2.861,2.861,0,0,0,3.752.055,2.875,2.875,0,0,1-3.774,0l-3.473-2.491-6.937-4.994-13.88-9.983-3.694-2.6,2.062,1.6c8.566,6.819,17.056,13.374,25.681,20.416a7.135,7.135,0,0,1,1.66,4.846l-.006,4.9-.031,9.733-.03,19.473.1,25.8h-.12l-.332-25.8-.356-19.466-.192-9.733c-.206-3.156.413-6.884-1.445-8.563-8.468-6.439-17.332-12.852-25.982-19.279l-12.977-9.789-6.489-4.894c-1.611-1.222-3.222-2.472-4.839-3.529-.067,2.462-.07,4.974-.058,7.5l.037,9.967.073,19.936-.015,19.936-.034,9.967-.015,4.986a12.155,12.155,0,0,0,.426,4.473,6.942,6.942,0,0,0,2.608,2.9l3.283,2.59,6.568,5.182,13.129,10.365,4.194,3.247h-.69l-3.706-2.79-13.368-9.847-6.683-4.922-3.341-2.463a8.122,8.122,0,0,1-3.169-3.446,13.9,13.9,0,0,1-.7-5.277l-.1-4.981-.177-8.814-.087,8.89-.073,4.982a13.033,13.033,0,0,1-.872,5.455,9.085,9.085,0,0,1-3.249,3.593l-9.989,7.469L303.907,760.3l-2.988,2.2h-2.065l4.442-3.545,13.144-10.351,6.577-5.172,3.29-2.583a7.233,7.233,0,0,0,2.521-2.8,10.168,10.168,0,0,0,.531-4.218l-.013-4.986.025-9.971.064-19.943.068-19.943.03-9.971.016-4.986-.079-2.384-1.63,1.1-3.317,2.518-6.63,5.045-13.266,10.084-13.264,10.086-6.636,5.033-3.332,2.5a7.038,7.038,0,0,0-2.557,2.715,10.2,10.2,0,0,0-.613,4.221l-.07,4.986-.144,9.968-.3,19.942c-.12,7.553-.309,15.11-.463,22.666h-.568c-.006-.911-.009-1.826-.024-2.733l-.157-19.945-.055-19.939-.024-9.969-.015-4.985a13.067,13.067,0,0,1,.785-5.455,9.243,9.243,0,0,1,3.2-3.7l3.286-2.586,6.6-5.11,13.209-10.211,9.091-7.027-7.925,5.658-25.26,18.324,25.1-18.706,12.5-9.454c3.922-3.065,7.986-5.918,11.808-9.126a6.6,6.6,0,0,0-.814-1.01l-1.636-1.161-3.38-2.38-6.762-4.76-13.524-9.521-13.463-9.662-6.729-4.843-3.362-2.419-1.648-1.174a2.323,2.323,0,0,0-1.285-.465,2.139,2.139,0,0,0-1.234.5l-1.656,1.234-3.357,2.435-6.719,4.871-13.429,9.741-13.478,9.641-6.75,4.792-3.375,2.395-1.688,1.193a5.346,5.346,0,0,0-.738.671c1.951,1.706,4.011,3.268,6.086,4.81l6.983,5.292L250.81,678.3l14.046,10.413,7.024,5.2a9.771,9.771,0,0,0,3.666,2.094,4.9,4.9,0,0,0,3.847-1.186,4.956,4.956,0,0,1-3.856,1.25,9.7,9.7,0,0,1-3.706-2.05l-7.069-5.1-14.138-10.2-8.864-6.262,6.437,4.984,25.644,20.31a6.723,6.723,0,0,1,1.8,4.75c.031,1.7,0,3.262,0,4.9l-.031,9.717-.034,19.442.1,25.932h-.117l-.331-25.932-.359-19.434-.192-9.713c-.191-3.159.411-6.868-1.556-8.435l-25.98-19.212-12.963-9.761-6.481-4.881c-1.583-1.183-3.16-2.419-4.746-3.494-.094,12.382.046,24.9.049,37.335l-.018,19.932-.052,14.953a11.686,11.686,0,0,0,.54,4.448,7.063,7.063,0,0,0,2.51,3.032l3.286,2.594,6.566,5.177,13.135,10.358,3.918,3.032h-.715l-3.415-2.563L235.4,750.1l-6.682-4.919-3.342-2.458a8.389,8.389,0,0,1-3.08-3.593,13.754,13.754,0,0,1-.81-5.256l-.1-4.979-.2-9.968v-.054q-.1,10.108-.262,20.213l-.016.711-.45.334L190.31,762.5h-1.583l30.3-24.122c-.049-13.154.064-26.31.1-39.464l.154-37.321-24.7,18.806-13.294,10.107-6.649,5.049L171.3,698.05a7.321,7.321,0,0,0-2.611,2.67,9.779,9.779,0,0,0-.6,4.213l-.073,4.994-.148,9.991-.3,19.983-.4,19.979-.055,2.622h-.577c-.005-.88-.009-1.751-.024-2.627l-.157-19.982-.052-19.979-.025-9.991-.011-4.994a12.671,12.671,0,0,1,.789-5.475,9.419,9.419,0,0,1,3.246-3.632l3.3-2.591,6.612-5.118,13.233-10.226,9.326-7.221-8.31,5.932L168.9,695.126l25.395-18.91,12.65-9.57,6.317-4.8,3.157-2.4,2.241-1.936c-8.657-6.3-17.438-12.352-26.15-18.537L179.063,629.3l-6.717-4.839-3.356-2.419a5.677,5.677,0,0,0-3.016-1.441A4.919,4.919,0,0,0,163.035,622l-3.353,2.432-6.707,4.862-13.417,9.72c-8.616,6.36-17.5,12.246-26.022,18.722l.8.836a14.5,14.5,0,0,0,1.642,1.338l3.488,2.639,6.971,5.276,13.955,10.545,14.018,10.389,7.011,5.188a12.359,12.359,0,0,0,3.623,2.22,4.451,4.451,0,0,0,3.855-1.037,4.457,4.457,0,0,1-3.86,1.094,12,12,0,0,1-3.664-2.169l-7.057-5.085L140.2,678.794l-4.527-3.2,2.305,1.78c8.52,6.8,16.994,13.251,25.549,20.341a7.8,7.8,0,0,1,1.936,4.6c.151,1.75.043,3.31.067,4.938l-.034,9.689-.037,19.374.092,26.179h-.113l-.329-26.171-.347-19.374-.19-9.688c-.055-1.6,0-3.284-.166-4.74a6.087,6.087,0,0,0-1.633-3.637c-8.385-6.466-17.246-12.8-25.842-19.2l-24.1-18.1c-.135,5.686.019,11.515-.019,17.253l.07,19.952-.018,19.95-.034,9.977-.019,4.986a10.762,10.762,0,0,0,.558,4.412,7.353,7.353,0,0,0,2.593,2.968l3.286,2.6,6.565,5.2,13.141,10.382,4.181,3.235H142.4l-3.662-2.754-13.372-9.868-6.685-4.934-3.341-2.467A8.611,8.611,0,0,1,112.2,739a12.854,12.854,0,0,1-.852-5.269l-.1-4.989-.182-9.382-.1,9.578-.077,4.978c-.052,1.539.126,3.577-.735,5.475a8.976,8.976,0,0,1-3.321,3.469l-3.322,2.487-6.653,4.974-13.305,9.944L80.514,762.5H78.455l4.49-3.59L96.073,748.58l6.566-5.164,3.282-2.583c1.138-.9,2.163-1.6,2.6-2.679a11.124,11.124,0,0,0,.4-4.245l-.011-4.981.03-9.96.074-19.915.073-19.915.037-9.96c.019-2.5,0-4.978-.1-7.4-1.669,1.1-3.33,2.327-4.986,3.6l-6.621,5.039L84.16,680.5l-13.242,10.08L64.29,695.61,60.964,698.1c-1.155.866-2.175,1.516-2.636,2.578a10.9,10.9,0,0,0-.485,4.246l-.074,4.981-.15,9.956-.3,19.916-.4,19.906-.058,2.818h-.577l-.022-2.818-.157-19.92-.049-19.914-.022-9.956-.009-4.977c.025-1.544-.178-3.562.655-5.472a9.238,9.238,0,0,1,3.279-3.568l3.28-2.586,6.592-5.106,13.185-10.207,9.767-7.557-8.823,6.3L58.386,695.253l25.405-18.922,12.652-9.573,6.318-4.8c1.882-1.426,3.779-2.83,5.564-4.381a50.415,50.415,0,0,0-5.889-4.465l-6.765-4.767-13.524-9.526L68.683,629.14,61.958,624.3l-3.365-2.419c-1.179-.851-2.127-1.628-2.939-1.547a2.412,2.412,0,0,0-1.3.486L52.732,622l-3.359,2.43-6.72,4.867-13.439,9.734-13.484,9.621L8.975,653.44c-1.916,1.406-3.946,2.678-5.734,4.242l12.968,9.835,13.88,10.47,13.952,10.306,6.977,5.157a29.232,29.232,0,0,0,3.535,2.439,3.582,3.582,0,0,0,3.834-.636,3.609,3.609,0,0,1-3.849.691,28.5,28.5,0,0,1-3.565-2.388l-7.024-5.049-14.042-10.1-12.1-8.519,10.168,7.865c8.52,6.793,16.982,13.252,25.554,20.311a7.327,7.327,0,0,1,1.722,4.771c.037,1.7,0,3.251,0,4.887l-.034,9.684-.037,19.375.1,25.72h-.117l-.329-25.72-.346-19.366-.193-9.682c-.168-3.17.371-6.771-1.525-8.5-8.394-6.426-17.245-12.769-25.842-19.16l-12.92-9.716L7.548,665.5c-1.672-1.233-3.344-2.566-5.023-3.7-.011.1-.034.215-.039.3-.046.465.005,1.507,0,2.276l.018,4.982.04,9.963.077,19.923-.013,19.928-.034,9.96-.015,4.985c.009,1.688-.114,3.3.4,4.438a3.827,3.827,0,0,0,1.126,1.435l1.633,1.29L9,743.878l6.56,5.18,13.123,10.37,3.967,3.076h-.712l-3.47-2.611-13.353-9.851-6.676-4.927L5.1,742.656l-1.672-1.242a5.2,5.2,0,0,1-1.617-1.977c-.822-1.815-.632-3.721-.706-5.3L1,729.163.8,719.2.46,699.28.2,679.36.077,669.4l-.064-4.979c.01-.887-.052-1.511.034-2.7.107-1.02.286-1.788.381-2.519l.113-.89-.319.237.034-2.161L.9,616.056l.859-39.928,26.2-21.017,26.576-20.978.6-.474,0-.9c-.055-13.322.076-26.64.107-39.958l.171-39.963.006-.835.5-.447c4.35-3.856,8.737-7.206,13.156-10.667l13.3-10.14,13.4-9.915c2.246-1.628,4.479-3.271,6.762-4.831l3.434-2.324c.568-.389,1.161-.755,1.755-1.122l.905-.55,1.117-.521,1.129-.522-.025,1.738c-.381,26.581-.874,53.074-1.51,79.141-.249-26.074-.365-51.731-.374-77.3l-.408.264c-.562.362-1.12.727-1.681,1.133l-3.356,2.4-6.7,4.9L83.5,433.267,70.291,443.509c-4.183,3.323-8.445,6.652-12.419,10.188l-.378,39.125c-.148,12.588-.2,25.178-.413,37.772l25.2-18.843,27.058-19.908L83.147,512.861l-.662.523.56-.424,13.362-9.951,6.682-4.978,3.341-2.487c1.031-.708,2.354-1.985,4.136-2,1.746-.017,3.133,1.15,4.175,1.913l3.145,2.325q-2.341-1.884-4.691-3.809a7.691,7.691,0,0,1-2.007-4.528c-.189-1.752-.064-3.323-.091-4.934l.03-9.658.037-19.315-.138-38.624.484,38.621.35,19.315.186,9.653c.062,1.6-.009,3.267.191,4.708a5.949,5.949,0,0,0,1.69,3.577c8.4,6.414,17.2,12.752,25.776,19.131L163.775,530c.037-.769.069-1.541.082-2.322l-.025-4.994L163.8,512.7l-.076-19.971.009-19.968.034-9.987.015-4.994a12.214,12.214,0,0,0-.444-4.464c-.461-1.246-1.519-1.959-2.648-2.847l-3.289-2.593-6.578-5.193L137.658,432.3,124.44,422.069l-6.618-5.108a60.587,60.587,0,0,0-6.69-4.822l-.106,4.775.064-4.819v-.04l.031.016a59.616,59.616,0,0,1,6.771,4.744l6.66,5.006,13.329,10,13.387,9.859,6.694,4.931,3.347,2.462a8.173,8.173,0,0,1,3.216,3.394,14.075,14.075,0,0,1,.723,5.292l.1,4.991.2,9.983.341,19.963.255,19.963.1,7.615c-.022-9.316.073-18.635.049-27.952l-.1-19.883-.055-9.94-.024-4.97a12.02,12.02,0,0,1,.678-5.268,9.486,9.486,0,0,1,3.163-3.419l3.268-2.594,6.541-5.188,13.1-10.326L206,420.513l6.574-5.108,3.286-2.554c1.117-.836,2.32-1.553,3.473-2.329l.844-.561-.08-1.105c-.255-3.49-.138-6.761-.116-10.086l.088-9.964.184-19.924.181-19.928.1-9.964.074-4.986c.052-1.532-.12-3.576.745-5.467a9.109,9.109,0,0,1,3.326-3.469l3.326-2.49,6.655-4.978,13.313-9.956L261.34,297.8l6.686-4.918a61.762,61.762,0,0,1,6.823-4.588c.317,3.271.279,6.662.328,9.959l.077,9.964.147,19.928.046,19.932.022,9.96.009,4.982c-.027,1.539.187,3.564-.662,5.482a6.851,6.851,0,0,1-1.946,2.5,4.623,4.623,0,0,1,2.988-.971c1.749.158,2.989,1.313,4.06,2.069l3.341,2.467,5.163,3.817c-3.374-2.666-6.752-5.366-10.146-8.158a7.8,7.8,0,0,1-1.938-4.583c-.172-1.743-.059-3.314-.083-4.93l.034-9.661.031-19.331-.141-38.653.487,38.653.35,19.322.19,9.666c.058,1.6,0,3.267.181,4.718a6.051,6.051,0,0,0,1.635,3.626c8.385,6.422,17.209,12.742,25.794,19.116l12.9,9.685,6.446,4.85,3.221,2.423,1.571,1.032.073-2.457-.021-4.989-.037-9.98-.07-19.955.006-19.955.033-9.98.019-4.99a10.68,10.68,0,0,0-.574-4.4,7.273,7.273,0,0,0-2.605-2.944l-3.285-2.6-6.569-5.2-13.137-10.393-26.4-20.41-.21,5.158.163-5.213,0-.052.031.024,26.635,20,13.367,9.876,6.686,4.938L326.4,325.1a8.559,8.559,0,0,1,3.16,3.461,12.774,12.774,0,0,1,.872,5.273l.1,4.989.2,9.972.335,19.952.011.922q.385-20.553.875-40.852l26.189-21.03.5-.4-.559.422-13.321,9.92-6.658,4.957-3.331,2.483c-1.025.756-2.492,1.918-4.2,1.85-1.7-.032-3.1-1.23-4.117-1.973l-3.336-2.467-6.674-4.935-13.337-9.884-26.539-20.1-.8-.608.767-.641,3.1-2.593,3.2-2.273,6.4-4.541L302,267.89l25.456-18.458a4.718,4.718,0,0,1,3.857-1.186c1.355.283,2.5,1.316,3.682,2.132l7.063,5.093,14.128,10.187,14.2,10.028,7.1,5.009c2.375,1.643,4.737,3.319,7.032,5.256l.615.522,1.012-.8.009,2.209c.058,13.322-.074,26.639-.108,39.958l-.165,39.959,0,.831-.5.442q-.885.788-1.771,1.545a4.947,4.947,0,0,1,2.477-.614,7.521,7.521,0,0,1,4.143,1.9l2.814,2.082-4.834-3.829a6.687,6.687,0,0,1-1.782-4.727c-.04-1.695,0-3.243-.008-4.875l.03-9.661.028-19.323-.154-38.642.5,38.637.356,19.319.19,9.658c.2,3.136-.4,6.836,1.544,8.388l25.827,19.1,12.885,9.7,6.443,4.85,3.221,2.427,1.609,1.214c.073.049.146.1.219.142.02-.133.035-.258.046-.373a3.66,3.66,0,0,0,.015-.41l-.01-.621-.016-1.245-.017-4.978-.037-9.969-.073-19.923.011-19.927.034-9.961.019-4.985c-.019-1.7.145-3.31-.4-4.408-.485-1.159-1.653-1.863-2.752-2.757l-3.28-2.594-6.559-5.182-13.126-10.361-13.19-10.215-6.593-5.1c-2.216-1.63-4.314-3.567-6.69-4.786l-.18,4.364.141-4.4v-.036l.028.012c2.412,1.191,4.526,3.1,6.766,4.7l6.643,5,13.29,9.987,13.359,9.848,6.675,4.918,3.341,2.463c1.04.835,2.4,1.46,3.279,3.227a7.336,7.336,0,0,1,.651,2.77l.059,2.538.1,4.978.172,8.725.086-8.692.07-4.979a12.885,12.885,0,0,1,.887-5.447,9.1,9.1,0,0,1,3.246-3.582l.034-.025c-.588.423-1.037.776-1.746,1.243a4.478,4.478,0,0,1-2.4.748c-1.782-.052-3.08-1.269-4.126-2.006l-3.342-2.471-6.688-4.943-13.368-9.892-13.306-10.04-6.655-5.021L390.2,290.05c-1.1-.856-2.147-1.906-3.218-2.849l-.727-.641.742-.589,3.127-2.48,3.2-2.268,6.388-4.532,12.76-9.109,25.423-18.427a4.316,4.316,0,0,1,3.863-1.062,14.031,14.031,0,0,1,3.644,2.233l7.064,5.088,14.128,10.171,18.988,13.408-4.638-3.659L467.2,264.5l-13.809-10.68-6.9-5.345a20.493,20.493,0,0,1-3.35-2.873,7.416,7.416,0,0,1-1.35-4.763,7.389,7.389,0,0,0,1.38,4.719,20.691,20.691,0,0,0,3.366,2.814l6.952,5.236,13.905,10.474L481.366,274.4l6.989,5.156c2.047,1.469,4.069,3.118,6.161,4.341.085-2.866.029-5.774-.046-8.69l-.2-9.964-.35-19.928-.248-19.936-.13-9.964-.061-4.985a11.673,11.673,0,0,0-.424-4.119,6.4,6.4,0,0,0-2.448-2.549l-3.3-2.555-6.6-5.109-13.2-10.218L454.391,175.5l-6.566-5.185c-1.941-1.537-3.87-3.114-5.856-4.464-.093,1.185-.2,2.366-.233,3.568l-.016,4.762-.034,9.523-.037,19.044.135,38.088-.478-38.084-.231-12.98-.145,14.714c-.147,13.355-.211,26.708-.454,40.063l-.013.711-.454.339-53.59,39.692,52.158-41.443c-.052-13.134.067-26.258.1-39.389l.151-37.3c-8.265,6.078-16.48,12.5-24.724,18.713l-13.279,10.1-6.643,5.046-3.336,2.491a7.371,7.371,0,0,0-2.568,2.737,9.664,9.664,0,0,0-.657,4.195l-.073,4.994-.142,9.978-.288,19.964c-.228,13.305-.614,26.613-.705,39.914-.317-6.617-.27-13.329-.345-19.959l-.158-19.016-.019,18.69-.031,9.964-.016,4.982c-.012.8.028,1.687-.073,2.606l-.307,2.464-.145,1.15-.794-.493c-2.476-1.545-4.617-3.5-6.928-5.249l-6.816-5.387-13.639-10.763-13.7-10.61-6.855-5.3c-1.132-.91-2.312-1.71-3.4-2.709a6.139,6.139,0,0,1-1.522-4.58,6.031,6.031,0,0,0,1.552,4.528c1.087.975,2.283,1.767,3.418,2.653l6.9,5.2,13.8,10.4L371.2,274.117l6.941,5.121c2.053,1.449,4.068,3.13,6.144,4.43l.133-1.318c.071-.732.016-1.511.01-2.371l-.1-4.982-.2-9.964-.353-19.928-.258-19.927-.13-9.964-.064-4.982c-.031-1.711.03-3.291-.359-4.105a2.882,2.882,0,0,0-.92-1.138l-1.645-1.274-3.3-2.55-6.6-5.1-13.2-10.21-13.129-10.362-6.566-5.185-3.28-2.59-1.641-1.294a5.535,5.535,0,0,0-.7-.522l-.241-.091c-.176,2.8-.135,5.681-.148,8.538l-.034,9.535-.031,19.068.142,38.128-.491-38.124-.281-15.613-.176,16.5c-.261,13.128-.368,25.984-.776,39.338a5.257,5.257,0,0,1-1.08,2.5,8.5,8.5,0,0,1-1.673,1.469l-3.279,2.43-6.56,4.872-13.1,9.757-26.1,19.775,25.917-20.171L316.972,253.6l6.443-5.117,3.222-2.558a4.388,4.388,0,0,0,2.126-3.056c.067-12.75-.111-26.048-.138-39.043l.031-19.6.015-9.8.009-4.9,0-2.413-1.8,1.227-3.307,2.5-6.618,5.014-13.233,10.019-13.285,9.911-6.652,4.931-3.326,2.466a8.094,8.094,0,0,0-2.78,2.7,10.031,10.031,0,0,0-.6,4.378l-.089,4.969-.175,9.937-.356,19.871c-.083,13.235-.416,26.484-.294,39.718a8.156,8.156,0,0,0,1.991-.778,8.224,8.224,0,0,1-2,.812l-.015.008v-.02c-.246-13.246-.028-26.5-.065-39.747l-.1-19.872-.055-9.936-.024-4.97a11.833,11.833,0,0,1,.687-5.264,9.5,9.5,0,0,1,3.167-3.395l3.267-2.6,3.828-3.039-3.85,2.868-3.338,2.484c-.586.434-1.04.792-1.746,1.264a4.527,4.527,0,0,1-2.393.757,4.652,4.652,0,0,1-2.2-.65,6.507,6.507,0,0,1,1.454,2.059,14.007,14.007,0,0,1,.746,5.638l.022,4.982.038,9.969.079,19.939-.019,19.936-.028,9.971-.016,4.986c-.008,1.664-.2,3.371-.3,5.046l-.07,1.25-.878-.554c-2.475-1.552-4.672-3.47-6.977-5.252l-6.854-5.412-13.714-10.823-13.782-10.667-6.891-5.337a35.562,35.562,0,0,1-3.393-2.777,6.972,6.972,0,0,1-1.328-4.744,6.877,6.877,0,0,0,1.359,4.7,35.245,35.245,0,0,0,3.408,2.721l6.941,5.228L246.985,264l13.948,10.31,6.977,5.149c2.04,1.47,4.057,3.088,6.124,4.384.064-1.215.148-2.423.126-3.663l-.1-4.982-.2-9.969-.356-19.936-.258-19.935-.13-9.968-.064-4.986a11.648,11.648,0,0,0-.418-4.094,3.62,3.62,0,0,0-.935-1.25l-1.583-1.232-3.3-2.555-6.6-5.1-13.209-10.212-13.135-10.365L227.3,170.41c-1.951-1.482-3.86-3.172-5.847-4.458-.135,2.758-.156,5.553-.145,8.35l-.031,9.513-.028,19.029.148,38.048-.492-38.048-.346-19.021-.191-9.506c-.085-3.167-.131-6.338-.015-9.549l.043-1.075.789.429a27.746,27.746,0,0,1,2.773,1.757c-.84-.717-1.657-1.514-2.488-2.247l-.68-.592.674-.637a59.967,59.967,0,0,1,6.4-4.863l6.465-4.583,12.914-9.208,25.733-18.634a3.3,3.3,0,0,1,3.834-.457c1.231.693,2.354,1.637,3.535,2.444l7,5.03,13.991,10.062,28.119,19.849.589.413-.193-1.465a38.465,38.465,0,0,1-.1-5.061l.052-4.867.1-9.733.209-19.47.346-19.463.172-9.737.085-4.862a47.971,47.971,0,0,1,.207-5.033,5.849,5.849,0,0,1,2.807-3.832l3.255-2.42,6.516-4.835,13.013-9.7,25.916-19.64a14.462,14.462,0,0,1,2.4-1.153l.021-.014V41.2l-.1,39.732.181,39.731v.434l-.282.257c-4.237,3.865-8.584,7.394-12.938,10.951-4.358,3.534-8.727,7.036-13.157,10.414l-8.009,6.062,6.218-4.447,25.137-18.252a5.974,5.974,0,0,1,3.862-1.5,7.448,7.448,0,0,1,3.814,1.806l7.14,5.146L411,141.824q4.387,3.113,8.784,6.2l-6.181-4.781c-8.505-6.785-16.973-13.207-25.509-20.285a7.9,7.9,0,0,1-1.988-4.543,49.188,49.188,0,0,1-.1-4.944l.034-9.673.04-19.343-.13-38.681.476,38.681.344,19.339.186,9.67c.061,1.6-.012,3.27.193,4.71a6.175,6.175,0,0,0,1.69,3.609c8.367,6.459,17.215,12.761,25.8,19.152l12.908,9.7,6.452,4.853,3.228,2.427,1.517.991c.085-12.38-.07-24.919-.079-37.364l.009-19.964.034-9.979.016-4.99a10.861,10.861,0,0,0-.568-4.412,7.215,7.215,0,0,0-2.6-2.954l-3.284-2.593-6.574-5.2L412.572,61.052l-13.052-10.1c-4.471-3.205-8.937-6.431-13.378-9.742l-.186,4.556.144-4.587-.118-.087-1.63-1.214,1.549-1.457a63.061,63.061,0,0,1,6.523-5.085l6.559-4.755,13.117-9.5C420.936,12.86,429.573,6.6,438.571.4a3.8,3.8,0,0,1,4.075.485l3.277,2.456,6.489,4.91,12.994,9.784L491.5,37.36l2.409,2.156.022.017-.022.019a74.226,74.226,0,0,1-6.563,5.178l-6.66,4.958-13.322,9.927L454.111,69.694l-6.63,5.037-3.314,2.52c-1.04.763-2.286,1.984-3.884,1.866-1.562-.108-2.74-1.191-3.838-1.923l-3.376-2.372-6.753-4.75-13.484-9.553q-1.232-.894-2.465-1.782l2.424,1.821,13.375,9.877,6.685,4.938,3.344,2.471a8.464,8.464,0,0,1,3.151,3.478,12.863,12.863,0,0,1,.866,5.268l.1,4.99.2,9.979,0,.293q.1-10.156.264-20.312l.016-.712.454-.339,53.6-39.766c.324,6.63.254,13.326.335,19.968l.153,19.962.049,19.964.024,9.983.009,4.994a13.331,13.331,0,0,1-.757,5.453,9.088,9.088,0,0,1-3.2,3.728l-3.291,2.586-6.606,5.118L468.341,142.7l-9.267,7.162,8.406-6,25.437-18.448-25.269,18.833-12.589,9.523c-3.927,3.075-8.017,5.936-11.83,9.171.3.346.583.68.859.951a18.525,18.525,0,0,0,1.6,1.182l3.384,2.383,6.772,4.776,13.539,9.544,13.478,9.7,6.738,4.85,3.369,2.427c1.172.852,2.15,1.632,2.92,1.536a2.3,2.3,0,0,0,1.253-.545l1.672-1.237,3.362-2.444,6.726-4.879,13.45-9.753,13.5-9.652,10.14-7.2,1.1-.785v4.657l-3.012,2.286-6.634,5.047L524.178,185.86l-13.266,10.091-6.636,5.038-3.332,2.487a7.044,7.044,0,0,0-2.556,2.709,10.283,10.283,0,0,0-.61,4.226l-.072,4.986-.147,9.972-.294,19.94c-.205,13.29-.669,26.589-.669,39.871,8.861-6.661,17.495-13.861,26.257-20.759L536,254.078l6.574-5.168,3.289-2.583a13,13,0,0,0,1.224-1.035v2.829c-.1.076-.211.16-.309.231l-3.332,2.491-6.658,4.974-13.326,9.948-13.377,9.84c-4.492,3.2-8.833,6.753-13.494,9.574-.456-6.638-.263-13.294-.386-19.94l-.14-17.88-.02,17.865-.034,9.967c.01,3.314,0,6.641-.233,10.015l-.065.949.16.114-.849.831a69.473,69.473,0,0,1-6.572,5.345l-6.64,5.049-11.726,8.85c8.36-6.1,16.624-12.426,25.107-18.257a92.435,92.435,0,0,1,.392,9.968l.08,9.98L495.823,328l.046,19.963.021,9.98.013,4.984v2.54a7.606,7.606,0,0,1-.592,2.968,7.384,7.384,0,0,1-2.453,2.853,5.839,5.839,0,0,1,3.273-1.073,7.291,7.291,0,0,1,4.16,1.858l9.993,7.4,3.3,2.445-15.274-12.1c-1.239-1.081-1.7-3.246-1.639-4.881l.016-4.883.03-9.736.031-19.474-.153-38.952.5,38.948.361,19.47.194,9.737.1,4.858a4.732,4.732,0,0,0,1.266,3.669l26.036,19.254,19.48,14.679,2.558,1.931v4.631L522.567,391.71l-13.413-9.674L499.1,374.778a5.336,5.336,0,0,0-3-1.39,5.217,5.217,0,0,0-2.964,1.346l-10.045,7.289-13.4,9.717c-8.6,6.334-17.473,12.236-25.955,18.706a70.409,70.409,0,0,0,5.848,4.679l6.866,5.184,13.742,10.353,13.812,10.207,6.9,5.1,3.457,2.536a2.958,2.958,0,0,0,3.774,0,2.983,2.983,0,0,1-3.8.052l-3.482-2.483-6.953-5-13.9-9.995-13.97-9.842-6.986-4.914a51.842,51.842,0,0,1-6.891-5.3l-.33-.331-.011,1.155,0-.144,0-.039.03.016a58.744,58.744,0,0,1,6.756,4.76l6.651,5.013,13.311,10.022,13.371,9.88,6.686,4.938,3.344,2.471,1.7,1.27a5.538,5.538,0,0,1,1.562,2.029c.813,1.8.632,3.733.7,5.308l.1,4.985.124,6.221.069-16.2,0-.907.6-.458L523.522,430.7q6.259-4.748,12.506-9.516l-11.893,8.482-25.993,18.845,25.818-19.234,12.858-9.737,6.422-4.883,3.212-2.444c.212-.166.424-.337.638-.5v4.07c-7.451,5.849-14.948,11.619-22.422,17.428L498.7,453.325l-.381,38.706c-.147,12.574-.215,25.147-.43,37.722.675-.41,1.412-.9,2.071-1.33l3.4-2.319,6.756-4.783,13.435-9.792,13.4-9.881c3.39-2.582,6.792-5.144,10.143-7.818v.271c-3.221,2.853-6.507,5.579-9.8,8.277l-13.129,10.512-13.272,10.2-6.7,4.994-3.381,2.435-1.731,1.182a12.909,12.909,0,0,1-1.97,1.142l-.619.293-.189,1.386-.616-.392-.325.265c-1.053.856-2.086,1.75-3.148,2.567l-3.227,2.291-6.461,4.583-12.9,9.208-25.708,18.63,25.54-19.02,12.72-9.621,6.351-4.836,3.176-2.416,2.238-1.954c-8.66-6.268-17.42-12.349-26.134-18.519l-13.431-9.665-6.717-4.835-3.356-2.418a5.587,5.587,0,0,0-3.025-1.368,4.945,4.945,0,0,0-2.968,1.288l-3.35,2.436-6.7,4.862-13.4,9.734c-8.632,6.344-17.482,12.307-26.046,18.716l.786.869a18.631,18.631,0,0,0,1.641,1.3l3.476,2.629,6.947,5.256,13.9,10.5,13.966,10.347,6.986,5.169a19.281,19.281,0,0,0,3.562,2.367,3.906,3.906,0,0,0,3.844-.824,3.939,3.939,0,0,1-3.854.879,18.938,18.938,0,0,1-3.6-2.315l-7.029-5.062L415.37,555.035l-14.126-9.971-5.122-3.611,4.963,3.918,13.66,10.771,13.735,10.624,6.866,5.308c1.135.9,2.3,1.743,3.421,2.685,1.169.979,1.568,2.866,1.525,4.569.028-1.707-.387-3.57-1.553-4.521-1.123-.918-2.3-1.75-3.442-2.626l-6.912-5.208L414.554,556.56l-13.9-10.266-6.953-5.125-3.476-2.563a21.619,21.619,0,0,0-2.641-1.811c-.089,2.886-.019,5.816.052,8.755l.2,9.936.353,19.876.258,19.876.13,9.935.064,4.971a12.137,12.137,0,0,0,.405,4.105c.337.96,1.313,1.589,2.477,2.5l3.292,2.547,6.581,5.093,13.159,10.191,13.092,10.346,6.547,5.168c1.973,1.483,3.905,3.249,5.906,4.541.083-.468.165-.92.215-1.345.079-.64.031-1.491.049-2.278l.015-4.781.031-9.558.028-19.115-.145-38.223.494,38.214.245,13.291.148-14.945c.147-13.274.211-26.545.454-39.818l.013-.709.45-.335,26.656-19.986c8.944-6.487,17.707-13.477,26.88-19.469l.224,2.479.037,2.494.058,4.982.077,9.964.137,18.221.025-18.161.034-9.972.019-4.986a24.069,24.069,0,0,1,.083-2.606l.312-2.467.147-1.161.785.5,1.407.907c-.465-.425-.923-.871-1.373-1.344l-.651-.682.676-.536,3.127-2.5,3.2-2.264,6.387-4.533L523.1,514.8l23.987-17.381v.027l-23.818,17.74L510.688,524.7l-6.284,4.779-3.144,2.393-2.317,1.974a54.928,54.928,0,0,0,5.863,4.475l6.765,4.772,13.54,9.553,13.472,9.7,6.735,4.859,1.773,1.277v3.537l-2.93-2.169-6.689-4.958L524.1,554.965l-13.31-10.072-3.532-2.671,4.158,3.279,13.708,10.812L538.9,566.966l6.887,5.327c.424.354.863.677,1.3,1v.115c-.454-.326-.908-.648-1.347-1.006l-6.937-5.221-13.874-10.449-13.942-10.3-6.977-5.141-3.487-2.571-1.743-1.277-.961-.565-.138,1.321a21.668,21.668,0,0,0-.016,2.368l.1,4.986.193,9.972.347,19.935.248,19.943.126,9.973.062,4.985a10.536,10.536,0,0,0,.469,4.071,6.793,6.793,0,0,0,2.458,2.6l3.3,2.554,6.605,5.11,13.206,10.219,13.135,10.37,6.568,5.188c.869.677,1.737,1.373,2.6,2.057v3.275c-.15-.12-.291-.25-.451-.362l-3.381-2.383L536.5,648.3l-13.526-9.527-13.46-9.681-6.728-4.843-3.367-2.423c-1.168-.86-2.116-1.564-2.957-1.532a2.534,2.534,0,0,0-1.3.461l-1.615,1.174-3.356,2.43-6.722,4.872-13.439,9.733-13.481,9.626-6.753,4.79c-1.93,1.381-3.878,2.734-5.68,4.274L470.8,677.832l13.9,10.27,6.95,5.137c1.169.824,2.291,1.779,3.5,2.495a3.269,3.269,0,0,0,3.819-.362,3.284,3.284,0,0,1-3.838.418c-1.227-.7-2.351-1.639-3.529-2.446l-7-5.03-13.991-10.055-12.428-8.768,10.609,8.2c8.53,6.765,16.982,13.294,25.571,20.262a7,7,0,0,1,1.687,4.8l0,4.874-.031,9.689L496,736.695l.1,25.809ZM439.66,658Zm-330.023-.954.416.487.48-.281,0-.139-.167.08,0-.175-.546-.255q-.418-.194-.819-.413C109.221,656.567,109.431,656.8,109.637,657.042Zm331.082.471.049-.036v-.017Zm-110.649-.38.258.312.378-.257-.009-.4-.441-.173a8.718,8.718,0,0,1-.823-.375C329.655,656.559,329.847,656.866,330.07,657.133Zm-108.272.284.414-.42q.13-.133.261-.274a.9.9,0,0,1-.174,0,1.282,1.282,0,0,1-.506-.17l-.008.859Zm-110.057-.3.27-.236q.836-.728,1.681-1.429l-.168.1-.9.554-1.095.524-.255.12Zm328.509-.45.523.393,0-.374-.509-.279c-.655-.358-1.284-.752-1.9-1.166Zm-220.216.139.316.247.154-.118-.5-.356q-1.788-1.282-3.573-2.569Q218.235,655.4,220.034,656.81Zm.838-.832-.018.69.533-.412-.243-.167-.27-.184Zm1,.609-.079-.054v.015Zm-165-118.339a21.189,21.189,0,0,0-.018,2.364l.1,4.985.2,9.971.35,19.944.258,19.943.129,9.976.064,4.985a11.372,11.372,0,0,0,.439,4.114,6.43,6.43,0,0,0,2.449,2.567l3.3,2.554,6.6,5.11,13.209,10.221,13.138,10.375,6.568,5.189a68.66,68.66,0,0,0,5.883,4.427c.152-2.774.174-5.59.161-8.415l.034-9.517.028-19.032-.139-38.069L110.109,618l.344,19.032.123,6.265c.35-22.458.781-44.821,1.329-66.9,4.173-3.923,8.544-7.473,12.9-11.033l13.147-10.537,13.309-10.2,6.713-4.986,3.4-2.427c.564-.409,1.147-.791,1.736-1.177l.9-.578,1.093-.548.2-.1-.538-.415-.075.06c-4.145,3.4-8.483,6.168-12.72,9.268L139.2,552.827l-25.437,18.432,25.269-18.814,12.589-9.517c3.9-3.049,7.946-5.859,11.734-9.087-.824-.7-1.638-1.405-2.491-2.051l-3.387-2.382-6.771-4.768L137.161,515.1l-13.481-9.68-6.737-4.843-3.373-2.423c-1.156-.86-2.092-1.5-2.969-1.461-.863-.028-1.755.759-2.942,1.632l-3.365,2.436-6.726,4.874-13.454,9.753-13.5,9.649-6.762,4.8a61.9,61.9,0,0,0-5.7,4.3L85.2,554.63l14.05,10.41,7.022,5.2c1.175.84,2.3,1.882,3.649,2.17a4.745,4.745,0,0,0,3.851-1.155,4.772,4.772,0,0,1-3.86,1.213c-1.358-.266-2.5-1.3-3.685-2.12l-7.072-5.1-14.14-10.2L62.125,538.872q.808.641,1.617,1.278l6.848,5.412,13.7,10.807,13.77,10.656,6.885,5.328a24.33,24.33,0,0,1,3.362,2.824,7.336,7.336,0,0,1,1.317,4.763,7.277,7.277,0,0,0-1.346-4.718,24.768,24.768,0,0,0-3.378-2.766l-6.935-5.224L84.1,556.786,70.169,546.493,63.2,541.351c-2.055-1.5-4.1-3.087-6.193-4.412Zm220.372.12c-.049.624.012,1.579.015,2.372l.1,4.978.2,9.964.356,19.914.258,19.92.13,9.96.064,4.981c.03,1.732-.034,3.251.377,4.079a3.115,3.115,0,0,0,.938,1.169l1.636,1.268,3.3,2.552,6.6,5.1L304.4,634.837l13.12,10.362,6.559,5.181,3.283,2.59a19.18,19.18,0,0,0,2.585,1.886c.164-2.778.177-5.6.167-8.432l.031-9.494.031-18.992-.141-37.977.487,37.972.219,12.26.124-14.094.172-19.916.094-9.955.07-4.981a12.744,12.744,0,0,1,.9-5.444,9.161,9.161,0,0,1,3.249-3.574l3.327-2.485,6.655-4.971,13.306-9.94c8.937-6.478,17.749-13.251,26.8-19.494a98.539,98.539,0,0,1,.377,9.972l.079,9.983.157,19.967v.04l.022-19.791.03-9.94c0-3.308-.006-6.622.222-9.993l.029-.449-1.156-.869-.154.149a57.764,57.764,0,0,1-6.415,4.886l-6.489,4.6-12.957,9.236-25.812,18.7,25.644-19.088,12.77-9.657,6.378-4.85c1.845-1.457,3.819-2.764,5.533-4.382-1.9-1.558-3.9-2.967-5.912-4.36l-6.744-4.746-13.484-9.5-13.417-9.657-6.711-4.827-3.353-2.415c-1.172-.851-2.105-1.575-2.986-1.583-.889-.06-1.7.577-2.9,1.46l-3.35,2.423-6.7,4.85-13.4,9.7c-8.607,6.338-17.515,12.234-25.994,18.693l.793.829a15.079,15.079,0,0,0,1.629,1.313l3.446,2.6,6.894,5.209,13.788,10.4,13.859,10.25,6.931,5.121c1.163.831,2.292,1.755,3.479,2.514a3.153,3.153,0,0,0,3.8-.3,3.177,3.177,0,0,1-3.819.358c-1.206-.748-2.335-1.647-3.507-2.462l-6.977-5.018-13.947-10.035-14.018-9.88-7.007-4.934-3.507-2.467a17.022,17.022,0,0,1-1.789-1.353l-1.592-1.568-.709-.7.742-.7c2.131-2.009,4.37-3.541,6.57-5.253l6.617-5.033,13.26-10.012,13.3-9.9,6.655-4.953,3.326-2.471c.985-.744,2.477-1.99,4.213-1.854,1.733.1,3.031,1.309,4.075,2.042l2.938,2.177-1.932-1.521a24.739,24.739,0,0,1-3.24-2.781,7.351,7.351,0,0,1-1.559-4.934l.015-4.891.038-9.78.039-19.557-.133-37.707c-.008,11.633-.231,23.079-.339,34.646-.264,12.857-.381,25.487-.768,38.526a6.154,6.154,0,0,1-2.381,4.218l-3.228,2.407-6.428,4.768-12.84,9.574-25.579,19.375,25.4-19.762,12.65-10,6.315-5.014c1.976-1.795,4.752-2.92,4.94-5.814.058-12.55-.1-25.546-.135-38.294-.036-12.25.121-24.643-.013-36.789l-.353.224a17.105,17.105,0,0,0-1.639,1.209l-3.3,2.512-6.6,5-13.2,10.015c-8.681,6.619-17.466,13.022-26.194,19.539L277,492.424l-.407,33.937.01.872-.033.94-.049,4.157,3.336-2.18-3.347,2.252-.037.023v-.048l0-1.51-.049,1.427-.055,1.621,0,1.051.056-.4.779.487c2.485,1.544,4.654,3.477,6.962,5.24l6.842,5.4L304.7,556.469,318.451,567.1l6.872,5.313a25.654,25.654,0,0,1,3.362,2.812,7.223,7.223,0,0,1,1.351,4.737,7.143,7.143,0,0,0-1.385-4.688,24.881,24.881,0,0,0-3.374-2.757l-6.922-5.21-13.846-10.42L290.6,546.615l-6.958-5.129c-2.074-1.477-4.119-3.143-6.218-4.445C277.346,537.51,277.276,537.956,277.243,538.368Zm-110.158-.351.043,2.415.1,4.986.193,9.975.344,19.947.252,19.952.126,9.971.061,4.99.034,2.424a4.237,4.237,0,0,0,.326,1.647,7.533,7.533,0,0,0,2.53,2.521L174.4,619.4l6.608,5.1,13.224,10.2q12.744,10.068,25.555,19.971c.074-1.155.158-2.307.178-3.476l.013-4.764.03-9.509.031-19.032-.145-38.061a7.434,7.434,0,0,0-1.3-4.738,23.244,23.244,0,0,0-3.363-2.775l-6.922-5.22-13.843-10.44-13.91-10.287-6.962-5.141c-2.087-1.523-4.158-3.153-6.279-4.481A7.54,7.54,0,0,0,167.085,538.017Zm54.984,116.337Zm-193.25-98.14L1.758,576.128l.3,40.341.084,37.74c8.336-6.59,16.741-13.017,25.108-19.529l25.975-20.124.38-39.236c.145-12.652.205-25.3.419-37.96Zm220.412-.028-27.061,19.9c.254,26.292.371,52.16.383,77.945l.034-.022.819-.536a20.041,20.041,0,0,0,1.636-1.23l3.267-2.576,6.557-5.1L247.988,634.4l25.648-19.887.378-39.228c.148-12.647.2-25.3.416-37.944ZM163.924,538.22c-.568.355-1.138.7-1.706,1.094l-3.405,2.308-6.777,4.78-13.466,9.8-13.424,9.9c-4.439,3.375-8.921,6.669-13.241,10.3.26,26.005.368,51.633.376,77.176l.406-.262c.561-.37,1.123-.74,1.684-1.143l3.366-2.408,6.71-4.917L137.79,634.8l13.245-10.267c4.194-3.331,8.448-6.666,12.46-10.2l.38-38.689c.149-12.549.2-25.1.419-37.649ZM359.25,556.182l-13.131,10.33-6.572,5.16-3.283,2.583a7.328,7.328,0,0,0-2.534,2.8,9.927,9.927,0,0,0-.546,4.2l.015,4.982-.024,9.959-.058,19.919-.064,19.92-.031,9.96-.016,4.982.073,2.489a14.1,14.1,0,0,0,1.655-1.112l3.32-2.527,6.637-5.056,13.275-10.113,13.276-10.106,6.639-5.049,3.333-2.495a8.015,8.015,0,0,0,2.682-2.562,4.6,4.6,0,0,0,.377-1.8l.04-2.456.073-4.993.147-9.98.3-19.964.4-19.963.2-9.98a97.455,97.455,0,0,0,0-9.967Zm84.177,59.734-.161,37.448.072-.037a9.317,9.317,0,0,0,1.54-1.054l3.314-2.522,6.628-5.042,13.251-10.083,13.251-10.087,6.626-5.037,3.329-2.492c1.12-.871,2.3-1.547,2.721-2.51a4.441,4.441,0,0,0,.39-1.786l.043-2.437.074-4.981.154-9.959.3-19.927.408-19.925.209-9.963.126-4.979.055-2.49-.13-2.483c-8.906,6.629-17.507,13.859-26.269,20.821l-25.828,20.378C443.583,589.819,443.464,602.867,443.428,615.916ZM180.974,545.431l13.678,10.8L208.4,566.877l6.879,5.328a22.876,22.876,0,0,1,3.347,2.837,7.49,7.49,0,0,1,1.27,4.778l.491,38.057.344,19.024.123,6.153c.35-22.493.785-44.886,1.32-66.965l26.2-21.019,17.886-14.117-4.49,3.183-12.914,9.212-25.729,18.646,25.557-19.032,12.733-9.633,6.357-4.835c1.847-1.477,3.856-2.772,5.576-4.4a53.977,53.977,0,0,0-5.91-4.481l-6.762-4.766-13.518-9.531L233.7,505.627l-6.728-4.843-3.36-2.423c-1.166-.856-2.123-1.565-2.958-1.516a2.515,2.515,0,0,0-1.3.473l-1.621,1.178-3.356,2.435L207.66,505.8l-13.432,9.733-13.481,9.629L174,529.947c-1.925,1.416-3.962,2.682-5.751,4.261,4.268,3.318,8.618,6.514,12.92,9.79L194.983,554.4l13.886,10.254,6.944,5.124c1.165.827,2.292,1.771,3.494,2.5a3.2,3.2,0,0,0,3.811-.289,3.227,3.227,0,0,1-3.832.347c-1.218-.724-2.344-1.64-3.523-2.451l-6.989-5.022L194.8,554.824l-14.046-9.883q-1.8-1.278-3.608-2.54ZM386.1,595.225l.025,9.983.012,4.99v2.535a7.613,7.613,0,0,1-.6,2.968,7.269,7.269,0,0,1-2.35,2.772,5.681,5.681,0,0,1,3.2-.989,5.372,5.372,0,0,1,2.148.579,6.388,6.388,0,0,1-1.635-2.282,14.183,14.183,0,0,1-.718-5.61l-.019-4.967-.037-9.936-.079-19.677Zm110.128.119.015,9.964.013,4.982,0,2.543a7.567,7.567,0,0,1-.623,2.964,6.282,6.282,0,0,1-1.666,2.113l-.538.425c.2-.141.4-.287.642-.445a4.5,4.5,0,0,1,2.39-.765,4.2,4.2,0,0,1,1.472.3,7,7,0,0,1-.833-1.41,13.3,13.3,0,0,1-.807-5.634l-.019-4.982-.034-9.971-.026-7.329ZM165.961,615.2l-.006.84-.514.453q-.853.746-1.707,1.471a4.662,4.662,0,0,1,2.3-.526,4.985,4.985,0,0,1,1.782.424,7.006,7.006,0,0,1-1.361-1.924,7.16,7.16,0,0,1-.488-1.478Zm-108.953,2.21a6.469,6.469,0,0,1-.762-1.351,8.256,8.256,0,0,1-.547-1.86l-.007,1.286,0,.908-.605.457-.7.536a3.71,3.71,0,0,1,1.243-.225h.016A3.942,3.942,0,0,1,57.008,617.415Zm219.09-1.972-.007.9-.6.458-.543.415a3.422,3.422,0,0,1,1.233-.223,3.513,3.513,0,0,1,1.03.16,5.7,5.7,0,0,1-.589-1.012,8.139,8.139,0,0,1-.523-1.715ZM166.238,535.4c0-.02.008-.042.013-.061l.109-.589-.123-.09ZM387.2,534.83c.175.075.345.154.512.239l-.457-.474-.672-.7-.024.657ZM384.388,534.427ZM494.751,534.413Zm-328.676-1.669L166,534.27l.671-.694a58.826,58.826,0,0,1,6.556-5.367l6.636-5.049,13.295-10.043,13.346-9.941,6.67-4.97,3.338-2.482c.583-.43,1.05-.8,1.737-1.263a4.453,4.453,0,0,1,2.387-.783c1.789.008,3.109,1.241,4.149,1.974l3.341,2.475,6.686,4.947,4.52,3.349L223.28,493.694a6.971,6.971,0,0,1-1.871-4.675c-.077-1.739-.013-3.266-.025-4.911l.031-9.688.034-19.379-.141-37.725-.046,4.383-.1,9.773-.205,19.542c-.252,13.083-.4,25.943-.75,39.206a5.335,5.335,0,0,1-.985,2.543,7.459,7.459,0,0,1-1.657,1.532l-3.27,2.423-6.542,4.854-13.07,9.737-26.027,19.716,25.846-20.11,12.867-10.178,6.428-5.1,3.216-2.552a4.21,4.21,0,0,0,2.012-3.115L218.856,451l.031-19.549.018-9.77.007-4.89,0-2.407-1.8,1.213-3.31,2.5-6.619,5.014-13.242,10.019-13.291,9.915L174,447.977l-3.329,2.468a7.946,7.946,0,0,0-2.767,2.714,10.091,10.091,0,0,0-.6,4.381l-.089,4.97-.177,9.939-.356,19.88c-.092,13.246-.411,26.493-.308,39.73a11.817,11.817,0,0,0,2.277-1.034,12.433,12.433,0,0,1-2.286,1.079l-.018.009v-.029q-.03-1.758-.052-3.515C166.239,529.954,166.143,531.355,166.076,532.744Zm109.02,1.23.051-.04-.205-.125Zm111.535-1.344-.042,1.166.729-.613c4.336-3.654,8.805-6.808,13.2-10.235l13.268-10.036,13.305-9.931,6.655-4.967,3.329-2.482a6.712,6.712,0,0,1,4.256-1.679,7.622,7.622,0,0,1,4.153,1.835l3.336,2.466,4.253,3.148c-3.15-2.494-6.3-5.027-9.475-7.651a7.721,7.721,0,0,1-1.779-4.7c-.1-1.73-.022-3.27-.037-4.9l.031-9.661.03-19.328-.122-32.8-.294,29.717c-.151,13.294-.219,26.592-.461,39.886l-.012.708-.452.339-27.012,20.13-26.579,19.621,52.154-41.5c-.046-13.069.073-26.14.112-39.213l.162-37.666-.141.059a13.092,13.092,0,0,0-1.51,1.086l-3.329,2.535-6.648,5.066-13.307,10.135-13.3,10.134-6.655,5.062-3.339,2.5c-1.12.879-2.331,1.565-2.715,2.5a4.468,4.468,0,0,0-.334,1.8l-.034,2.5-.073,5.006-.148,10-.3,20.008-.4,20-.206,10-.122,5-.065,2.5c.046.816.124,1.632.2,2.479-.065-.615-.156-1.244-.228-1.886Q386.664,531.7,386.631,532.63Zm-54.726-78.29.356,19.558.19,9.776.094,4.887a5.52,5.52,0,0,0,1.274,3.792,23.814,23.814,0,0,0,3.1,2.471l3.28,2.413,6.562,4.818,13.119,9.645c8.112,6.062,16.2,12.207,24.331,18.194.109-12.3-.064-24.774-.064-37.143l.021-19.928.037-9.967.015-4.979a13.23,13.23,0,0,0-.392-4.516,6.5,6.5,0,0,0-2.565-2.924l-3.28-2.59-6.559-5.184L358.3,432.3l-13.2-10.206-6.6-5.11c-2.2-1.687-4.361-3.457-6.661-4.9-.127.981-.389,1.935-.428,2.936v.626Zm110.289.713.35,19.323.19,9.66c.12,3.184-.255,6.677,1.629,8.457,8.352,6.422,17.2,12.745,25.773,19.119l12.9,9.693,6.443,4.851c1.676,1.26,3.349,2.555,5.034,3.7.016-.115.03-.227.04-.333.055-.473,0-1.48,0-2.264l-.019-4.99-.039-9.979-.077-19.96.007-19.958.033-9.976.016-4.994c-.01-1.7.113-3.294-.405-4.449-.451-1.194-1.6-1.875-2.709-2.786l-3.282-2.6-6.572-5.2L468.36,431.974l-13.2-10.254-6.606-5.121a60.435,60.435,0,0,0-6.68-4.841l-.061,1.656-.065,6.513Zm-220.4-.016.353,19.374.19,9.689c.151,3.18-.332,6.769,1.654,8.376l25.891,19.168,12.923,9.732,6.459,4.871c1.592,1.226,3.186,2.431,4.794,3.5l.065-2.479-.019-4.979-.033-9.963-.072-19.92.019-19.919.034-9.963.019-4.979a10.375,10.375,0,0,0-.592-4.376,7.473,7.473,0,0,0-2.63-2.929l-3.279-2.59-6.56-5.185L247.9,432.1l-26.358-20.376-.215,4.178-.01.909v.1Zm-.267-43.38,26.579,19.971,13.35,9.849,6.679,4.922,3.335,2.458a8.751,8.751,0,0,1,3.165,3.414,12.361,12.361,0,0,1,.9,5.265l.1,4.978.2,9.956.335,19.915.249,19.915.087,6.863.058-26.746-.187-39.962v-.487l.337-.266c8.707-6.884,17.356-13.9,26.11-20.676l10.363-8.076-8.933,6.368-25.6,18.548,25.429-18.933,12.668-9.573,6.323-4.812,3.163-2.4,2.229-1.929-26.185-18.5-13.454-9.666-6.722-4.839-3.363-2.416c-1.147-.84-2.153-1.587-3.007-1.615-.846-.1-1.675.617-2.88,1.5l-3.354,2.43-6.713,4.867-13.423,9.734L235.9,401.35l-6.747,4.782c-1.963,1.431-4.018,2.75-5.863,4.314a54.383,54.383,0,0,0,5.984,4.862l6.97,5.273,13.939,10.545,14.012,10.381L271.2,446.7c1.178.817,2.286,1.891,3.612,2.244a4.464,4.464,0,0,0,3.844-1.073A4.516,4.516,0,0,1,274.8,449c-1.344-.338-2.464-1.4-3.652-2.2l-7.05-5.085-14.107-10.17-14.172-10-7.09-5.006a44.405,44.405,0,0,1-6.959-5.471l-.512-.539-.252.143.1,1.03c.08.883.23,1.841.239,2.67l-.016,1.429.175-4.12v-.048Zm110.314.383c2.323,1.408,4.508,3.151,6.726,4.81l6.643,5.007,13.288,10,13.358,9.848,6.68,4.922,3.338,2.463a7.754,7.754,0,0,1,3.133,3.506,15,15,0,0,1,.648,5.26l.1,4.986.2,9.959.343,19.723-.052-19.874-.021-10.007-.013-5-.01-2.5a7.536,7.536,0,0,1,.549-3.021,5.854,5.854,0,0,1,1.682-2.161l1.672-1.325,3.3-2.6,6.621-5.133,13.245-10.258,9.8-7.594-8.663,6.181L388.665,447.9l25.573-19.052,12.736-9.642,6.361-4.838,3.182-2.415,2.233-1.949-26.174-18.484-13.448-9.666-6.723-4.835-3.359-2.415a5.594,5.594,0,0,0-3.01-1.436,5.024,5.024,0,0,0-2.948,1.385l-3.356,2.432-6.707,4.866-13.42,9.725c-8.62,6.359-17.523,12.25-26.027,18.733a61.577,61.577,0,0,0,5.918,4.771l6.943,5.253,13.887,10.5,13.957,10.342,6.981,5.172a19.409,19.409,0,0,0,3.559,2.364,3.893,3.893,0,0,0,3.844-.811,3.931,3.931,0,0,1-3.854.871,19.157,19.157,0,0,1-3.6-2.32l-7.026-5.065-14.049-10.127-14.12-9.972-7.059-4.981a50.5,50.5,0,0,1-6.947-5.408l-.734-.741.771-.675q.935-.825,1.883-1.6l-.365.233-.9.557-1.1.526-.287.138-.07,1.86-1-.68-.323.262-.108.087h0a1.466,1.466,0,0,1,.476.2l.039.008.064.051.543.454.519.43v.8q0,1.077,0,2.151c.037-.987.291-1.934.4-2.9l0-.027ZM330,413.857h0l.012-.008ZM329.287,410.8ZM439.572,410.586Zm.607-.023-.017.014.014-.006.066-.031-.019-.012ZM268.216,293.3l-6.541,5.232-13.086,10.461L235.451,319.34l-6.565,5.169-3.286,2.583a7.482,7.482,0,0,0-2.605,2.686,11.011,11.011,0,0,0-.4,4.24l.012,4.986-.028,9.968L222.5,368.9l-.068,19.936L222.4,398.8c0,2.5-.054,5.051.034,7.5,1.674-1.107,3.343-2.459,5.012-3.713l6.628-5.047,13.248-10.086,13.251-10.091,6.628-5.042,3.325-2.491a7.451,7.451,0,0,0,2.651-2.582c.516-1.014.458-2.51.485-4.238l.077-4.982.15-9.964.3-19.931.411-19.923.206-9.964c.07-3.343.242-6.605.046-9.952A62.943,62.943,0,0,0,268.216,293.3Zm200.8,15.621-13.135,10.334-6.565,5.156-3.286,2.583A7.263,7.263,0,0,0,443.5,329.8a9.994,9.994,0,0,0-.541,4.2l.013,4.98-.021,9.959-.064,19.919-.061,19.92-.031,9.96-.019,4.978.081,2.48a15.368,15.368,0,0,0,1.656-1.119l3.32-2.526,6.637-5.054,13.272-10.107,13.273-10.107,6.639-5.05,3.332-2.5c1.135-.863,2.24-1.56,2.678-2.559a4.536,4.536,0,0,0,.374-1.8l.04-2.458.073-4.99.151-9.979.3-19.96.405-19.963.205-9.98a92.055,92.055,0,0,0-.018-9.96C486.425,294.932,477.745,301.983,469.014,308.919ZM359.009,308.9l-27.058,19.916c.252,26.077.368,51.74.377,77.308l.4-.26,1.679-1.142,3.359-2.412,6.7-4.906,13.315-10.04,13.218-10.243c4.179-3.322,8.465-6.649,12.424-10.18l.376-39.128c.148-12.585.2-25.174.41-37.763Zm-25.466,13.486,3.357-2.432,6.707-4.857,13.411-9.717,13.457-9.618,6.741-4.782,3.368-2.387c.814-.61,1.585-1.275,2.361-1.934-1.929-1.673-3.957-3.213-6-4.728l-6.982-5.284L356,266.085l-14.033-10.4-7.02-5.2c-1.172-.835-2.3-1.882-3.64-2.18a4.7,4.7,0,0,0-3.851,1.127l-25.287,18.841-12.6,9.534-6.289,4.782-3.145,2.4-2.2,1.969,26.182,18.492,13.441,9.657,6.716,4.835,3.356,2.415c1.178.871,2.071,1.517,2.983,1.512C331.527,323.884,332.383,323.272,333.543,322.388Zm57.273-33.743,3.384,2.379,6.762,4.758,13.531,9.523,13.465,9.661,6.732,4.839,3.365,2.423c1.166.852,2.127,1.569,2.968,1.544a2.5,2.5,0,0,0,1.307-.454l1.608-1.174,3.356-2.435,6.723-4.867,13.435-9.741,13.481-9.641,6.753-4.791c1.925-1.38,3.906-2.694,5.708-4.225L466.4,266.016l-14.034-10.384-7.016-5.2a14.231,14.231,0,0,0-3.608-2.279,4.286,4.286,0,0,0-3.854,1L412.633,267.97l-12.578,9.513-6.281,4.776-3.142,2.388-2.3,1.944C389.151,287.3,389.951,288.016,390.816,288.646ZM383.793,287.411ZM494.313,287.141ZM385.1,204.555c.893,2.156.629,4.094.687,5.647l.019,4.98.04,9.969.025,6.942-.019-6.684-.028-9.98-.015-4.985a12.638,12.638,0,0,1,.843-5.46,8.3,8.3,0,0,1,2.034-2.737,5.718,5.718,0,0,1-3.092,1.094,4.4,4.4,0,0,1-1.37-.185A5.51,5.51,0,0,1,385.1,204.555Zm110.106.235a14.1,14.1,0,0,1,.737,5.619l.017,4.985.03,7.972-.017-7.976-.015-4.986a13.1,13.1,0,0,1,.78-5.451,7.842,7.842,0,0,1,2-2.721l-.38.278a4.348,4.348,0,0,1-2.387.931,4.084,4.084,0,0,1-1.866-.429A6.448,6.448,0,0,1,495.206,204.79Zm-159.939-39.6,3.384,2.387,6.772,4.775,13.542,9.554,13.481,9.69,6.735,4.853,3.369,2.432a4.989,4.989,0,0,0,3,1.321,5.478,5.478,0,0,0,2.986-1.5l3.362-2.443,6.729-4.879,13.457-9.753c8.575-6.368,17.468-12.2,25.93-18.7-9.008-7-18.134-13.783-27.2-20.668l-14.187-10.5-7.09-5.252a7.383,7.383,0,0,0-3.768-1.846,5.909,5.909,0,0,0-3.862,1.433l-24.972,18.63-12.441,9.414-11.651,8.93A18.323,18.323,0,0,0,335.267,165.185Zm-109.943-.136,3.382,2.376,6.762,4.764L249,181.706l13.459,9.67,6.729,4.835,3.362,2.418c1.172.86,2.123,1.569,2.963,1.536a2.471,2.471,0,0,0,1.3-.458l1.611-1.173,3.359-2.431,6.719-4.871,13.435-9.737,13.481-9.625,6.753-4.791c1.932-1.382,3.918-2.7,5.723-4.237l-12.908-9.793-13.834-10.43-13.905-10.277L280.3,127.2c-1.17-.819-2.292-1.782-3.5-2.487a3.281,3.281,0,0,0-3.819.4l-25.565,19.024-12.729,9.626-6.357,4.831c-1.853,1.443-3.794,2.777-5.516,4.38C223.636,163.686,224.444,164.416,225.324,165.049Zm216.412-1.038q.738.443,1.458.917c-.477-.529-.859-1.062-1.278-1.526l-.321-.357-.259.179-.005.548Zm-110.343.1.927.306.016.007c-.282-.287-.564-.57-.851-.834l-.712-.657.761-.546.581-.414c-.292.135-.586.262-.878.378l-.56.222.133,1.345Zm111.18-42.558-.16,37.324,1.531-1.034,3.323-2.515,6.643-5.045,13.285-10.1,13.285-10.1,6.645-5.042,3.333-2.49A6.839,6.839,0,0,0,493,119.835a10.589,10.589,0,0,0,.6-4.25l.074-4.993.147-9.984.3-19.963c.23-13.307.622-26.621.724-39.923L442.679,82.236C442.727,95.338,442.608,108.444,442.572,121.55ZM382.431,42.341,356.692,62.373,343.88,72.507l-6.4,5.085-3.2,2.548a4.577,4.577,0,0,0-2.191,2.988c-.165,1.269-.033,3.128-.064,4.679l.028,4.867.052,9.729.1,19.462-.034,19.463-.017,9.732-.007,4.867c.019.809-.01,1.7-.01,2.545l.164-.106,1.684-1.1,3.384-2.308,6.735-4.786,13.377-9.849,13.32-9.986c4.32-3.3,8.664-6.6,12.83-10.138l.735-39.264.463-39.7A14.515,14.515,0,0,0,382.431,42.341Zm31.457,15.742,13.307,9.964,6.639,5.01,3.324,2.507c1.126.835,2.153,1.746,3.2,1.83,1.049.155,2.047-.692,3.206-1.512l3.371-2.387,6.741-4.782,13.485-9.558,13.42-9.7,6.7-4.863a73.957,73.957,0,0,0,6.584-5.05L491.5,37.36,465.234,18.431,452.047,9.088l-6.6-4.656c-2.212-1.361-4.4-3.9-6.443-2.6-8.536,6.343-17.256,13.081-25.874,19.6L400.1,31.141l-6.517,4.85c-1.586,1.187-3.208,2.343-4.707,3.6ZM468.329,762.5l-.2-.148-13.352-9.992-6.664-5.028-3.329-2.516c-1.144-.839-2.152-1.779-3.166-1.739a2.72,2.72,0,0,0-1.525.564l-1.688,1.2-3.38,2.4-6.759,4.8-13.524,9.593-1.2.872h-.828l1.82-1.362,13.294-10.111,6.649-5.057,3.323-2.53,1.663-1.265a3.881,3.881,0,0,1,2.129-.86c1.633-.055,2.835,1.138,3.921,1.841l3.384,2.384,6.778,4.763,13.518,9.6,3.614,2.6Zm-59.743,0,4.737-3.545,27.059-19.92-26.2,21.025L411.1,762.5Zm-50.716,0-13.159-9.88-6.636-5.014-3.32-2.511a6.156,6.156,0,0,0-3.252-1.544,5.283,5.283,0,0,0-3.292,1.313l-3.369,2.4-6.738,4.787-13.472,9.577-1.206.875h-.766l1.773-1.329,13.241-10.1,6.622-5.042,3.314-2.521a6.342,6.342,0,0,1,3.921-1.676,7.141,7.141,0,0,1,3.936,1.643l3.375,2.376,6.746,4.759,13.476,9.558c1.077.784,2.157,1.552,3.234,2.328Zm-110.188,0-.028-.02L234.326,752.5l-6.649-5.023-3.322-2.51c-1.135-.863-2.136-1.7-3.191-1.711-1.044-.075-2.065.848-3.222,1.644l-10.132,7.177L194.3,761.653l-1.175.851h-.816l1.779-1.329,13.279-10.091,6.639-5.047,3.316-2.521c1.065-.754,2.229-1.982,3.832-2.007,1.572-.024,2.836,1.067,3.912,1.8l3.382,2.38,6.762,4.763,13.5,9.59,3.419,2.459Zm-110.434,0L124.2,752.712l-6.631-5.018-3.316-2.511a5.891,5.891,0,0,0-3.225-1.6,5.358,5.358,0,0,0-3.277,1.4l-10.106,7.17L84.178,761.72l-1.08.784h-.8l1.675-1.249,13.245-10.08,6.619-5.042,3.313-2.518a6.5,6.5,0,0,1,3.9-1.759,6.857,6.857,0,0,1,3.924,1.695l3.375,2.38,6.743,4.755,13.47,9.575c1.034.752,2.077,1.492,3.11,2.244ZM546.256,326.638l-3.277-2.591-6.55-5.172-13.1-10.346-13.171-10.2-6.587-5.092c-1.019-.76-2.02-1.569-3.026-2.351,7.723,5.583,15.3,11.511,22.99,17.194l20,14.746,3.332,2.459c.071.051.154.108.224.163v1.846C546.821,327.079,546.539,326.865,546.256,326.638Zm.736-1.417-3.344-2.471-6.686-4.953-13.374-9.909-13.306-10.06-6.655-5.029L500.3,290.28a13.888,13.888,0,0,1-1.7-1.393l-1.488-1.587-.607-.644.633-.574a70.813,70.813,0,0,1,6.412-4.83l6.47-4.593,12.929-9.218,24.136-17.5v.031l-23.968,17.854-12.741,9.643-6.367,4.843c-1.871,1.448-3.789,2.845-5.553,4.444l.877.876a12.275,12.275,0,0,0,1.583,1.213l3.384,2.386L511.074,296l13.535,9.541,13.465,9.7,6.735,4.851,2.283,1.643V325.3ZM386.42,285.295ZM535.273,152.762l-13.923-10.5-20.995-15.51a15.005,15.005,0,0,0-3.6-2.288,4.182,4.182,0,0,0-3.844.943,4.215,4.215,0,0,1,3.856-1.007,14.952,14.952,0,0,1,3.631,2.248l7.044,5.061,14.089,10.126,3.652,2.572-1.573-1.218-25.529-20.254a6.954,6.954,0,0,1-1.881-4.668c-.076-1.739-.012-3.261-.024-4.9l.031-9.68.03-19.359-.147-38.717.187-4.425,0-.041.028.02c.852.566,1.716,1.106,2.566,1.679q-1.309-.962-2.615-1.93l-1.632-1.21,1.549-1.465a62.7,62.7,0,0,1,6.52-5.081l6.556-4.751,13.114-9.5c8.259-5.818,16.35-11.667,24.722-17.46V3.315c-7.841,5.853-15.8,11.976-23.692,17.946l-13.027,9.7-6.514,4.851c-1.583,1.185-3.206,2.339-4.706,3.6l25.02,18.48,13.309,9.967,6.643,5.017,2.967,2.236v2.153c-.116-.084-.242-.175-.356-.25l-3.378-2.377L536.6,69.888,523.12,60.327c-7.276-5.266-14.573-10.423-21.84-15.722l1.766,1.33,6.637,4.994L522.959,60.9l13.347,9.823,6.673,4.919,3.335,2.454c.252.177.515.371.776.578v2a12.512,12.512,0,0,0-1.4-1.2l-3.276-2.583-6.557-5.173L522.748,61.374l-13.177-10.2-6.593-5.092-3.3-2.551c-1.105-.809-2.244-1.533-3.366-2.3l-.224,4.381.5,38.709.354,19.358.193,9.678c.144,3.179-.326,6.752,1.665,8.363l25.861,19.152,12.911,9.725,6.449,4.862c1.024.785,2.044,1.565,3.067,2.3v3.96C543.167,158.707,539.212,155.755,535.273,152.762Z" transform="translate(642.936 611.505) rotate(180)" fill="#212429" stroke="rgba(0,0,0,0)" stroke-miterlimit="10" stroke-width="1"/>
    <path id="Union_17" data-name="Union 17" d="M558.467,766.672l-.116-6.53-.023-1.7L558.3,760l-.148,6.672h-1.27l-.054-7.178-.1-46.324c-10.545,8.085-21.179,15.987-31.768,23.97L492.1,761.827l-.051,4.845h-3.094l.027-5.99.006-1.111.761-.563,33.76-24.945q7.915-5.825,15.812-11.687l-15.1,10.442L491.3,755.96,524,732.339l16.284-11.956,8.131-6,4.067-3,2.03-1.5a11.2,11.2,0,0,0,.883-.942L522.267,686.22l-16.939-11.852-8.471-5.922-4.234-2.964a7.113,7.113,0,0,0-3.8-1.715,6.428,6.428,0,0,0-3.732,1.61l-4.232,2.974-8.46,5.952-16.918,11.9c-10.909,7.784-22.173,15.04-32.918,22.979a7.926,7.926,0,0,0,.952,1.03l2.134,1.57,4.34,3.178,8.679,6.354,17.361,12.693,17.444,12.5,8.726,6.254,4.361,3.125a3.7,3.7,0,0,0,4.747.068,3.725,3.725,0,0,1-4.775,0l-4.393-3.059-8.779-6.123-17.564-12.247-4.689-3.206,2.625,1.972c10.837,8.37,21.578,16.4,32.492,25.046a8.587,8.587,0,0,1,2.1,5.945l0,2.388h-1.288c-.011-2.785-.128-5.436-1.764-6.873-10.713-7.894-21.93-15.762-32.872-23.647l-16.425-12.006-8.209-6c-2.036-1.5-4.075-3.032-6.119-4.333-.087,3.025-.092,6.1-.073,9.2l.045,12.228.095,24.455-.005,6.978h-4.891l.021-6.889.084-24.466.04-12.234.018-6.116-.1-2.924-2.064,1.345-4.2,3.1-8.39,6.185-33.568,24.745-8.4,6.181-4.212,3.052a8.77,8.77,0,0,0-3.236,3.331,11.2,11.2,0,0,0-.767,4.693h-2.309a14.625,14.625,0,0,1,.988-6.21,11.506,11.506,0,0,1,4.051-4.544l4.158-3.172,8.353-6.271L384,733.949l11.545-8.654-10.07,6.976-31.96,22.476L385.259,731.8l15.817-11.6c4.961-3.759,10.1-7.256,14.939-11.2a8.108,8.108,0,0,0-1.029-1.236l-2.071-1.422-4.274-2.921-8.558-5.84-17.115-11.682-17.034-11.854-8.512-5.938-4.256-2.968-2.082-1.443a3.024,3.024,0,0,0-1.628-.57,2.782,2.782,0,0,0-1.558.618l-2.1,1.511-4.248,2.989-8.5,5.972-17,11.95L299.006,698l-8.541,5.878-4.272,2.937-2.134,1.47a6.633,6.633,0,0,0-.935.819c2.47,2.092,5.076,4.01,7.7,5.9l8.839,6.493,17.684,12.977,17.775,12.779L344,753.641c1.478,1.045,2.935,2.268,4.64,2.567a6.341,6.341,0,0,0,4.871-1.46,6.381,6.381,0,0,1-4.879,1.534c-1.723-.278-3.209-1.491-4.691-2.509L335,747.515,317.107,735,305.863,727.3l8.18,6.136,32.442,24.915a8.124,8.124,0,0,1,2.284,5.829c.016.86.014,1.678.014,2.5h-1.294c-.014-2.805-.151-5.464-1.9-6.814l-32.875-23.573-16.4-11.97-8.2-5.99c-2-1.456-4-2.977-6.017-4.291-.119,15.185.071,30.547.076,45.806l-.005,6.832H277.23c.008-2.3.024-4.6.029-6.906l.2-45.78L246.21,737.055l-16.823,12.4-8.417,6.2-4.22,3.056a9.13,9.13,0,0,0-3.308,3.273,10.821,10.821,0,0,0-.751,4.693h-2.309a14.123,14.123,0,0,1,.994-6.248,11.726,11.726,0,0,1,4.113-4.451l4.164-3.18,8.371-6.281,16.74-12.547,11.738-8.809-10.453,7.233L213.7,755.12l32.132-23.2,16.005-11.739,7.993-5.9,4-2.944,2.831-2.372c-10.953-7.727-22.061-15.158-33.089-22.741l-17-11.861-8.5-5.935-4.25-2.968a7.243,7.243,0,0,0-3.81-1.765c-1.194-.038-2.3.652-3.718,1.708l-4.245,2.981-8.487,5.963-16.975,11.929c-10.9,7.8-22.149,15.027-32.929,22.966l1.013,1.028a18.621,18.621,0,0,0,2.077,1.64l4.412,3.236,8.826,6.472,17.65,12.938L195.37,747.3l8.87,6.37c1.483,1.026,2.906,2.289,4.586,2.72a5.754,5.754,0,0,0,4.874-1.271,5.779,5.779,0,0,1-4.885,1.342c-1.7-.411-3.144-1.661-4.637-2.663l-8.927-6.241-17.858-12.48-5.714-3.91,2.9,2.175c10.78,8.343,21.5,16.259,32.327,24.955a9.4,9.4,0,0,1,2.446,5.647c.084.947.1,1.844.1,2.726h-1.3c-.018-.852-.045-1.694-.138-2.472a7.329,7.329,0,0,0-2.063-4.462c-10.61-7.933-21.817-15.7-32.7-23.556l-30.492-22.2c-.171,6.978.018,14.126-.025,21.165l.086,24.473-.005,7.049H137.9l.027-6.737.089-24.435.049-12.218c.025-3.089.06-6.187-.081-9.188-2.128,1.361-4.245,2.951-6.357,4.53l-8.379,6.183-16.761,12.368L89.727,749.538l-8.382,6.177-4.207,3.052c-1.462,1.063-2.755,1.861-3.336,3.165-.594,1.165-.588,2.829-.61,4.74H70.887a14.5,14.5,0,0,1,.829-6.254c1.055-2.344,2.881-3.362,4.147-4.381l4.153-3.168,8.34-6.265,16.683-12.52,12.388-9.293-11.194,7.744L73.878,755.269l32.141-23.209,16.011-11.742,7.993-5.894c2.379-1.75,4.782-3.473,7.039-5.375-2.222-2.141-4.939-3.682-7.449-5.477l-8.56-5.845-17.115-11.687L86.905,674.169l-8.512-5.943-4.259-2.971c-1.491-1.042-2.69-1.993-3.716-1.9a3.221,3.221,0,0,0-1.644.595l-2.052,1.457-4.254,2.985-8.5,5.969-17,11.94L19.9,698.108l-8.544,5.874c-2.43,1.722-5,3.28-7.257,5.2L20.51,721.249l17.566,12.843,17.648,12.645,8.828,6.326a36.888,36.888,0,0,0,4.472,2.989,4.643,4.643,0,0,0,4.855-.782,4.685,4.685,0,0,1-4.877.852,37.257,37.257,0,0,1-4.509-2.93L55.608,747,37.841,734.611,22.458,724.105l12.937,9.7c10.783,8.333,21.49,16.261,32.335,24.918a8.813,8.813,0,0,1,2.176,5.853c.016.723.014,1.406.014,2.095H68.628c-.034-2.638-.256-5.093-1.863-6.506-10.621-7.884-21.817-15.667-32.7-23.508L17.721,724.737l-8.174-5.963c-2.118-1.512-4.23-3.151-6.352-4.544-.014.119-.043.262-.053.37-.058.571.007,1.851,0,2.8l.024,6.112.049,12.221.1,24.442,0,6.5H.7L.581,760.21.257,735.772.095,723.556l-.081-6.112c.016-1.087-.064-1.855.043-3.308.138-1.246.362-2.191.481-3.091l.144-1.094-.406.293L.319,707.6l.816-49.475,1.091-48.988L35.373,583.35,69,557.617l.756-.578-.005-1.109c-.07-16.344.1-32.683.138-49.027l.219-49.022.005-1.022.638-.55c5.5-4.727,11.055-8.839,16.646-13.083l16.826-12.439,16.947-12.17c2.844-1.993,5.676-4.01,8.56-5.926l4.342-2.848c.718-.479,1.469-.93,2.22-1.374l1.142-.676,1.417-.635,1.429-.645-.032,2.131c-.481,32.612-1.105,65.115-1.907,97.089-.319-31.983-.465-63.456-.474-94.825l-.516.325c-.71.444-1.421.893-2.128,1.388l-4.248,2.941-8.473,6.013-16.845,12.3L88.939,446.441c-5.295,4.079-10.688,8.16-15.716,12.5l-.479,48c-.183,15.445-.254,30.892-.521,46.337L104.1,530.157l34.238-24.425L105.2,531.522l-.828.634.7-.515,16.9-12.211,8.455-6.1,4.226-3.056c1.3-.862,2.976-2.435,5.233-2.449,2.209-.026,3.962,1.41,5.285,2.347L149.139,513q-2.951-2.3-5.914-4.657a9.312,9.312,0,0,1-2.542-5.555c-.235-2.146-.08-4.075-.116-6.054l.043-11.844.043-23.695-.173-47.39.614,47.386.44,23.688.24,11.847c.076,1.963-.016,4.007.238,5.772a7.2,7.2,0,0,0,2.141,4.387c10.626,7.875,21.758,15.645,32.61,23.475l30.455,22.181c.047-.945.088-1.893.105-2.853l-.029-6.122-.045-12.252-.1-24.5.008-24.5.04-12.248.021-6.125a14.582,14.582,0,0,0-.561-5.477c-.584-1.528-1.926-2.4-3.351-3.494l-4.164-3.181-8.323-6.368L174.177,432.7,157.45,420.139l-8.368-6.269a76.885,76.885,0,0,0-8.467-5.914l-.134,5.853.081-5.9v-.051l.038.02a75.221,75.221,0,0,1,8.569,5.813l8.425,6.143L174.455,432.1,191.4,444.2l8.471,6.049,4.237,3.026c1.313.964,3.109,1.949,4.067,4.166.956,2.16.858,4.537.915,6.49l.127,6.122.248,12.245.429,24.493.324,24.489.128,9.591c-.029-11.512.092-23.027.06-34.539l-.133-24.391-.067-12.2-.032-6.1c-.005-1.912-.175-4.36.858-6.465,1-2.105,2.7-3.162,4-4.19l4.137-3.185,8.275-6.367,16.572-12.67,16.635-12.536,8.32-6.272,4.155-3.134c1.413-1.02,2.933-1.9,4.4-2.85l1.065-.688-.1-1.359c-.319-4.286-.17-8.293-.148-12.378l.116-12.22.23-24.445.232-24.445.127-12.221.094-6.111c.063-1.885-.154-4.4.943-6.717s2.911-3.261,4.2-4.252l4.213-3.052,8.42-6.115,16.845-12.208,16.913-12.075,8.455-6.033a78.877,78.877,0,0,1,8.63-5.627c.4,4.014.357,8.17.419,12.214l.1,12.225.189,24.452.056,24.448.027,12.222.014,6.111c-.035,1.888.235,4.374-.84,6.723a8.423,8.423,0,0,1-2.459,3.059,5.974,5.974,0,0,1,3.777-1.191c2.214.2,3.783,1.616,5.136,2.536l4.226,3.03,6.482,4.646c-4.25-3.257-8.507-6.557-12.782-9.97a9.422,9.422,0,0,1-2.455-5.624c-.215-2.133-.073-4.064-.105-6.047l.04-11.855.043-23.711-.181-47.417.619,47.417.443,23.7.24,11.854c.07,1.963-.008,4.007.226,5.79a7.337,7.337,0,0,0,2.071,4.448c10.607,7.877,21.776,15.63,32.638,23.45L402,390.426l8.154,5.947,4.078,2.974,1.988,1.264.093-3.012-.03-6.119-.046-12.245-.092-24.483.014-24.48.043-12.244.022-6.119a12.792,12.792,0,0,0-.727-5.4,9.066,9.066,0,0,0-3.3-3.616l-4.156-3.188-8.313-6.373-16.626-12.751-33.4-25.041-.265,6.335.206-6.4,0-.061.043.03,33.7,24.533L400.309,292.1l8.458,6.057L413,301.179a10.632,10.632,0,0,1,4,4.248,15.222,15.222,0,0,1,1.1,6.469l.127,6.119.248,12.234.421,24.475.014,1.128q.488-25.213,1.109-50.113l33.137-25.8.749-.574-.817.6L436.224,292.14l-8.428,6.084-4.212,3.043c-1.294.927-3.155,2.36-5.315,2.268-2.158-.034-3.919-1.5-5.209-2.421l-4.223-3.025-8.442-6.054-16.878-12.119-33.58-24.66-1.015-.747.969-.786,3.921-3.182,4.045-2.785,8.1-5.572L382.119,231l32.21-22.646a6.129,6.129,0,0,1,4.88-1.457c1.717.347,3.164,1.62,4.655,2.618l8.938,6.248,17.877,12.5,17.966,12.3,8.981,6.146c3.005,2.02,5.995,4.071,8.9,6.449l.78.639,1.279-.979.013,2.712c.073,16.34-.092,32.681-.132,49.02l-.213,49.019-.005,1.02-.627.546q-1.116.962-2.234,1.888a6.4,6.4,0,0,1,3.127-.746c2.1.062,3.875,1.318,5.239,2.326l3.535,2.533-6.087-4.677a8.045,8.045,0,0,1-2.26-5.8c-.051-2.078,0-3.98-.008-5.98l.035-11.847L489,309.119l-.195-47.407.634,47.4.452,23.7.246,11.847c.243,3.848-.5,8.384,1.95,10.289l32.68,23.433,16.3,11.9,8.152,5.956,4.075,2.975,2.036,1.49c.093.06.186.117.278.174.025-.165.045-.321.058-.462a4.112,4.112,0,0,0,.019-.5l-.011-.764-.021-1.529-.021-6.111-.049-12.224-.091-24.442.016-24.445.041-12.221.024-6.112c-.024-2.091.184-4.061-.5-5.412-.616-1.42-2.093-2.281-3.483-3.385l-4.15-3.179-8.3-6.357-16.6-12.71-16.688-12.533-8.347-6.259c-2.8-2-5.454-4.379-8.462-5.875l-.228,5.352.178-5.4,0-.041.032.014c3.049,1.457,5.726,3.8,8.56,5.769l8.407,6.133,16.818,12.254,16.9,12.078,8.449,6.038,4.223,3.021c1.318,1.029,3.038,1.794,4.151,3.959a8.784,8.784,0,0,1,.823,3.4l.073,3.11.128,6.11.218,10.714.106-10.675.092-6.1a16.047,16.047,0,0,1,1-6.36V413.928l-.038,3.623.038,2.825V437.54l-.068-17.132-.373,36.42c-.19,16.309-.276,32.621-.581,48.931l-.019.868-.569.415-34.176,24.7-33.631,24.075L555.549,504.9c-.058-16.034.087-32.068.136-48.105l.2-46.2-.175.071A16.649,16.649,0,0,0,553.8,412l-4.207,3.11-8.415,6.214-16.832,12.431-16.831,12.431-8.421,6.211-4.226,3.069c-1.416,1.077-2.949,1.922-3.437,3.07a5.262,5.262,0,0,0-.416,2.2l-.049,3.066-.091,6.136-.187,12.275-.378,24.544-.508,24.54-.256,12.272-.16,6.136-.078,3.066c.056,1,.154,2,.246,3.046-.081-.757-.2-1.532-.288-2.321q-.027,1.138-.069,2.28l-.054,1.43.924-.754c5.487-4.482,11.141-8.35,16.7-12.557l16.783-12.309,25.26-18.275,4.21-3.046a8.668,8.668,0,0,1,5.385-2.061c.2.007.372.064.562.088v3.884a3.969,3.969,0,0,0-.638-.091,6.391,6.391,0,0,0-3.751,1.578l-4.239,2.985-8.477,5.97-16.961,11.942c-10.918,7.783-22.106,15.111-32.94,22.969l.983,1.059a23.97,23.97,0,0,0,2.076,1.6l4.394,3.223,8.792,6.447L525.8,582.738l17.669,12.686,8.839,6.347c1.493.994,2.883,2.291,4.509,2.9a3.973,3.973,0,0,0,2.158.184v.041a3.975,3.975,0,0,1-2.174-.153c-1.65-.591-3.052-1.867-4.553-2.839l-8.9-6.215-17.788-12.427-17.874-12.234-6.513-4.455,6.311,4.831,17.289,13.212,17.374,13.033,8.687,6.513c1.443,1.1,2.908,2.136,4.329,3.294,1.482,1.2,1.987,3.517,1.928,5.6.04-2.092-.487-4.375-1.964-5.542-1.42-1.127-2.9-2.147-4.353-3.226l-8.749-6.387-17.5-12.774-17.588-12.591-8.8-6.289-4.4-3.148a26.973,26.973,0,0,0-3.339-2.219c-.111,3.54-.023,7.137.064,10.74l.254,12.188.448,24.384.324,24.383.162,12.193.081,6.1c.027,2.125,0,3.888.516,5.039.424,1.172,1.658,1.942,3.132,3.056l4.162,3.125,8.327,6.251,16.657,12.5,16.561,12.689,8.283,6.346c2.5,1.817,4.943,3.983,7.474,5.569.105-.573.21-1.124.273-1.646.1-.791.038-1.837.059-2.8l.019-5.862.041-11.727.038-23.448-.189-46.9.627,46.89.309,16.318.187-18.352c.19-16.286.27-32.568.578-48.847l.016-.873.163-.116V766.672ZM556.3,709.564ZM138.721,708.4l.529.6.6-.343.006-.175-.21.1,0-.213-.692-.313c-.353-.16-.7-.33-1.039-.509Q138.327,707.951,138.721,708.4Zm418.918.578.057-.042v-.018Zm-140.01-.468.333.388.477-.318-.011-.492-.559-.214a11.007,11.007,0,0,1-1.039-.458C417.108,707.806,417.351,708.181,417.629,708.506Zm-136.993.35.525-.513q.166-.164.332-.339a1.273,1.273,0,0,1-.224,0,1.708,1.708,0,0,1-.639-.21l-.011,1.052Zm-139.255-.361.344-.291q1.051-.89,2.115-1.741l-.2.117-1.145.679-1.388.642-.323.148Zm415.662-.549.658.485.005-.463-.644-.341c-.832-.441-1.628-.926-2.4-1.435Zm-278.639.166.4.305.192-.144-.632-.439q-2.267-1.577-4.531-3.159Q276.123,706.385,278.4,708.111Zm1.064-1.022-.023.848.673-.506-.31-.2-.337-.223C279.47,707.033,279.469,707.062,279.468,707.089Zm1.264.746-.1-.066v.021ZM71.958,562.663a25,25,0,0,0-.024,2.9l.124,6.115.252,12.231.445,24.469.324,24.466.162,12.235.081,6.115c.019,2.156.005,3.813.556,5.049.508,1.26,1.6,2.051,3.1,3.144l4.178,3.138,8.355,6.268,16.71,12.538,16.624,12.733,8.309,6.363c2.485,1.8,4.9,3.987,7.446,5.428.193-3.4.219-6.855.2-10.318l.041-11.678.04-23.351-.178-46.7.612,46.7.437,23.342.157,7.708c.444-27.555.985-55,1.677-82.088,5.28-4.813,10.813-9.169,16.324-13.535l16.637-12.927,16.84-12.517,8.5-6.118,4.3-2.978c.713-.5,1.453-.975,2.2-1.446l1.135-.706,1.382-.672.259-.127-.679-.508-.094.074c-5.241,4.167-10.734,7.569-16.1,11.366l-16.154,11.174-32.189,22.612,31.975-23.081,15.93-11.673c4.933-3.742,10.056-7.191,14.846-11.15-1.042-.852-2.071-1.719-3.151-2.515l-4.285-2.928-8.568-5.847-17.142-11.694L156.486,522.4l-8.525-5.945-4.263-2.975c-1.463-1.052-2.647-1.837-3.759-1.79-1.091-.03-2.218.934-3.721,2l-4.256,2.987-8.512,5.983-17.023,11.959L89.349,546.463l-8.558,5.882a78.649,78.649,0,0,0-7.21,5.269L107.8,582.759l17.774,12.775,8.887,6.387c1.487,1.025,2.914,2.306,4.614,2.655a6.1,6.1,0,0,0,4.869-1.416,6.14,6.14,0,0,1-4.88,1.49c-1.72-.33-3.172-1.6-4.663-2.6l-8.946-6.254-17.893-12.51L78.6,563.424q1.025.789,2.053,1.575l8.665,6.635,17.337,13.256,17.426,13.073,8.711,6.537a30.928,30.928,0,0,1,4.254,3.47,8.8,8.8,0,0,1,1.664,5.841c.01-2.1-.413-4.354-1.7-5.787a30.756,30.756,0,0,0-4.272-3.4l-8.77-6.407-17.545-12.816L88.782,572.779l-8.82-6.31c-2.6-1.843-5.18-3.788-7.83-5.416Zm278.831.146c-.063.763.016,1.935.021,2.91l.124,6.109.251,12.221.451,24.435.327,24.436.162,12.218.081,6.111c.04,2.118-.043,3.99.477,5.005a3.877,3.877,0,0,0,1.186,1.433l2.071,1.555,4.172,3.131,8.347,6.261,16.691,12.524,16.6,12.71,8.3,6.36,4.151,3.175a24.414,24.414,0,0,0,3.272,2.314c.2-3.408.221-6.871.209-10.341l.041-11.65.037-23.3-.175-46.592a8.6,8.6,0,0,0-1.753-5.752,32.259,32.259,0,0,0-4.272-3.379l-8.76-6.39-17.518-12.785-17.607-12.6-8.8-6.292c-2.623-1.814-5.21-3.857-7.866-5.453C350.92,561.76,350.832,562.306,350.789,562.81Zm-139.379-.428.051,2.964.124,6.118.246,12.235.438,24.473.316,24.472.16,12.234.078,6.122.04,2.975a5.042,5.042,0,0,0,.413,2.013c.481,1.128,1.766,2.041,3.206,3.1l4.18,3.127,8.366,6.251,16.729,12.509q16.126,12.348,32.335,24.5c.092-1.414.2-2.827.224-4.261l.019-5.836.038-11.675.038-23.348-.184-46.69c.005-2.092-.369-4.354-1.647-5.814a28.931,28.931,0,0,0-4.259-3.4l-8.755-6.4-17.517-12.808-17.6-12.625-8.806-6.3c-2.642-1.868-5.262-3.867-7.947-5.5A8.711,8.711,0,0,0,211.41,562.382ZM280.969,705.1Zm-244.5-120.4L2.226,609.133l.383,49.49.1,46.3c10.542-8.085,21.182-15.973,31.774-23.959l32.861-24.691.483-48.132c.182-15.521.259-31.043.529-46.564Zm278.88-.041-34.239,24.421c.32,32.252.471,63.993.483,95.62l.046-.03,1.037-.658a24.9,24.9,0,0,0,2.069-1.5l4.131-3.162,8.3-6.255,16.6-12.478,32.451-24.4.477-48.123c.187-15.516.257-31.035.527-46.554ZM207.411,562.629c-.718.432-1.439.862-2.161,1.341l-4.31,2.835-8.571,5.858-17.039,12.02L158.344,596.83c-5.616,4.142-11.288,8.182-16.756,12.639.332,31.9.466,63.339.48,94.672l.511-.322c.71-.452,1.42-.9,2.134-1.4l4.256-2.955,8.492-6.027,16.884-12.329L191.1,668.512c5.31-4.088,10.695-8.176,15.767-12.509l.484-47.461c.186-15.4.256-30.795.527-46.19Zm247.144,22.034-16.619,12.676-8.309,6.329-4.158,3.168a9.137,9.137,0,0,0-3.205,3.437,11.822,11.822,0,0,0-.689,5.151l.016,6.112-.027,12.218-.078,24.439-.078,24.438-.038,12.217-.021,6.112.093,3.051a18.239,18.239,0,0,0,2.095-1.366l4.2-3.1,8.4-6.2,16.8-12.4,16.8-12.4,8.4-6.194,4.218-3.063c1.432-1.056,2.832-1.918,3.392-3.141a5.477,5.477,0,0,0,.475-2.211l.054-3.015.092-6.126.186-12.245.378-24.493.51-24.486.259-12.244a115.35,115.35,0,0,0-.008-12.224ZM228.984,571.475l17.3,13.25,17.4,13.063,8.7,6.533a29.367,29.367,0,0,1,4.239,3.482c1.275,1.494,1.629,3.773,1.6,5.864l.621,46.683.437,23.341.154,7.525c.442-27.585.993-55.046,1.669-82.127L314.25,583.3l22.642-17.326-5.688,3.913-16.34,11.3-32.557,22.876,32.34-23.351L330.752,568.9l8.045-5.929c2.337-1.817,4.878-3.407,7.056-5.4a68.439,68.439,0,0,0-7.478-5.5l-8.554-5.847-17.1-11.695-17.023-11.884-8.512-5.942-4.254-2.971c-1.478-1.054-2.684-1.919-3.74-1.862a3.235,3.235,0,0,0-1.645.578l-2.05,1.446-4.247,2.988-8.5,5.969-17,11.943-17.056,11.814-8.541,5.874c-2.434,1.734-5.013,3.288-7.277,5.226,5.4,4.07,10.907,7.99,16.347,12.007l17.486,12.768,17.569,12.577,8.784,6.288c1.477,1.015,2.9,2.171,4.42,3.066a4.144,4.144,0,0,0,4.823-.35,4.175,4.175,0,0,1-4.847.418c-1.539-.879-2.968-2.006-4.456-3.005l-8.841-6.159L246.475,583l-17.769-12.129q-2.3-1.577-4.6-3.136Zm121.773-12.733c3.14,1.892,5.889,4.265,8.808,6.428l8.652,6.619,17.312,13.229,17.4,13.038,8.7,6.52a32.419,32.419,0,0,1,4.251,3.453,8.671,8.671,0,0,1,1.712,5.806l.613,46.585.282,15.112.155-17.359.219-24.436.119-12.214.092-6.11a15.255,15.255,0,0,1,1.131-6.682,11.441,11.441,0,0,1,4.11-4.38l4.207-3.05,8.42-6.1,16.84-12.194c11.31-7.949,22.454-16.255,33.9-23.912a116.913,116.913,0,0,1,.481,12.232l.1,12.247.2,24.5v.045l.025-24.275.04-12.195c0-4.057-.01-8.122.282-12.258l.038-.554-1.46-1.064-.2.186c-2.6,2.434-5.4,4.04-8.121,5.992l-8.207,5.64-16.393,11.328-32.659,22.939,32.446-23.417,16.159-11.852,8.069-5.945c2.336-1.791,4.831-3.4,7-5.379-2.4-1.912-4.934-3.64-7.481-5.349l-8.531-5.823-17.064-11.657-16.977-11.84-8.49-5.925-4.242-2.961c-1.483-1.046-2.666-1.936-3.779-1.946-1.126-.072-2.149.71-3.664,1.789l-4.239,2.978-8.474,5.953-16.954,11.9c-10.893,7.773-22.164,15.005-32.89,22.931l1,1.016a19.6,19.6,0,0,0,2.058,1.609l4.365,3.2,8.719,6.387,17.451,12.757,17.533,12.574,8.768,6.282c1.469,1.025,2.9,2.156,4.4,3.083a4.091,4.091,0,0,0,4.81-.366,4.128,4.128,0,0,1-4.833.438c-1.523-.917-2.958-2.024-4.44-3.023l-8.828-6.155-17.647-12.309-17.736-12.122-8.871-6.055-4.434-3.026a20.936,20.936,0,0,1-2.263-1.661l-2.014-1.918-.9-.86.937-.852c2.695-2.465,5.53-4.346,8.312-6.444l8.374-6.171,16.777-12.285,16.835-12.15,8.42-6.075,4.21-3.039c1.245-.91,3.129-2.435,5.331-2.272,2.192.126,3.837,1.6,5.149,2.51l3.732,2.674-2.451-1.87a30.6,30.6,0,0,1-4.1-3.415,8.838,8.838,0,0,1-1.971-6.051l.021-6,.043-12,.051-24-.167-45.8c-.018,14.113-.294,28.008-.429,42.048-.335,15.769-.484,31.266-.97,47.26a7.517,7.517,0,0,1-3.013,5.178l-4.086,2.951-8.134,5.847-16.245,11.745L354.1,552.727l32.144-24.241,16-12.261,7.991-6.156c2.5-2.2,6.011-3.583,6.248-7.134.073-15.4-.121-31.335-.17-46.979-.049-15.025.152-30.225-.017-45.127l-.445.275a21.751,21.751,0,0,0-2.076,1.484l-4.172,3.077-8.353,6.142-16.7,12.281c-10.982,8.128-22.1,15.98-33.14,23.976l-.925,48.382-.514,41.615.014,1.092-.042,1.177-.062,5.076,4.219-2.678-4.234,2.764-.043.027v-.057l.005-1.879-.064,1.78-.071,2.016,0,1.271.072-.5Zm137.767,73.821.029,12.248.016,6.122v3.107a8.107,8.107,0,0,1-3.729,7.044,7.314,7.314,0,0,1,4.048-1.21,6.92,6.92,0,0,1,2.71.7,7.936,7.936,0,0,1-2.062-2.792c-1.075-2.486-.867-5-.9-6.884l-.027-6.091-.049-12.194-.1-24.111ZM209.987,657.068l-.006,1.036-.653.553q-1.083.919-2.167,1.811a6.126,6.126,0,0,1,2.92-.649,6.432,6.432,0,0,1,2.245.519,8.621,8.621,0,0,1-1.715-2.356,8.322,8.322,0,0,1-.619-1.815ZM72.128,659.785a7.871,7.871,0,0,1-.964-1.657,9.956,9.956,0,0,1-.69-2.269l-.007,1.562-.005,1.11-.764.564-.9.664a4.83,4.83,0,0,1,1.583-.283A5.149,5.149,0,0,1,72.128,659.785Zm277.213-2.424-.006,1.114-.758.564-.68.5a4.461,4.461,0,0,1,2.856-.077,6.933,6.933,0,0,1-.742-1.241,9.7,9.7,0,0,1-.664-2.109Zm-139-98.192c.005-.025.01-.051.016-.077l.138-.724-.158-.112Zm279.583-.7c.22.091.434.19.643.293l-.576-.581-.849-.854-.031.811ZM486.36,557.978Zm-276.23-2.065-.093,1.87.847-.852c2.638-2.658,5.511-4.455,8.3-6.584l8.4-6.191L244.4,531.831l16.886-12.194,8.438-6.1,4.223-3.046c.737-.529,1.329-.977,2.2-1.547a5.745,5.745,0,0,1,3.02-.961c2.267.01,3.934,1.525,5.251,2.424l4.227,3.036,8.454,6.067,5.7,4.092-20.282-15.6a8.4,8.4,0,0,1-2.37-5.739c-.095-2.132-.014-4.007-.03-6.021l.038-11.888.044-23.773-.177-46.5-.058,5.6-.132,11.989-.262,23.973c-.316,16.048-.5,31.827-.945,48.1a6.452,6.452,0,0,1-1.248,3.119,9.205,9.205,0,0,1-2.1,1.879l-4.137,2.977-8.277,5.953-16.537,11.942L213.389,553.8,246.1,529.135l16.281-12.49,8.133-6.26,4.067-3.132a5.167,5.167,0,0,0,2.546-3.819l-.208-47.808.041-23.98.019-11.989.008-5.994.005-2.954-2.277,1.488-4.185,3.073-8.379,6.146-16.753,12.3-16.818,12.163-8.42,6.052-4.209,3.025c-1.437,1.031-2.782,1.881-3.5,3.323-.761,1.417-.732,3.288-.759,5.379l-.113,6.1-.226,12.193L210.9,506.33c-.114,16.247-.52,32.5-.389,48.741a15.147,15.147,0,0,0,2.879-1.268,15.766,15.766,0,0,1-2.89,1.321l-.023.009V555.1q-.039-2.162-.064-4.323C210.34,552.483,210.216,554.206,210.13,555.913Zm137.944,1.5.063-.047-.257-.153Zm71.88-97.69.451,23.99.244,12,.118,5.993a6.63,6.63,0,0,0,1.609,4.652,30.4,30.4,0,0,0,3.927,3.032l4.153,2.958,8.3,5.912,16.6,11.834c10.262,7.436,20.5,14.974,30.784,22.315.141-15.089-.082-30.393-.082-45.562l.03-24.449.043-12.224.021-6.112c.005-2.085.108-4-.5-5.534-.575-1.583-1.8-2.527-3.243-3.591l-4.15-3.18-8.3-6.357-16.606-12.716-16.7-12.527-8.347-6.262c-2.782-2.072-5.516-4.24-8.427-6.013-.158,1.191-.485,2.346-.541,3.552,0,.334,0,.668,0,1Zm-139.317.852.446,23.77.243,11.888c.186,3.894-.419,8.3,2.092,10.275l32.762,23.515,16.348,11.942,8.174,5.973c2.012,1.5,4.03,2.982,6.067,4.3l.082-3.039-.022-6.112-.045-12.217-.086-24.438.018-24.445.047-12.218.021-6.11a12.338,12.338,0,0,0-.748-5.367,9.4,9.4,0,0,0-3.327-3.593l-4.15-3.182-8.3-6.353-16.6-12.716-33.347-25-.277,5.212-.012,1.011Zm-.337-53.216,33.631,24.5,16.894,12.081,8.447,6.042L343.5,453a10.9,10.9,0,0,1,4,4.194,14.713,14.713,0,0,1,1.137,6.451l.125,6.106.246,12.218.424,24.428.316,24.431.11,8.46.071-32.847-.233-49.027,0-.6.427-.326c11.015-8.449,21.96-17.049,33.037-25.369l13.137-9.923-11.327,7.836-32.392,22.75,32.178-23.227,16.027-11.749,8-5.9,4-2.947,2.82-2.369L382.473,382.9l-17.021-11.857-8.512-5.935-4.253-2.968c-1.453-1.025-2.722-1.945-3.805-1.977-1.072-.121-2.119.758-3.64,1.844l-4.248,2.985-8.493,5.969L315.513,382.9l-17.039,11.817-8.536,5.871c-2.481,1.755-5.084,3.372-7.419,5.289a69.213,69.213,0,0,0,7.57,5.967l8.819,6.469,17.642,12.931,17.726,12.734,8.865,6.37c1.494,1,2.9,2.322,4.569,2.754,1.685.489,3.406-.268,4.864-1.317-1.447,1.07-3.168,1.857-4.875,1.392-1.7-.415-3.118-1.719-4.617-2.7l-8.926-6.235L316.31,431.768,298.377,419.49l-8.972-6.133c-2.984-2.074-6.032-3.9-8.8-6.719l-.645-.656-.321.175.118,1.258c.1,1.087.294,2.262.3,3.28l-.022,1.853.224-5.156,0-.055Zm139.579.466c2.938,1.735,5.7,3.866,8.509,5.9l8.407,6.14,16.813,12.272,16.9,12.082,8.452,6.04,4.223,3.022a9.6,9.6,0,0,1,3.965,4.3c.891,2.174.756,4.509.821,6.456l.125,6.108.248,12.221.431,24.1-.064-24.285-.03-12.275-.016-6.133-.005-3.069a8.856,8.856,0,0,1,.692-3.7,7.223,7.223,0,0,1,2.126-2.652l2.117-1.623,4.169-3.185,8.38-6.3L522.9,430.662l12.423-9.333-10.984,7.6-32.569,22.9,32.354-23.376,16.116-11.823,8.048-5.937,4.023-2.971,2.829-2.39-33.117-22.673-17.012-11.855-8.506-5.931-4.25-2.964a7.126,7.126,0,0,0-3.808-1.759c-1.2-.034-2.317.656-3.735,1.694l-4.244,2.989-8.487,5.962L455,382.728c-10.9,7.8-22.168,15.03-32.928,22.98a77.173,77.173,0,0,0,7.487,5.856l8.784,6.445,17.575,12.879,17.658,12.689,8.83,6.346c1.494.988,2.885,2.289,4.507,2.9a5.057,5.057,0,0,0,4.861-1,5.1,5.1,0,0,1-4.877,1.069c-1.65-.6-3.046-1.878-4.55-2.846l-8.887-6.214-17.779-12.424-17.861-12.237-8.935-6.11a62.752,62.752,0,0,1-8.787-6.635l-.932-.906.978-.831q1.184-1.011,2.385-1.968l-.465.29-1.142.679-1.391.652-.361.168-.092,2.281-1.268-.834-.412.322-.13.1a2.061,2.061,0,0,1,.6.244l.049.007.084.068.688.556.651.527.006.977q0,1.3.005,2.593c.055-1.189.367-2.339.508-3.513l0-.03ZM416.644,406.308ZM556.187,406.05Zm.764-.027,0,0,.077-.035-.019-.011ZM339.369,262.164l-8.277,6.421-16.556,12.831-16.621,12.693-8.312,6.34-4.156,3.172c-1.438,1.1-2.741,1.963-3.295,3.29-.616,1.28-.513,3.083-.511,5.212l.01,6.112-.032,12.228-.089,24.452-.091,24.456-.043,12.224c0,3.079-.069,6.2.042,9.2,2.119-1.36,4.23-3.017,6.342-4.556l8.383-6.19,16.766-12.377,16.767-12.38,8.385-6.181,4.209-3.056c1.456-1.062,2.765-1.87,3.351-3.171.651-1.243.581-3.076.616-5.2l.094-6.115.193-12.224.383-24.449.515-24.445.262-12.216c.09-4.106.3-8.1.054-12.211A79.661,79.661,0,0,0,339.369,262.164ZM454.247,281.3,420.014,305.74c.317,31.987.462,63.468.474,94.841l.506-.321,2.125-1.4,4.248-2.954,8.471-6.023,16.848-12.312L469.412,365c5.292-4.079,10.715-8.158,15.724-12.489l.474-47.995c.184-15.444.252-30.889.518-46.334Zm-32.219,16.548,4.246-2.982,8.481-5.958,16.973-11.922,17.025-11.8,8.531-5.864,4.264-2.933c1.027-.744,2-1.561,2.985-2.368-2.442-2.054-5.009-3.941-7.59-5.8l-8.83-6.485-17.671-12.958-17.758-12.76L423.8,209.64c-1.488-1.022-2.911-2.306-4.606-2.672a6.068,6.068,0,0,0-4.869,1.382l-32,23.118-15.938,11.691-7.955,5.871-3.978,2.933-2.789,2.417L384.8,277.067l17,11.847,8.5,5.929,4.248,2.964c1.49,1.07,2.622,1.865,3.772,1.855C419.474,299.689,420.557,298.942,422.028,297.852ZM485.606,254.945ZM558,303.424c-2.257-.061-3.9-1.556-5.222-2.459l-4.232-3.029-8.46-6.061-16.915-12.14L506.338,267.42l-8.418-6.16-4.21-3.078c-1.4-1.05-2.714-2.34-4.069-3.5l-.924-.788.943-.723,3.959-3.042,4.039-2.782,8.082-5.558,16.146-11.172,32.17-22.608L522.1,231.09l-15.916,11.671-7.951,5.86-3.972,2.931-2.908,2.391c1.029.863,2.047,1.742,3.14,2.51l4.28,2.919,8.558,5.837,17.121,11.684,17.037,11.854,8.517,5.94,4.259,2.967c1.478,1.05,2.692,1.928,3.756,1.9a2.709,2.709,0,0,0,.952-.218v3.99a4.792,4.792,0,0,1-.9.1ZM347.119,253.1c-3.135-1.905-5.914-4.262-8.83-6.442l-8.671-6.645-17.35-13.277-17.442-13.087-8.717-6.547a43.96,43.96,0,0,1-4.293-3.409c-1.345-1.423-1.718-3.725-1.682-5.816-.016,2.095.378,4.376,1.72,5.761a44.708,44.708,0,0,0,4.315,3.335l8.779,6.418,17.56,12.832,17.648,12.645,8.824,6.319c2.582,1.8,5.133,3.784,7.751,5.378.082-1.487.186-2.969.159-4.491l-.127-6.116-.251-12.228-.448-24.456-.327-24.454-.165-12.232-.078-6.115c-.027-2.136,0-3.877-.529-5.022a4.375,4.375,0,0,0-1.185-1.531l-2-1.519-4.178-3.131-8.355-6.261-16.711-12.526-16.62-12.713-8.309-6.358c-2.468-1.817-4.885-3.895-7.4-5.472-.171,3.384-.2,6.812-.182,10.24l-.037,11.675-.038,23.342.186,46.68-.621-46.673-.437-23.335-.241-11.667c-.111-3.884-.17-7.773-.019-11.715l.051-1.317,1,.526a35.032,35.032,0,0,1,3.477,2.134c-1.052-.874-2.074-1.84-3.118-2.729l-.861-.729.856-.784a76.167,76.167,0,0,1,8.09-5.967L296.492,90l16.34-11.29,32.559-22.86a4.287,4.287,0,0,1,4.855-.564c1.556.852,2.976,2,4.47,2.994l8.852,6.173L381.276,76.8l35.573,24.342.75.512-.245-1.8a45.418,45.418,0,0,1-.13-6.207l.067-5.97.13-11.942.265-23.881.434-23.882.222-11.943.108-5.969a57.166,57.166,0,0,1,.262-6.17A6.43,6.43,0,0,1,421.143,0h2.677l-.861.663c-1.4,1.008-2.539,2.026-2.78,3.667-.208,1.56-.042,3.838-.078,5.742l.036,5.969.064,11.94.13,23.873-.04,23.875-.022,11.939-.01,5.966c.024,1-.011,2.088-.011,3.124l.208-.129,2.128-1.348,4.283-2.835,8.519-5.875,16.927-12.082,16.853-12.252c5.465-4.048,10.96-8.1,16.233-12.452l.925-48.153L486.344,0h.486l-.005,1.64.227,48.745.005.533-.359.316c-5.36,4.74-10.863,9.066-16.367,13.429C464.817,69,459.286,73.3,453.682,77.445l-10.085,7.4,7.817-5.421L483.22,57.031a7.69,7.69,0,0,1,4.887-1.837,9.551,9.551,0,0,1,4.826,2.214l9.036,6.313,18.069,12.621q5.566,3.831,11.145,7.624l-7.851-5.889c-10.761-8.319-21.473-16.2-32.278-24.886a9.58,9.58,0,0,1-2.516-5.576,59.519,59.519,0,0,1-.125-6.065l.047-11.864.051-23.729L488.488,0h.387l.073,5.953.435,23.729.238,11.86c.075,1.969-.016,4.011.24,5.78A7.5,7.5,0,0,0,492,51.75c10.586,7.923,21.784,15.658,32.648,23.5l16.332,11.891,8.166,5.955,4.08,2.978,1.914,1.21c.1-15.189-.079-30.565-.091-45.831l.01-24.49.043-12.245.021-6.119a13.012,13.012,0,0,0-.721-5.411A8.066,8.066,0,0,0,551.686,0h2.778a8.121,8.121,0,0,1,1.44,2.109,15.491,15.491,0,0,1,1.091,6.469l.124,6.122.249,12.24.006.358c.084-8.307.182-16.613.336-24.918l.016-.873.573-.414.673-.483V102.219l-.049.033-.51.339-.007.671.511.294.055.038v5.776c-.014.275-.042.55-.049.828l-.021,5.841-.043,11.68-.046,23.365.16,44.123v1.879l-.594-46-.294-15.862-.182,17.988c-.187,16.384-.267,32.768-.573,49.149l-.016.872-.575.414-67.81,48.7,66-50.843c-.064-16.11.085-32.219.13-48.324l.2-45.753c-10.46,7.455-20.854,15.334-31.286,22.952l-16.8,12.391-8.407,6.186-4.218,3.06a9.209,9.209,0,0,0-3.251,3.355,11.547,11.547,0,0,0-.829,5.147l-.092,6.124-.181,12.244-.365,24.489c-.283,16.326-.773,32.652-.894,48.972-.394-8.12-.34-16.357-.435-24.492l-.2-23.124-.025,22.727-.041,12.224-.019,6.115a31.061,31.061,0,0,1-.095,3.189l-.391,3.026-.178,1.409-1-.608c-3.135-1.888-5.843-4.289-8.766-6.434l-8.624-6.609-17.259-13.2-17.339-13.016-8.671-6.51c-1.431-1.117-2.925-2.1-4.3-3.327-1.418-1.266-1.988-3.517-1.929-5.613-.04,2.1.551,4.322,1.963,5.556,1.378,1.2,2.887,2.162,4.326,3.256l8.73,6.381,17.461,12.76,17.547,12.577,8.776,6.282c2.6,1.777,5.151,3.838,7.775,5.434l.169-1.617a27.775,27.775,0,0,0,.011-2.914l-.125-6.109-.251-12.224-.45-24.445-.324-24.445-.161-12.224-.081-6.108c-.041-2.1.04-4.041-.454-5.039a3.532,3.532,0,0,0-1.164-1.4l-2.082-1.562-4.178-3.135-8.352-6.257-16.7-12.52-16.617-12.716-8.3-6.353-4.153-3.179-2.077-1.589a7.149,7.149,0,0,0-.883-.642l-.309-.112c-.224,3.437-.171,6.973-.187,10.479l-.043,11.695-.041,23.389.181,46.778-.618-46.771-.359-19.211-.221,20.3c-.33,16.106-.464,31.879-.985,48.258a6.316,6.316,0,0,1-1.364,3.064,10.575,10.575,0,0,1-2.114,1.8l-4.15,2.985-8.3,5.969-16.583,11.976-33.024,24.258,32.8-24.741,16.324-12.524,8.156-6.281,4.075-3.138c1.407-1,2.5-2.061,2.693-3.748.084-15.641-.138-31.953-.175-47.9l.038-24.048.019-12.025.01-6.01.006-2.96-2.282,1.5-4.185,3.073-8.374,6.149L384.29,130.375l-16.808,12.161-8.416,6.051-4.207,3.025c-1.434,1.036-2.8,1.87-3.519,3.314-.764,1.413-.737,3.28-.764,5.368l-.112,6.1-.224,12.189-.445,24.377c-.108,16.244-.532,32.49-.376,48.727a10.332,10.332,0,0,0,2.517-.953,10.518,10.518,0,0,1-2.527,1l-.019.007v-.024c-.311-16.248-.038-32.506-.087-48.762l-.132-24.377-.065-12.19-.034-6.1c0-1.908-.173-4.359.869-6.462,1.013-2.1,2.709-3.123,4.008-4.163l4.134-3.181,4.8-3.7-4.824,3.484-4.221,3.047c-.745.529-1.315.971-2.211,1.548a5.763,5.763,0,0,1-3.025.93,6,6,0,0,1-2.78-.794,7.943,7.943,0,0,1,1.838,2.519c1.1,2.485.913,5.036.947,6.917l.022,6.115.051,12.232.1,24.459-.025,24.458-.037,12.232-.019,6.115c-.011,2.042-.259,4.136-.378,6.194l-.09,1.529Zm140.14-99.8c1.135,2.646.795,5.019.869,6.928l.022,6.112.051,12.223.032,8.007-.024-7.687-.034-12.241-.019-6.123a15.1,15.1,0,0,1,1.067-6.692,10.25,10.25,0,0,1,2.583-3.364,7.429,7.429,0,0,1-3.923,1.35,5.785,5.785,0,0,1-1.733-.228A6.791,6.791,0,0,1,487.259,153.3ZM424.208,105l4.283,2.928,8.568,5.86L454.193,125.5l17.058,11.888,8.523,5.956,4.261,2.978c1.38,1,2.609,1.684,3.8,1.623,1.218-.027,2.333-.758,3.777-1.841l4.254-2.995,8.512-5.982L521.4,125.164c10.854-7.815,22.109-14.973,32.816-22.94-11.4-8.585-22.946-16.906-34.418-25.352L501.847,63.984l-8.976-6.445a9.533,9.533,0,0,0-4.767-2.269,7.645,7.645,0,0,0-4.885,1.759l-31.6,22.856L435.881,91.438l-14.742,10.953A23.015,23.015,0,0,0,424.208,105ZM285.1,104.831l4.283,2.917,8.555,5.84,17.118,11.678,17.029,11.861,8.514,5.935,4.259,2.964c1.48,1.056,2.681,1.923,3.745,1.889a3.292,3.292,0,0,0,1.65-.568l2.038-1.436,4.248-2.985,8.5-5.973,17-11.943L399.094,113.2l8.547-5.875c2.443-1.7,4.957-3.311,7.239-5.2L398.548,90.11,381.041,77.316l-17.59-12.6-8.8-6.306c-1.48-1.008-2.9-2.187-4.431-3.056a4.256,4.256,0,0,0-4.834.5L313.048,79.18,296.938,90.99l-8.045,5.925c-2.344,1.768-4.8,3.406-6.977,5.372C282.961,103.159,283.987,104.054,285.1,104.831ZM419.3,103.676l1.174.377.02.008c-.357-.353-.714-.7-1.078-1.027l-.9-.808.964-.666.733-.508c-.37.168-.742.325-1.114.468l-.706.27.164,1.647Zm69.625,148.674Z" transform="translate(654.936 615.673) rotate(180)" fill="#212429" stroke="rgba(0,0,0,0)" stroke-miterlimit="10" stroke-width="1"/>
  </g>
</svg>
