<svg xmlns="http://www.w3.org/2000/svg" width="70.499" height="28.505" viewBox="0 0 70.499 28.505">
  <path id="Path_7758" data-name="Path 7758" d="M84.636,173.936l-1.941,1.294.971,1.456v6.647H82.5a4.667,4.667,0,1,0-9.333,0H70.832V170.5h8.709l1.987,2.98,1.941-1.294-2.333-3.5a1.167,1.167,0,0,0-.971-.519h-10.5a1.167,1.167,0,0,0-1.167,1.167v9.333H65v-17.5A1.167,1.167,0,0,0,63.832,160H17.167A1.167,1.167,0,0,0,16,161.167v3.5h2.333v-2.333H62.666v16.333H18.333V167H16v12.833A1.167,1.167,0,0,0,17.167,181v1.167a1.167,1.167,0,0,0,.342.825l2.333,2.333a1.166,1.166,0,0,0,.825.342h.628a4.66,4.66,0,0,0,7.539.748,4.66,4.66,0,0,0,7.539-.748H37a1.167,1.167,0,0,0,.825-.342l2.333-2.333a1.167,1.167,0,0,0,.342-.825V181h5.833v1.167a1.167,1.167,0,0,0,.342.825l2.333,2.333a1.166,1.166,0,0,0,.825.342h.628a4.66,4.66,0,0,0,7.539.748,4.66,4.66,0,0,0,7.539-.748h8.255a4.662,4.662,0,0,0,8.078,0h2.96A1.167,1.167,0,0,0,86,184.5v-8.167a1.167,1.167,0,0,0-.2-.647Zm-63.947,8.937-1.189-1.19V181h1.794a4.631,4.631,0,0,0-.6,1.873Zm4.644,2.793a2.333,2.333,0,1,1,2.333-2.333A2.333,2.333,0,0,1,25.333,185.666Zm7,0a2.333,2.333,0,1,1,2.333-2.333A2.333,2.333,0,0,1,32.333,185.666Zm5.833-3.983-1.19,1.19a4.631,4.631,0,0,0-.6-1.873h1.794Zm11.689,1.19-1.19-1.19V181h1.794A4.631,4.631,0,0,0,49.856,182.873Zm4.644,2.793a2.333,2.333,0,1,1,2.333-2.333A2.333,2.333,0,0,1,54.5,185.666Zm7,0a2.333,2.333,0,1,1,2.333-2.333,2.333,2.333,0,0,1-2.333,2.333Zm7-2.333H66.166A4.636,4.636,0,0,0,65.538,181H68.5Zm9.333,2.333a2.333,2.333,0,1,1,2.333-2.333A2.333,2.333,0,0,1,77.832,185.666ZM23,167H20.667v-2.333H23Zm-2.333,2.333H23v7H20.667Zm7-4.667v11.666H25.333V164.667Zm4.667,0v11.666H30V164.667Zm4.667,0v11.666H34.666V164.667Zm4.667,0v11.666H39.333V164.667Zm4.667,0v11.666H44V164.667Zm4.667,0v11.666H48.666V164.667Zm4.667,0v11.666H53.333V164.667Zm4.667,0v11.666H58V164.667Z" transform="translate(-15.75 -159.75)" fill="#e84f14" stroke="#fff" stroke-width="0.5"/>
</svg>
