<svg xmlns="http://www.w3.org/2000/svg" width="34.75" height="42.719" viewBox="0 0 34.75 42.719">
  <path id="Path_7761" data-name="Path 7761" d="M2.42,42.719a2.294,2.294,0,0,1-.751-4.462v-4.2a2.294,2.294,0,0,1,0-4.335V26.181a.626.626,0,0,1,1.252,0v3.411H31.705V13.127H27.617a.626.626,0,1,1,0-1.252h4.839a1.043,1.043,0,0,0,0-2.086H2.42a1.043,1.043,0,1,0,0,2.086H25.114a.626.626,0,1,1,0,1.252H2.92v10.55a.626.626,0,0,1-1.252,0V13a2.294,2.294,0,0,1,0-4.335V4.5A2.294,2.294,0,0,1,2.294,0H32.331a2.294,2.294,0,0,1,.626,4.5V8.594a2.294,2.294,0,0,1,0,4.478V29.647a2.294,2.294,0,0,1,0,4.478v4.061a2.294,2.294,0,0,1-.5,4.533ZM1.377,40.424A1.044,1.044,0,0,0,2.42,41.467H32.456a1.043,1.043,0,1,0,0-2.086H2.42A1.044,1.044,0,0,0,1.377,40.424ZM2.92,38.13H31.705V34.18H2.92ZM1.377,31.886A1.044,1.044,0,0,0,2.42,32.929H32.456a1.043,1.043,0,0,0,0-2.086H2.42A1.044,1.044,0,0,0,1.377,31.886ZM2.92,8.538H31.705V4.589H2.92ZM1.252,2.294A1.044,1.044,0,0,0,2.294,3.337H32.331a1.043,1.043,0,0,0,0-2.086H2.294A1.044,1.044,0,0,0,1.252,2.294ZM14.5,25.6a4.112,4.112,0,0,1-1.143-2.985A10.633,10.633,0,0,1,16.22,16.4a1.459,1.459,0,0,1,2.186,0c1.072,1.212,2.87,3.66,2.87,6.437a3.976,3.976,0,0,1-3.926,3.964h-.037A3.889,3.889,0,0,1,14.5,25.6Zm2.662-8.369A9.406,9.406,0,0,0,14.6,22.66a2.853,2.853,0,0,0,.792,2.072,2.648,2.648,0,0,0,1.917.822h.026a2.72,2.72,0,0,0,2.686-2.712c0-2.365-1.6-4.528-2.556-5.608a.207.207,0,0,0-.157-.071A.2.2,0,0,0,17.158,17.233Z" fill="#e84f14"/>
</svg>
