<svg xmlns="http://www.w3.org/2000/svg" width="34.121" height="45.974" viewBox="0 0 34.121 45.974">
  <path id="Path_7964" data-name="Path 7964" d="M9.7,45.974a.9.9,0,1,1,0-1.794h5.408c-.943-1.117-2.316-2.788-3.87-4.816-1.67-2.18-3.187-4.3-4.514-6.309A65.344,65.344,0,0,1,2.617,26,31.888,31.888,0,0,1,.733,21.364,15.006,15.006,0,0,1,0,17.061a16.959,16.959,0,0,1,1.341-6.64,17.124,17.124,0,0,1,9.084-9.08A17.051,17.051,0,0,1,26.4,2.772a17.123,17.123,0,0,1,6.189,7.174,16.936,16.936,0,0,1,1.535,6.383.9.9,0,0,1-.86.935l-.039,0a.9.9,0,0,1-.9-.861A15.227,15.227,0,0,0,17.07,1.8h0A15.264,15.264,0,0,0,1.8,17.061a18.917,18.917,0,0,0,2.161,7.582,63.986,63.986,0,0,0,5.011,8.528,125.848,125.848,0,0,0,8.1,10.537c.3-.355.624-.732.951-1.122.913-1.094,2.332-2.832,3.9-4.9A76.342,76.342,0,0,0,30.561,23.8a.9.9,0,0,1,.822-.538.911.911,0,0,1,.363.077.9.9,0,0,1,.458,1.184,56.721,56.721,0,0,1-4.093,7.446c-1.368,2.141-2.97,4.426-4.763,6.8-1.727,2.281-3.287,4.183-4.323,5.41h5.409a.9.9,0,1,1,0,1.794ZM4.491,17.061A12.576,12.576,0,1,1,17.068,29.632,12.574,12.574,0,0,1,4.491,17.061Zm1.8,0A10.78,10.78,0,1,0,17.068,6.286,10.776,10.776,0,0,0,6.288,17.061Zm9.576,4.2-4.491-4.939A.9.9,0,1,1,12.7,15.11l3.739,4.11L21.184,12.5a.9.9,0,1,1,1.468,1.036l-5.39,7.632a.9.9,0,0,1-1.4.086Zm15.991-.894a.9.9,0,1,1,.9.9A.9.9,0,0,1,31.855,20.363Z" fill="#21b2e8"/>
</svg>
