<svg xmlns="http://www.w3.org/2000/svg" width="36.855" height="36.855" viewBox="0 0 36.855 36.855">
  <path id="Path_7966" data-name="Path 7966" d="M17.708,33.257v-16.3a7,7,0,0,0-7.489.2.719.719,0,0,1-.413.12H9.8a.725.725,0,0,1-.483-.185,7.862,7.862,0,0,0-8.2.065A.72.72,0,0,1,0,16.5C.764,7.281,8.962,0,18.428,0S36.094,7.287,36.853,16.5a.72.72,0,0,1-1.118.658,7.862,7.862,0,0,0-8.2-.065.722.722,0,0,1-.482.185h-.022a.722.722,0,0,1-.4-.121,7,7,0,0,0-7.488-.2v16.3a2.16,2.16,0,0,0,4.319,0v-2.88a.72.72,0,0,1,1.439,0v2.88a3.6,3.6,0,0,1-7.2,0ZM27.73,15.351a9.292,9.292,0,0,1,3.857-.821H31.6a9.366,9.366,0,0,1,3.643.732A17.143,17.143,0,0,0,22.9,2.048C26.081,5.206,27.463,10.83,27.73,15.351Zm-18.6,0c.267-4.521,1.648-10.144,4.833-13.3A17.14,17.14,0,0,0,1.612,15.261a9.339,9.339,0,0,1,3.657-.731A9.287,9.287,0,0,1,9.126,15.351Zm10.022-3.113v3.088a8.42,8.42,0,0,1,7.135-.016c-.464-7.281-3.49-13.115-7.135-13.8V6.479a.72.72,0,1,1-1.44,0V1.508c-3.646.687-6.671,6.521-7.136,13.8a8.419,8.419,0,0,1,7.136.016V12.238a.72.72,0,1,1,1.44,0ZM0,28.938a7.918,7.918,0,1,1,7.919,7.918A7.928,7.928,0,0,1,0,28.938Zm1.44,0a6.479,6.479,0,1,0,6.479-6.479A6.486,6.486,0,0,0,1.44,28.938Zm5.831,4.268v-.84a2.981,2.981,0,0,1-1.317-.937.72.72,0,1,1,1.1-.926,1.3,1.3,0,0,0,.935.544.72.72,0,0,0,0-1.439,2.159,2.159,0,0,1-.72-4.2v-.844a.72.72,0,0,1,1.439,0v.839a2.79,2.79,0,0,1,1.06.662.72.72,0,1,1-1,1.035,1.157,1.157,0,0,0-.778-.377.72.72,0,1,0,0,1.44,2.159,2.159,0,0,1,.719,4.2v.843a.72.72,0,1,1-1.439,0ZM17.708,9.358a.72.72,0,1,1,.72.72A.72.72,0,0,1,17.708,9.358Z" fill="#21b2e8"/>
</svg>
