<svg xmlns="http://www.w3.org/2000/svg" width="46.631" height="46.628" viewBox="0 0 46.631 46.628">
  <path id="Path_7962" data-name="Path 7962" d="M0,41.046A5.58,5.58,0,0,1,8.831,36.51L13.343,32a10.968,10.968,0,0,1,0-14.2L8.6,13.059a4.58,4.58,0,1,1,1.287-1.289l4.745,4.743a10.969,10.969,0,0,1,14.2,0l2.6-2.6A.911.911,0,0,1,32.712,15.2l-2.6,2.6a10.974,10.974,0,0,1,0,14.2l3.055,3.056a6.149,6.149,0,1,1-1.281,1.294l-3.061-3.06a10.962,10.962,0,0,1-14.2,0L10.119,37.8A5.581,5.581,0,1,1,0,41.046Zm1.821,0a3.761,3.761,0,1,0,3.761-3.761A3.765,3.765,0,0,0,1.821,41.046Zm30.706-1.075s1.936,4.318,4.318,4.318a4.318,4.318,0,1,0,0-8.637C34.463,35.652,32.527,39.971,32.527,39.971ZM17.606,30.587v2.505a9.183,9.183,0,0,0,8.246,0V30.587a.467.467,0,0,0-.466-.466H18.071A.466.466,0,0,0,17.606,30.587Zm7.78-2.286a2.291,2.291,0,0,1,2.289,2.286V31.88a9.171,9.171,0,1,0-11.891,0V30.587A2.289,2.289,0,0,1,18.071,28.3ZM3.333,9.251A2.746,2.746,0,1,0,6.079,6.505,2.75,2.75,0,0,0,3.333,9.251ZM16.69,22.722a5.039,5.039,0,1,1,5.039,5.038A5.046,5.046,0,0,1,16.69,22.722Zm1.823,0a3.217,3.217,0,1,0,3.217-3.216A3.221,3.221,0,0,0,18.512,22.722ZM33.488,12.575a.91.91,0,1,1,.862.617A.919.919,0,0,1,33.488,12.575Zm2.474-1.907a.909.909,0,0,1,0-1.289l1.957-1.956A4.774,4.774,0,1,1,39.207,8.71L37.25,10.669a.91.91,0,0,1-1.288,0Zm2.965-5.906a2.941,2.941,0,1,0,2.941-2.941A2.944,2.944,0,0,0,38.927,4.762Z" fill="#21b2e8"/>
</svg>
