<svg xmlns="http://www.w3.org/2000/svg" width="49" height="48.999" viewBox="0 0 49 48.999">
  <path id="Path_7965" data-name="Path 7965" d="M3.546,48.161.839,45.453a2.875,2.875,0,0,1,0-4.06L11.193,31.041a2.874,2.874,0,0,1,3.267-.561L16.1,28.844A18.161,18.161,0,0,1,15.424,8.5a.957.957,0,1,1,1.619,1.02,16.264,16.264,0,1,0,5.115-5.115A.957.957,0,1,1,21.136,2.79,18.188,18.188,0,1,1,20.157,32.9l-1.637,1.637a2.884,2.884,0,0,1-.561,3.267L7.606,48.161a2.877,2.877,0,0,1-4.06,0Zm9-15.767L2.194,42.747a.958.958,0,0,0,0,1.353L4.9,46.807a.962.962,0,0,0,1.354,0L16.605,36.454a.96.96,0,0,0,0-1.352L13.9,32.394a.96.96,0,0,0-1.354,0Zm3.384-.676,1.354,1.353,1.377-1.377a18.69,18.69,0,0,1-1.353-1.354Zm.533-13.534a14.355,14.355,0,1,1,26.984,6.83.957.957,0,0,1-1.683-.913,12.426,12.426,0,1,0-5.027,5.029.956.956,0,1,1,.911,1.682A14.357,14.357,0,0,1,16.462,18.184ZM39.555,28.27a.957.957,0,0,1,.123-1.347h0a.957.957,0,1,1-.123,1.348ZM20.793,18.737a.958.958,0,0,1,0-1.106A12.307,12.307,0,0,1,30.817,12.87,12.3,12.3,0,0,1,40.84,17.631a.958.958,0,0,1,0,1.106A12.3,12.3,0,0,1,30.817,23.5,12.306,12.306,0,0,1,20.793,18.737Zm6.625-.553a3.4,3.4,0,1,0,3.4-3.4A3.4,3.4,0,0,0,27.418,18.184Zm8.711,0a5.277,5.277,0,0,1-.579,2.409,9.335,9.335,0,0,0,3.3-2.409,9.316,9.316,0,0,0-3.3-2.41A5.278,5.278,0,0,1,36.129,18.184Zm-13.343,0a9.335,9.335,0,0,0,3.3,2.409,5.293,5.293,0,0,1,0-4.818A9.325,9.325,0,0,0,22.786,18.184Zm8.03.957a.958.958,0,1,1,.957-.957.957.957,0,0,1-.957.957ZM17.928,6.646a.957.957,0,0,1,.063-1.351h0a.957.957,0,1,1-.064,1.351Z" fill="#21b2e8"/>
</svg>
