<svg xmlns="http://www.w3.org/2000/svg" width="40.633" height="40.627" viewBox="0 0 40.633 40.627">
  <path id="Path_7967" data-name="Path 7967" d="M14.481,39.466,1.164,26.148a3.969,3.969,0,0,1,0-5.616l8.553-8.554A.794.794,0,0,1,10.841,13.1L2.286,21.655a2.385,2.385,0,0,0,0,3.372L15.6,38.343a2.384,2.384,0,0,0,3.371,0L38.341,18.977a2.366,2.366,0,0,0,.7-1.683l.008-13.086L38.3,3.459,35.352,6.4a3.252,3.252,0,1,1-1.121-1.123l2.944-2.945L36.44,1.6l-13.1-.008h0a2.369,2.369,0,0,0-1.685.7l-6.7,6.7a.793.793,0,1,1-1.122-1.122l6.7-6.7A3.944,3.944,0,0,1,23.336,0h0L36.77.012a.794.794,0,0,1,.562.233l.967.968.98-.981A.793.793,0,0,1,40.4,1.355l-.98.981.982.983a.8.8,0,0,1,.231.562l-.008,13.415A3.948,3.948,0,0,1,39.463,20.1L20.1,39.466a3.978,3.978,0,0,1-5.616,0Zm16.9-32.574a1.664,1.664,0,1,0,2.772.708l-.913.913A.794.794,0,0,1,32.121,7.39l.916-.916a1.672,1.672,0,0,0-1.652.417ZM14.821,35.056l-9.25-9.248a3.142,3.142,0,0,1,0-4.444L20.208,6.729a3.146,3.146,0,0,1,4.443,0l9.25,9.248a3.148,3.148,0,0,1,0,4.445L19.265,35.056a3.141,3.141,0,0,1-4.443,0ZM21.33,7.851,6.693,22.487a1.558,1.558,0,0,0,0,2.2l9.25,9.248a1.557,1.557,0,0,0,2.2,0L32.777,19.3a1.551,1.551,0,0,0,0-2.2L23.53,7.851a1.558,1.558,0,0,0-2.2,0Zm-4.606,22.3-4.076-4.076a.794.794,0,0,1,1.123-1.123l4.076,4.076a.794.794,0,0,1-1.123,1.123Zm-.2-6.047a.8.8,0,0,1,0-1.124l.543-.541a3.054,3.054,0,0,1,.335-3.776.794.794,0,1,1,1.124,1.122,1.656,1.656,0,0,0,2.316,2.317,1.541,1.541,0,0,0-.158-2.157h0a3.329,3.329,0,0,1-.991-2.194,2.879,2.879,0,0,1,.831-2.207A3.053,3.053,0,0,1,24.3,15.21l.457-.457a.794.794,0,0,1,1.123,1.123l-.457.457a3.056,3.056,0,0,1-.337,3.776.793.793,0,1,1-1.123-1.122,1.656,1.656,0,0,0-2.316-2.317,1.311,1.311,0,0,0-.368,1.007,1.751,1.751,0,0,0,.527,1.15h0a3.122,3.122,0,0,1,.158,4.4,2.876,2.876,0,0,1-2.055.833,3.292,3.292,0,0,1-1.721-.5l-.542.543a.795.795,0,0,1-1.123,0Zm-6.05-.2a.794.794,0,1,1,.562.232A.8.8,0,0,1,10.474,23.905Zm1.258-12.818a.793.793,0,0,1,.56-1.355.794.794,0,0,1,0,1.588A.792.792,0,0,1,11.732,11.087Z" transform="translate(0 0)" fill="#21b2e8"/>
</svg>
