<svg xmlns="http://www.w3.org/2000/svg" width="126.174" height="148.594" viewBox="0 0 126.174 148.594">
  <g id="Group_5301" data-name="Group 5301" transform="translate(0.001)">
    <path id="Path_7549" data-name="Path 7549" d="M203.742,219.5H182a4.24,4.24,0,0,1-4.235-4.235V128.328A4.24,4.24,0,0,1,182,124.093h58.959l10.791,9.635v17.518h-.5V133.951l-10.483-9.36H182a3.741,3.741,0,0,0-3.737,3.737v86.938A3.741,3.741,0,0,0,182,219h21.737Z" transform="translate(-177.77 -124.093)" fill="#ccc"/>
    <path id="Path_7550" data-name="Path 7550" d="M440.731,134.057H434a4.24,4.24,0,0,1-4.235-4.235v-5.48a.249.249,0,1,1,.5,0v5.48A3.741,3.741,0,0,0,434,133.559h6.726a.249.249,0,1,1,0,.5Z" transform="translate(-366.995 -124.093)" fill="#ccc"/>
    <path id="Path_7551" data-name="Path 7551" d="M263.1,214.593H206.3a1.993,1.993,0,0,0,0,3.986h56.8a1.993,1.993,0,1,0,0-3.986Z" transform="translate(-197.699 -192.049)" fill="#e6e6e6"/>
    <path id="Path_7552" data-name="Path 7552" d="M234.452,180.593H206.3a1.993,1.993,0,0,0,0,3.986h28.149a1.993,1.993,0,0,0,0-3.986Z" transform="translate(-197.699 -166.519)" fill="#e6e6e6"/>
    <path id="Path_7553" data-name="Path 7553" d="M206.3,281.593a1.993,1.993,0,1,0,0,3.986h17.8v-3.986Z" transform="translate(-197.699 -242.359)" fill="#e6e6e6"/>
    <path id="Path_7554" data-name="Path 7554" d="M206.3,247.593a1.993,1.993,0,0,0,0,3.986h17.8v-3.986Z" transform="translate(-197.699 -216.828)" fill="#e6e6e6"/>
    <path id="Path_7555" data-name="Path 7555" d="M223.793,363.239H207.84a4.115,4.115,0,0,1-4.11-4.11V338.2a4.115,4.115,0,0,1,4.11-4.11h15.953Z" transform="translate(-197.263 -281.781)" fill="#e6e6e6"/>
    <path id="Path_7556" data-name="Path 7556" d="M309.242,327H287.5a4.24,4.24,0,0,1-4.235-4.235V235.828a4.24,4.24,0,0,1,4.235-4.235h58.959l10.791,9.635v16.521h-.5v-16.3l-10.483-9.36H287.5a3.741,3.741,0,0,0-3.737,3.737v86.938A3.741,3.741,0,0,0,287.5,326.5h21.737Z" transform="translate(-256.989 -204.814)" fill="#ccc"/>
    <path id="Path_7557" data-name="Path 7557" d="M546.231,241.557H539.5a4.24,4.24,0,0,1-4.235-4.235v-5.48a.249.249,0,1,1,.5,0v5.48a3.741,3.741,0,0,0,3.737,3.737h6.726a.249.249,0,1,1,0,.5Z" transform="translate(-446.214 -204.814)" fill="#ccc"/>
    <path id="Path_7558" data-name="Path 7558" d="M368.6,322.093H311.8a1.993,1.993,0,1,0,0,3.986h56.8a1.993,1.993,0,1,0,0-3.986Z" transform="translate(-276.918 -272.77)" fill="#e6e6e6"/>
    <path id="Path_7559" data-name="Path 7559" d="M339.952,288.093H311.8a1.993,1.993,0,1,0,0,3.986h28.149a1.993,1.993,0,1,0,0-3.986Z" transform="translate(-276.918 -247.24)" fill="#e6e6e6"/>
    <path id="Path_7560" data-name="Path 7560" d="M368.6,322.093H311.8a1.993,1.993,0,1,0,0,3.986h56.8a1.993,1.993,0,1,0,0-3.986Z" transform="translate(-276.918 -272.77)" fill="#e6e6e6"/>
    <path id="Path_7561" data-name="Path 7561" d="M339.952,288.093H311.8a1.993,1.993,0,1,0,0,3.986h28.149a1.993,1.993,0,1,0,0-3.986Z" transform="translate(-276.918 -247.24)" fill="#e6e6e6"/>
    <path id="Path_7562" data-name="Path 7562" d="M311.8,389.093a1.993,1.993,0,1,0,0,3.986h17.8v-3.986Z" transform="translate(-276.918 -323.08)" fill="#e6e6e6"/>
    <path id="Path_7563" data-name="Path 7563" d="M311.8,355.093a1.993,1.993,0,1,0,0,3.986h17.8v-3.986Z" transform="translate(-276.918 -297.549)" fill="#e6e6e6"/>
    <path id="Path_7564" data-name="Path 7564" d="M311.8,389.093a1.993,1.993,0,1,0,0,3.986h17.8v-3.986Z" transform="translate(-276.918 -323.08)" fill="#e6e6e6"/>
    <path id="Path_7565" data-name="Path 7565" d="M311.8,355.093a1.993,1.993,0,1,0,0,3.986h17.8v-3.986Z" transform="translate(-276.918 -297.549)" fill="#e6e6e6"/>
    <path id="Path_7566" data-name="Path 7566" d="M329.293,470.739H313.34a4.115,4.115,0,0,1-4.11-4.11V445.7a4.115,4.115,0,0,1,4.11-4.11h15.953Z" transform="translate(-276.483 -362.502)" fill="#e6e6e6"/>
    <path id="Path_7567" data-name="Path 7567" d="M389.3,338.216a4.233,4.233,0,0,0-2.028,3.612v.623h.5v-.623a3.743,3.743,0,0,1,2.778-3.612Zm61.166-.623H391.5a4.24,4.24,0,0,0-4.235,4.235v86.938A4.241,4.241,0,0,0,391.5,433H457.02a4.241,4.241,0,0,0,4.235-4.235V347.228Zm10.293,91.173a3.741,3.741,0,0,1-3.737,3.737H391.5a3.741,3.741,0,0,1-3.737-3.737V341.828a3.743,3.743,0,0,1,2.778-3.612,3.7,3.7,0,0,1,.959-.125h58.769l10.482,9.359ZM389.3,338.216a4.233,4.233,0,0,0-2.028,3.612v.623h.5v-.623a3.743,3.743,0,0,1,2.777-3.612Z" transform="translate(-335.082 -284.409)" fill="#25282d"/>
    <path id="Path_7568" data-name="Path 7568" d="M650.231,347.557H643.5a4.24,4.24,0,0,1-4.235-4.235v-5.48a.249.249,0,1,1,.5,0v5.48a3.741,3.741,0,0,0,3.737,3.737h6.726a.249.249,0,0,1,0,.5Z" transform="translate(-524.307 -284.409)" fill="#25282d"/>
    <path id="Path_7569" data-name="Path 7569" d="M472.6,432.079H415.8a1.993,1.993,0,1,1,0-3.986h56.8a1.993,1.993,0,1,1,0,3.986Z" transform="translate(-355.012 -352.365)" fill="#e84f14"/>
    <path id="Path_7570" data-name="Path 7570" d="M443.954,398.079H415.8a1.993,1.993,0,0,1,0-3.986h28.149a1.993,1.993,0,1,1,0,3.986Z" transform="translate(-355.012 -326.834)" fill="#e84f14"/>
    <path id="Path_7571" data-name="Path 7571" d="M472.6,499.079H415.8a1.993,1.993,0,0,1,0-3.986h56.8a1.993,1.993,0,1,1,0,3.986Z" transform="translate(-355.012 -402.674)" fill="#e84f14"/>
    <path id="Path_7572" data-name="Path 7572" d="M443.954,465.079H415.8a1.993,1.993,0,1,1,0-3.986h28.149a1.993,1.993,0,1,1,0,3.986Z" transform="translate(-355.012 -377.144)" fill="#e84f14"/>
    <path id="Path_7573" data-name="Path 7573" d="M470.15,576.739H417.339a4.115,4.115,0,0,1-4.11-4.11V551.7a4.115,4.115,0,0,1,4.11-4.11H470.15a4.115,4.115,0,0,1,4.11,4.11v20.925A4.115,4.115,0,0,1,470.15,576.739Z" transform="translate(-354.575 -442.096)" fill="#e84f14"/>
  </g>
</svg>
