<svg xmlns="http://www.w3.org/2000/svg" width="128.596" height="131.001" viewBox="0 0 128.596 131.001">
  <g id="Group_13142" data-name="Group 13142" transform="translate(13543 -6407.145)">
    <g id="Group_5342" data-name="Group 5342" transform="translate(-13911 6421.145)">
      <rect id="Rectangle_4632" data-name="Rectangle 4632" width="128.596" height="82.357" transform="translate(368 34.644)" fill="#e6e6e6"/>
      <rect id="Rectangle_4633" data-name="Rectangle 4633" width="104.497" height="64.117" transform="translate(380.049 43.764)" fill="#fff"/>
      <rect id="Rectangle_4637" data-name="Rectangle 4637" width="104.497" height="3.937" transform="translate(380.049 79.664)" fill="#e6e6e6"/>
      <rect id="Rectangle_4640" data-name="Rectangle 4640" width="3.937" height="64.117" transform="translate(449.369 43.764)" fill="#e6e6e6"/>
      <rect id="Rectangle_4757" data-name="Rectangle 4757" width="3.937" height="28.217" transform="translate(411.369 79.664)" fill="#e6e6e6"/>
      <rect id="Rectangle_4759" data-name="Rectangle 4759" width="32" height="36" transform="translate(453 43.855)" fill="#e84f14"/>
      <g id="Layer_1" data-name="Layer 1" transform="translate(458 47.115)">
        <path id="Path_1" data-name="Path 1" d="M6.945,2.016h0a1.005,1.005,0,1,0,.005,0m1.1,0A2.066,2.066,0,0,1,5.942,4.032,2.069,2.069,0,0,1,3.83,2.016,2.066,2.066,0,0,1,5.942,0a2.058,2.058,0,0,1,2.1,2.016m-4.328.916V3.939H1.15V.091h1.1V2.932Zm7.9,1.008H10.335l-.8-1.19H9.327v1.19h-1.1V.091H9.965c1,0,1.47.535,1.47,1.283a1.311,1.311,0,0,1-.762,1.271Zm7.1-3.849-1.47,2.291V3.939h-1.1V2.382L14.685.091h1.283L16.7,1.282,17.439.091Zm.045,3.849,1.6-2.841H18.853V.091h3.3l-1.6,2.841H22.06V3.939ZM10.34,1.42c0-.281-.213-.412-.471-.412H9.335v.825H9.87a.415.415,0,0,0,.471-.413m4.812,2.521H13.869l-.8-1.191h-.214V3.941h-1.1V3.329c.015-.013.029-.029.045-.045l1.273-1.45h.321a.416.416,0,1,0,0-.825h-.5l-.8-.916h1.4c1,0,1.47.535,1.47,1.282A1.321,1.321,0,0,1,14.2,2.645Z" transform="translate(-0.996)" fill="#fff"/>
        <path id="Path_2" data-name="Path 2" d="M80.5,4.634V2.19l1.15,1.22Z" transform="translate(-69.739 -1.897)" fill="#fff"/>
        <path id="Path_3" data-name="Path 3" d="M0,35.175H.449a.349.349,0,0,1,.253.086.223.223,0,0,1,.067.164h0a.227.227,0,0,1-.134.21.235.235,0,0,1,.18.237h0c0,.178-.144.267-.362.267H0Zm.4.392c.094,0,.154-.031.154-.1h0c0-.063-.051-.1-.134-.1H.207v.2Zm.059.386c.094,0,.151-.033.151-.1h0c0-.065-.048-.106-.158-.106H.207v.21Z" transform="translate(0 -30.472)" fill="#fff"/>
        <path id="Path_4" data-name="Path 4" d="M12.02,35.18v.968h.737v-.19h-.525v-.2h.456v-.188h-.456v-.2h.519v-.19Z" transform="translate(-10.413 -30.477)" fill="#fff"/>
        <path id="Path_5" data-name="Path 5" d="M23.474,35.18l-.234.389-.231-.389H22.76l.372.586v.382h.213v-.386l.372-.581Z" transform="translate(-19.718 -30.477)" fill="#fff"/>
        <path id="Path_6" data-name="Path 6" d="M35.14,35.561h0a.5.5,0,0,1,.516-.5.495.495,0,0,1,.512.5h0a.515.515,0,0,1-1.028,0m.8,0h0a.294.294,0,0,0-.286-.3.289.289,0,0,0-.29.3h0a.294.294,0,0,0,.29.306.289.289,0,0,0,.29-.3" transform="translate(-30.443 -30.371)" fill="#fff"/>
        <path id="Path_7" data-name="Path 7" d="M49.458,35.18v.6l-.453-.6h-.2v.968h.21v-.615l.468.615h.18V35.18Z" transform="translate(-42.285 -30.477)" fill="#fff"/>
        <path id="Path_8" data-name="Path 8" d="M61.53,35.173h.377a.483.483,0,0,1,.515.481h0a.484.484,0,0,1-.515.484H61.53Zm.377.778a.275.275,0,0,0,.291-.289h0a.278.278,0,0,0-.291-.291h-.164v.58Z" transform="translate(-53.305 -30.47)" fill="#fff"/>
        <path id="Path_9" data-name="Path 9" d="M78.92,35.175h.448a.354.354,0,0,1,.254.086.223.223,0,0,1,.066.164h0a.226.226,0,0,1-.134.21.234.234,0,0,1,.18.237h0c0,.178-.143.267-.361.267H78.92Zm.4.392c.095,0,.154-.031.154-.1h0c0-.063-.049-.1-.134-.1h-.215v.2Zm.059.386c.094,0,.15-.033.15-.1h0c0-.066-.048-.106-.156-.106h-.247v.21Z" transform="translate(-68.37 -30.473)" fill="#fff"/>
        <path id="Path_10" data-name="Path 10" d="M90.62,35.655h0a.515.515,0,0,1,1.028,0h0a.5.5,0,0,1-.516.5.495.495,0,0,1-.512-.5m.8,0h0a.294.294,0,0,0-.293-.3.289.289,0,0,0-.29.3h0a.294.294,0,0,0,.293.3.289.289,0,0,0,.29-.3" transform="translate(-78.506 -30.465)" fill="#fff"/>
        <path id="Path_11" data-name="Path 11" d="M104.28,35.175h.442a.385.385,0,0,1,.282.1.3.3,0,0,1,.083.221h0a.3.3,0,0,1-.207.3l.235.346h-.249l-.207-.31h-.167v.31h-.213Zm.428.471c.1,0,.163-.056.163-.134h0c0-.091-.063-.134-.167-.134h-.211v.267Z" transform="translate(-90.34 -30.473)" fill="#fff"/>
        <path id="Path_12" data-name="Path 12" d="M116.31,35.173h.377a.483.483,0,0,1,.515.481h0a.484.484,0,0,1-.515.484h-.377Zm.377.775a.275.275,0,0,0,.291-.289h0a.278.278,0,0,0-.291-.291h-.164v.583Z" transform="translate(-100.762 -30.47)" fill="#fff"/>
        <path id="Path_13" data-name="Path 13" d="M128.95,35.18v.968h.737v-.19h-.525v-.2h.456v-.188h-.456v-.2h.519v-.19Z" transform="translate(-111.712 -30.477)" fill="#fff"/>
        <path id="Path_14" data-name="Path 14" d="M140.414,35.175h.441a.382.382,0,0,1,.282.1.3.3,0,0,1,.083.221h0a.3.3,0,0,1-.207.3l.237.346H141l-.207-.31h-.171v.31h-.213Zm.428.471c.1,0,.163-.056.163-.134h0c0-.091-.064-.134-.167-.134h-.215v.267Z" transform="translate(-121.64 -30.472)" fill="#fff"/>
        <path id="Path_15" data-name="Path 15" d="M152,35.94l.126-.15a.448.448,0,0,0,.289.118c.087,0,.14-.035.14-.092h0c0-.053-.033-.082-.2-.123-.2-.049-.321-.1-.321-.3h0a.3.3,0,0,1,.338-.291.557.557,0,0,1,.36.123l-.111.16a.449.449,0,0,0-.251-.1c-.082,0-.124.037-.124.086h0c0,.063.041.084.209.134.2.051.307.122.307.29h0c0,.191-.147.3-.356.3a.612.612,0,0,1-.41-.162" transform="translate(-131.681 -30.411)" fill="#fff"/>
      </g>
    </g>
    <path id="Path_7641" data-name="Path 7641" d="M752.633,110.479a19.02,19.02,0,0,0-19.02,19.02c0,10.5,19.02,50.267,19.02,50.267S771.653,140,771.653,129.5A19.02,19.02,0,0,0,752.633,110.479Zm0,28.077a9.057,9.057,0,1,1,9.057-9.057,9.057,9.057,0,0,1-9.057,9.057Z" transform="translate(-14250.355 6296.666)" fill="#e84f14"/>
  </g>
</svg>
