<svg xmlns="http://www.w3.org/2000/svg" width="44.499" height="44.521" viewBox="0 0 44.499 44.521">
  <path id="Path_7971" data-name="Path 7971" d="M2.649,44.522a.578.578,0,0,1-.574-.508L.005,27.038a.578.578,0,0,1,.574-.648H6.79a.578.578,0,0,1,.553.41l.729,2.394a4.455,4.455,0,0,0,1.681-.937l1.284-1.143c.012-.011.024-.021.037-.03a9.125,9.125,0,0,1,9.5-.928l.532.257a5.585,5.585,0,0,0,2.418.554h3.867l2.906-1.58a4.1,4.1,0,0,1,4.693.424l.54-.291.013-.007a3.15,3.15,0,0,1,3.742.937l.229-.123a3.681,3.681,0,0,1,4.908,1.342.578.578,0,0,1-.168.775l-13.41,9.208a.572.572,0,0,1-.071.041,10.033,10.033,0,0,1-6.2.875l-7.753-1.428-.036-.008a2.293,2.293,0,0,0-1.673.217l-3.811,2.409,1.224,4.016a.578.578,0,0,1-.553.747Zm.512-1.156h8.024L6.361,27.546H1.232Zm8.627-15.373L10.521,29.12A5.614,5.614,0,0,1,8.409,30.3l2.534,8.311L14.5,36.363l.027-.016a3.447,3.447,0,0,1,2.514-.341l7.734,1.424a8.869,8.869,0,0,0,5.442-.756L43.1,27.832a2.526,2.526,0,0,0-3.04-.487l-6.374,3.438-.6.318c.006.092.01.185.01.278a.578.578,0,0,1-.578.578h-.026l-4.4-.2a21.2,21.2,0,0,0-3.857.178.578.578,0,1,1-.159-1.145,22.384,22.384,0,0,1,4.068-.188l3.738.169a3.262,3.262,0,0,0-3.2-2.649H23.52a6.75,6.75,0,0,1-2.921-.669l-.532-.257a14.532,14.532,0,0,0-3.487-.8S13.195,26.934,11.787,27.992Zm24.28-1.45-3.921,2.113a4.406,4.406,0,0,1,.7,1.265l.3-.157,5.085-2.743a2.228,2.228,0,0,0-1.483-.632A1.5,1.5,0,0,0,36.067,26.542Zm-5.2-.151-.014.008-1.232.669a4.393,4.393,0,0,1,1.651.743l2.585-1.392a2.94,2.94,0,0,0-2.991-.028ZM5,40.973a1.82,1.82,0,1,1,1.82,1.82A1.822,1.822,0,0,1,5,40.973Zm1.82-.664a.664.664,0,1,0,.664.664.665.665,0,0,0-.664-.664Zm8.365-17.719a.578.578,0,0,1-.578-.578V20.686H4.9a.578.578,0,0,1-.578-.578V16.355a4.332,4.332,0,0,1,4.222-4.33.58.58,0,0,1,.479.235,2.653,2.653,0,0,0,4.186.1.676.676,0,0,1,.6-.329,4.3,4.3,0,0,1,1.971.619c.067-.078.137-.156.21-.231a4.839,4.839,0,0,1,3.358-1.465.576.576,0,0,1,.479.234,3.113,3.113,0,0,0,4.912.12.7.7,0,0,1,.6-.347,4.861,4.861,0,0,1,3.392,1.682,4.285,4.285,0,0,1,2.127-.62.578.578,0,0,1,.479.234,2.653,2.653,0,0,0,4.186.1.675.675,0,0,1,.6-.329,4.334,4.334,0,0,1,4.058,4.322v3.753a.578.578,0,0,1-.578.578H29.91v1.327a.578.578,0,0,1-.578.578Zm.578-6.771v5.614H28.754V15.82a3.714,3.714,0,0,0-3.205-3.675,4.27,4.27,0,0,1-6.45-.015A3.735,3.735,0,0,0,15.762,15.82Zm13.614-2.214a4.837,4.837,0,0,1,.534,2.214v3.709h9.107V16.355a3.179,3.179,0,0,0-2.7-3.14,3.81,3.81,0,0,1-5.7-.015A3.127,3.127,0,0,0,29.376,13.606ZM5.483,16.355v3.175h9.122V15.82a4.844,4.844,0,0,1,.529-2.208,3.155,3.155,0,0,0-1.128-.4A3.81,3.81,0,0,1,8.3,13.2,3.2,3.2,0,0,0,5.483,16.355ZM29.49,8.016V6.349a3.913,3.913,0,1,1,7.827,0V8.016a3.913,3.913,0,0,1-7.827,0Zm1.156-1.668V8.016a2.757,2.757,0,0,0,5.514,0V6.349a2.757,2.757,0,1,0-5.514,0ZM7.184,8.016V6.349a3.913,3.913,0,1,1,7.827,0V8.016a3.913,3.913,0,0,1-7.827,0ZM8.34,6.349V8.016a2.757,2.757,0,1,0,5.514,0V6.349a2.757,2.757,0,1,0-5.514,0Zm9.529-.055V4.389a4.389,4.389,0,1,1,8.777,0V6.294h0a4.389,4.389,0,0,1-8.777,0Zm4.389,3.232A3.232,3.232,0,0,0,25.49,6.294V4.389a3.232,3.232,0,0,0-6.465,0V6.294h0A3.232,3.232,0,0,0,22.258,9.526Z" transform="translate(-0.001)" fill="#21b2e8"/>
</svg>
