<svg xmlns="http://www.w3.org/2000/svg" width="45" height="45" viewBox="0 0 45 45">
  <path id="Path_7969" data-name="Path 7969" d="M3.75,45A3.755,3.755,0,0,1,0,41.25V3.75A3.755,3.755,0,0,1,3.75,0h37.5A3.755,3.755,0,0,1,45,3.75v37.5A3.755,3.755,0,0,1,41.25,45ZM22.5,34.5v3a.75.75,0,0,0,.75.75h2.685a.751.751,0,0,1,.718.533,9.79,9.79,0,0,0,.772,1.852.75.75,0,0,1-.128.89l-1.9,1.9a.873.873,0,0,0-.054.07H41.25a2.25,2.25,0,0,0,2.25-2.25V25.339a.661.661,0,0,0-.07.054l-1.906,1.9a.749.749,0,0,1-.884.13,10.053,10.053,0,0,0-1.856-.767.75.75,0,0,1-.534-.719V23.25a.75.75,0,0,0-.75-.75h-3a.75.75,0,0,0-.75.75v2.685a.751.751,0,0,1-.534.719,9.615,9.615,0,0,0-1.851.772.75.75,0,0,1-.89-.128l-1.9-1.9a.762.762,0,0,0-1.055,0l-2.122,2.122a.742.742,0,0,0,0,1.054l1.9,1.906a.75.75,0,0,1,.128.89,9.771,9.771,0,0,0-.772,1.852.751.751,0,0,1-.718.533H23.25A.75.75,0,0,0,22.5,34.5Zm-21,6.75A2.25,2.25,0,0,0,3.75,43.5H23.737a2.235,2.235,0,0,1,.6-1.13l1.519-1.519a11.039,11.039,0,0,1-.459-1.1H23.25A2.25,2.25,0,0,1,21,37.5v-3a2.25,2.25,0,0,1,2.25-2.25h2.142a10.984,10.984,0,0,1,.459-1.1L24.332,29.63a2.244,2.244,0,0,1,0-3.177l2.122-2.122a2.3,2.3,0,0,1,3.176,0l1.518,1.519a11.14,11.14,0,0,1,1.1-.458V23.25A2.25,2.25,0,0,1,34.5,21h3a2.25,2.25,0,0,1,2.25,2.25v2.142a11.553,11.553,0,0,1,1.1.454l1.521-1.515a2.233,2.233,0,0,1,1.129-.594V9H1.5Zm0-37.5V7.5h42V3.75A2.25,2.25,0,0,0,41.25,1.5H3.75A2.251,2.251,0,0,0,1.5,3.75ZM30,36a6,6,0,1,1,6,6A6,6,0,0,1,30,36Zm1.5,0A4.5,4.5,0,1,0,36,31.5,4.5,4.5,0,0,0,31.5,36ZM5.25,36a.75.75,0,1,1,0-1.5H18A.75.75,0,1,1,18,36Zm0-4.5a.75.75,0,0,1,0-1.5h15a.75.75,0,0,1,0,1.5Zm0-4.5a.75.75,0,1,1,0-1.5h15a.75.75,0,1,1,0,1.5ZM19.5,21.75v-9a.75.75,0,1,1,1.5,0v9a.75.75,0,0,1-1.5,0Zm-7.5,0v-9a.75.75,0,0,1,.75-.75h3A2.25,2.25,0,0,1,18,14.25v1.5A2.251,2.251,0,0,1,15.75,18H13.5v3.75a.75.75,0,0,1-1.5,0Zm1.5-5.25h2.25a.75.75,0,0,0,.75-.75v-1.5a.75.75,0,0,0-.75-.75H13.5ZM9,21.75V18H6v3.75a.75.75,0,0,1-1.5,0V15a3,3,0,0,1,6,0v6.75a.75.75,0,0,1-1.5,0ZM6,15v1.5H9V15a1.5,1.5,0,0,0-3,0ZM13.5,4.5a2.25,2.25,0,1,1,2.25,2.25A2.25,2.25,0,0,1,13.5,4.5Zm1.5,0a.75.75,0,1,0,.75-.75A.75.75,0,0,0,15,4.5Zm-6.75,0A2.25,2.25,0,1,1,10.5,6.75,2.251,2.251,0,0,1,8.25,4.5Zm1.5,0a.75.75,0,1,0,.751-.75A.751.751,0,0,0,9.75,4.5ZM3,4.5A2.25,2.25,0,1,1,5.25,6.75,2.251,2.251,0,0,1,3,4.5Zm1.5,0a.75.75,0,1,0,.75-.75A.75.75,0,0,0,4.5,4.5Z" fill="#21b2e8"/>
</svg>
