<svg xmlns="http://www.w3.org/2000/svg" width="190.044" height="87.146" viewBox="0 0 190.044 87.146">
  <g id="Group_5305" data-name="Group 5305" transform="translate(-91.617)">
    <path id="Path_7600" data-name="Path 7600" d="M669.544,364.922H545.8a6.575,6.575,0,0,0-6.569,6.569v20.053a6.575,6.575,0,0,0,6.569,6.569H669.544a6.575,6.575,0,0,0,6.569-6.569V371.491A6.575,6.575,0,0,0,669.544,364.922Z" transform="translate(-394.568 -317.479)" fill="#f2f2f2"/>
    <path id="Path_7613" data-name="Path 7613" d="M669.839,244.458H546.1a6.575,6.575,0,0,0-6.569,6.569v20.053a6.575,6.575,0,0,0,6.569,6.569H669.839a6.575,6.575,0,0,0,6.569-6.569V251.027A6.575,6.575,0,0,0,669.839,244.458Zm5.878,26.623a5.886,5.886,0,0,1-5.878,5.878H546.1a5.886,5.886,0,0,1-5.877-5.878V251.027a5.886,5.886,0,0,1,5.878-5.878H669.839a5.886,5.886,0,0,1,5.878,5.878Z" transform="translate(-394.747 -244.458)" fill="#25282d"/>
    <path id="Path_7614" data-name="Path 7614" d="M602.552,280.433A11.434,11.434,0,1,1,613.985,269,11.434,11.434,0,0,1,602.552,280.433Z" transform="translate(-426.017 -252.403)" fill="#e84f14"/>
    <path id="Path_7615" data-name="Path 7615" d="M731.806,301.786h-59.43a2.766,2.766,0,0,1,0-5.532h59.43a2.766,2.766,0,1,1,0,5.532Z" transform="translate(-473.598 -275.855)" fill="#ccc"/>
    <path id="Path_7616" data-name="Path 7616" d="M692.045,271.937H672.377a2.766,2.766,0,0,1,0-5.532h19.669a2.766,2.766,0,0,1,0,5.532Z" transform="translate(-473.598 -257.762)" fill="#ccc"/>
    <path id="Path_395" data-name="Path 395" d="M612.08,282.048a1.308,1.308,0,0,1-.787-.261l-.014-.011-2.964-2.267a1.317,1.317,0,1,1,1.6-2.09l1.92,1.472,4.536-5.918a1.316,1.316,0,0,1,1.846-.244h0l-.028.039.029-.039a1.318,1.318,0,0,1,.244,1.846l-5.335,6.957a1.317,1.317,0,0,1-1.048.514Z" transform="translate(-436.13 -261.43)" fill="#fff"/>
    <path id="Path_7617" data-name="Path 7617" d="M534.84,381.458H411.1a6.575,6.575,0,0,0-6.569,6.569v20.053a6.575,6.575,0,0,0,6.569,6.569H534.84a6.575,6.575,0,0,0,6.569-6.569V388.027A6.575,6.575,0,0,0,534.84,381.458Z" transform="translate(-312.915 -327.503)" fill="#fff"/>
    <path id="Path_7618" data-name="Path 7618" d="M534.84,381.458H411.1a6.575,6.575,0,0,0-6.569,6.569v20.053a6.575,6.575,0,0,0,6.569,6.569H534.84a6.575,6.575,0,0,0,6.569-6.569V388.027A6.575,6.575,0,0,0,534.84,381.458Zm5.878,26.623a5.886,5.886,0,0,1-5.878,5.878H411.1a5.886,5.886,0,0,1-5.878-5.878V388.027a5.886,5.886,0,0,1,5.878-5.878H534.84a5.886,5.886,0,0,1,5.878,5.878Z" transform="translate(-312.915 -327.503)" fill="#25282d"/>
    <path id="Path_7619" data-name="Path 7619" d="M467.551,417.433A11.434,11.434,0,1,1,478.985,406,11.434,11.434,0,0,1,467.551,417.433Z" transform="translate(-344.184 -335.448)" fill="#e84f14"/>
    <path id="Path_7620" data-name="Path 7620" d="M596.806,438.786h-59.43a2.766,2.766,0,0,1,0-5.532h59.43a2.766,2.766,0,0,1,0,5.532Z" transform="translate(-391.765 -358.9)" fill="#ccc"/>
    <path id="Path_7621" data-name="Path 7621" d="M557.045,408.937H537.377a2.766,2.766,0,0,1,0-5.532h19.669a2.766,2.766,0,0,1,0,5.532Z" transform="translate(-391.765 -340.807)" fill="#ccc"/>
    <path id="Path_395-2" data-name="Path 395" d="M477.08,419.048a1.308,1.308,0,0,1-.787-.261l-.014-.011-2.964-2.267a1.317,1.317,0,0,1,1.6-2.09l1.919,1.472,4.536-5.918a1.316,1.316,0,0,1,1.846-.244h0l-.028.039.029-.039a1.318,1.318,0,0,1,.243,1.846l-5.335,6.957a1.318,1.318,0,0,1-1.047.514Z" transform="translate(-354.297 -344.475)" fill="#fff"/>
  </g>
</svg>
