<svg xmlns="http://www.w3.org/2000/svg" width="79.052" height="127.76" viewBox="0 0 79.052 127.76">
  <g id="Group_5303" data-name="Group 5303" transform="translate(13529.771 -23251.001)">
    <g id="Group_5302" data-name="Group 5302" transform="translate(-13529.771 23251)">
      <rect id="Rectangle_4631" data-name="Rectangle 4631" width="60.692" height="104.299" rx="3" transform="translate(7.926 14.025)" fill="#e84f14"/>
      <path id="Path_7574" data-name="Path 7574" d="M409.2,320.285H336.523a2.3,2.3,0,0,1-2.3-2.3V194.821a2.3,2.3,0,0,1,2.3-2.3H409.2a2.3,2.3,0,0,1,2.3,2.3V317.99a2.3,2.3,0,0,1-2.3,2.3ZM336.523,193.036a1.787,1.787,0,0,0-1.785,1.785V317.99a1.787,1.787,0,0,0,1.785,1.785H409.2a1.787,1.787,0,0,0,1.785-1.785V194.821a1.787,1.787,0,0,0-1.785-1.785Z" transform="translate(-334.228 -192.526)" fill="#25282d"/>
      <path id="Path_7575" data-name="Path 7575" d="M465.874,220.036H445.983a.255.255,0,0,1,0-.51h19.891a.255.255,0,1,1,0,.51Z" transform="translate(-417.295 -212.641)" fill="#25282d"/>
      <path id="Path_7576" data-name="Path 7576" d="M424.625,352.08h-56.1a2.3,2.3,0,0,1-2.3-2.3V249.821a2.3,2.3,0,0,1,2.3-2.3h56.1a2.3,2.3,0,0,1,2.3,2.3v99.963A2.3,2.3,0,0,1,424.625,352.08Zm-56.1-104.044a1.787,1.787,0,0,0-1.785,1.785v99.963a1.787,1.787,0,0,0,1.785,1.785h56.1a1.787,1.787,0,0,0,1.785-1.785V249.821a1.787,1.787,0,0,0-1.785-1.785Z" transform="translate(-358.068 -233.5)" fill="#25282d"/>
      <path id="Path_7577" data-name="Path 7577" d="M636.376,274.666a1.149,1.149,0,0,1-1.148-1.148v-4.845a1.148,1.148,0,1,1,2.3,0v4.845A1.149,1.149,0,0,1,636.376,274.666Zm0-6.63a.638.638,0,0,0-.638.638v4.845a.638.638,0,0,0,1.275,0v-4.845A.638.638,0,0,0,636.376,268.036Z" transform="translate(-558.47 -248.4)" fill="#25282d"/>
      <path id="Path_7578" data-name="Path 7578" d="M636.376,305.666a1.149,1.149,0,0,1-1.148-1.148v-4.845a1.148,1.148,0,1,1,2.3,0v4.845A1.149,1.149,0,0,1,636.376,305.666Zm0-6.63a.638.638,0,0,0-.638.638v4.845a.638.638,0,1,0,1.275,0v-4.845A.638.638,0,0,0,636.376,299.036Z" transform="translate(-558.47 -271.495)" fill="#25282d"/>
      <g id="Group_5346" data-name="Group 5346" transform="translate(5.632 -24.433)">
        <path id="Path_7583" data-name="Path 7583" d="M428.659,528.452A11.254,11.254,0,1,1,439.913,517.2h0A11.267,11.267,0,0,1,428.659,528.452Zm0-21.323A10.069,10.069,0,1,0,438.728,517.2,10.069,10.069,0,0,0,428.659,507.129Z" transform="translate(-396.194 -424.549)" fill="#fff"/>
        <path id="Path_7642" data-name="Path 7642" d="M30.842,80.566l-1.931,2.279,3.608,2.912L34.513,83Z" transform="translate(7.897 2.129)" fill="#e84f14"/>
        <path id="Path_7584" data-name="Path 7584" d="M434.151,518.377a1.288,1.288,0,0,1-.912-.379l-4.135-4.135a1.291,1.291,0,0,1,0-1.826l.214-.214a1.294,1.294,0,0,1,1.826,0l2.144,2.143a.775.775,0,0,0,1.182-.1l9.141-12.991a1.292,1.292,0,0,1,1.8-.313l.249.175a1.291,1.291,0,0,1,.313,1.8l-10.763,15.295a1.288,1.288,0,0,1-.945.543C434.225,518.376,434.188,518.377,434.151,518.377Z" transform="translate(-401.668 -421.834)" fill="#fff"/>
      </g>
      <rect id="Rectangle_4769" data-name="Rectangle 4769" width="23" height="3" rx="1.5" transform="translate(26.926 86.613)" fill="#fff"/>
      <rect id="Rectangle_4771" data-name="Rectangle 4771" width="29" height="3" rx="1.5" transform="translate(23.926 98.613)" fill="#fff"/>
      <rect id="Rectangle_4770" data-name="Rectangle 4770" width="41" height="3" rx="1.5" transform="translate(17.926 92.613)" fill="#fff"/>
    </g>
    <g id="Layer_1" data-name="Layer 1" transform="translate(-13504.845 23279.998)">
      <path id="Path_1" data-name="Path 1" d="M8.571,2.581h0a1.287,1.287,0,1,0,.007,0m1.409,0a2.646,2.646,0,0,1-2.7,2.581,2.65,2.65,0,0,1-2.7-2.581A2.646,2.646,0,0,1,7.287,0,2.635,2.635,0,0,1,9.98,2.581M4.437,3.754V5.045H1.15V.116H2.559V3.754ZM14.554,5.045H12.912L11.885,3.521h-.264V5.045H10.212V.116h2.225c1.284,0,1.883.685,1.883,1.643a1.678,1.678,0,0,1-.976,1.628ZM23.645.116,21.762,3.05V5.045H20.355V3.05L18.482.116h1.643l.938,1.525L22.009.116ZM23.7,5.045l2.054-3.638H23.82V.116h4.225L25.99,3.754h1.936V5.045ZM12.919,1.818c0-.359-.272-.527-.6-.527h-.685V2.347h.685a.531.531,0,0,0,.6-.529m6.163,3.228H17.438L16.411,3.521h-.274V5.046H14.728V4.262c.019-.017.038-.038.058-.058l1.63-1.857h.411a.533.533,0,1,0,0-1.056h-.639L15.161.118h1.8c1.284,0,1.883.685,1.883,1.642a1.692,1.692,0,0,1-.976,1.628Z" transform="translate(-0.953)" fill="#fff"/>
      <path id="Path_2" data-name="Path 2" d="M80.5,5.319V2.19l1.472,1.563Z" transform="translate(-66.72 -1.815)" fill="#fff"/>
      <path id="Path_3" data-name="Path 3" d="M0,35.175H.575a.447.447,0,0,1,.324.11.286.286,0,0,1,.086.211h0a.291.291,0,0,1-.171.269.3.3,0,0,1,.231.3h0c0,.228-.185.342-.464.342H0Zm.514.5c.12,0,.2-.039.2-.132h0c0-.08-.065-.127-.171-.127H.265v.262Zm.075.495c.12,0,.193-.043.193-.134h0c0-.084-.062-.135-.2-.135H.265v.269Z" transform="translate(0 -29.153)" fill="#fff"/>
      <path id="Path_4" data-name="Path 4" d="M12.02,35.18v1.239h.943v-.243H12.29v-.26h.584v-.241H12.29v-.252h.664V35.18Z" transform="translate(-9.962 -29.158)" fill="#fff"/>
      <path id="Path_5" data-name="Path 5" d="M23.674,35.18l-.3.5-.3-.5H22.76l.476.75v.49h.272v-.495l.476-.745Z" transform="translate(-18.864 -29.158)" fill="#fff"/>
      <path id="Path_6" data-name="Path 6" d="M35.14,35.7h0a.64.64,0,0,1,.661-.644.633.633,0,0,1,.656.637h0a.659.659,0,0,1-1.316,0m1.027,0h0a.377.377,0,0,0-.366-.385.37.37,0,0,0-.371.385h0a.377.377,0,0,0,.371.392.37.37,0,0,0,.371-.385" transform="translate(-29.125 -29.056)" fill="#fff"/>
      <path id="Path_7" data-name="Path 7" d="M49.64,35.18v.763l-.58-.763h-.25v1.239h.269v-.787l.6.787h.231V35.18Z" transform="translate(-40.455 -29.158)" fill="#fff"/>
      <path id="Path_8" data-name="Path 8" d="M61.53,35.173h.483a.618.618,0,0,1,.659.616h0a.62.62,0,0,1-.659.62H61.53Zm.483,1a.353.353,0,0,0,.373-.37h0a.356.356,0,0,0-.373-.373H61.8v.743Z" transform="translate(-50.997 -29.151)" fill="#fff"/>
      <path id="Path_9" data-name="Path 9" d="M78.92,35.176h.573a.454.454,0,0,1,.325.11.286.286,0,0,1,.084.211h0a.289.289,0,0,1-.171.269.3.3,0,0,1,.231.3h0c0,.228-.183.342-.462.342h-.58Zm.514.5c.122,0,.2-.039.2-.132h0c0-.08-.063-.127-.171-.127h-.276v.262Zm.075.495c.12,0,.192-.043.192-.134h0c0-.084-.062-.135-.2-.135h-.317v.269Z" transform="translate(-65.41 -29.153)" fill="#fff"/>
      <path id="Path_10" data-name="Path 10" d="M90.62,35.792h0a.659.659,0,0,1,1.316,0h0a.64.64,0,0,1-.661.64.633.633,0,0,1-.656-.637m1.027,0h0a.377.377,0,0,0-.375-.389.37.37,0,0,0-.371.385h0a.377.377,0,0,0,.375.389.37.37,0,0,0,.371-.385" transform="translate(-75.107 -29.146)" fill="#fff"/>
      <path id="Path_11" data-name="Path 11" d="M104.28,35.176h.567a.493.493,0,0,1,.361.127.389.389,0,0,1,.106.282h0a.383.383,0,0,1-.265.383l.3.443h-.318l-.265-.4h-.214v.4h-.272Zm.548.6c.134,0,.209-.072.209-.171h0c0-.116-.08-.171-.214-.171h-.27v.342Z" transform="translate(-86.429 -29.153)" fill="#fff"/>
      <path id="Path_12" data-name="Path 12" d="M116.31,35.173h.483a.618.618,0,0,1,.659.616h0a.62.62,0,0,1-.659.62h-.483Zm.483.993a.353.353,0,0,0,.373-.37h0a.356.356,0,0,0-.373-.373h-.211v.746Z" transform="translate(-96.4 -29.151)" fill="#fff"/>
      <path id="Path_13" data-name="Path 13" d="M128.95,35.18v1.239h.943v-.243h-.673v-.26h.584v-.241h-.584v-.252h.664V35.18Z" transform="translate(-106.876 -29.158)" fill="#fff"/>
      <path id="Path_14" data-name="Path 14" d="M140.415,35.175h.565a.49.49,0,0,1,.361.127.382.382,0,0,1,.106.282h0a.383.383,0,0,1-.265.383l.3.443h-.318l-.265-.4h-.219v.4h-.272Zm.548.6c.134,0,.209-.072.209-.171h0c0-.116-.082-.171-.214-.171h-.276v.342Z" transform="translate(-116.374 -29.153)" fill="#fff"/>
      <path id="Path_15" data-name="Path 15" d="M152,36.175l.161-.192a.573.573,0,0,0,.37.151c.111,0,.18-.045.18-.118h0c0-.068-.043-.1-.25-.157-.25-.063-.411-.132-.411-.378h0a.387.387,0,0,1,.433-.373.714.714,0,0,1,.46.157l-.142.205a.575.575,0,0,0-.322-.123c-.1,0-.159.048-.159.11h0c0,.08.053.108.267.171.252.065.394.156.394.371h0c0,.245-.188.383-.455.383a.784.784,0,0,1-.526-.207" transform="translate(-125.98 -29.095)" fill="#fff"/>
    </g>
  </g>
</svg>
