<svg width="172" height="63" viewBox="0 0 172 63" fill="none" xmlns="http://www.w3.org/2000/svg">
<path d="M6.24606 53.8311C7.76901 53.8311 8.3831 54.8219 8.3831 55.829C8.3831 56.8607 7.73626 57.7941 6.15599 57.7941H5.22257V59.882H4.01076V53.8311H6.24606ZM6.19693 56.6969C6.86015 56.6969 7.14673 56.2547 7.14673 55.8126C7.14673 55.3623 6.83559 54.9529 6.26244 54.9529H5.22257V56.6969H6.19693ZM20.9372 59.882V53.8311H22.1571V58.7193H25.2276V59.882H20.9372ZM41.3962 59.882L40.9458 58.5719H38.8334L38.3667 59.882H37.0975L39.4065 53.8311H40.3973L42.6735 59.882H41.3962ZM39.8978 55.4769L39.1773 57.4911H40.6019L39.8978 55.4769ZM55.7209 55.002H53.9933V53.8311H58.6768V55.002H56.9491V59.882H55.7209V55.002ZM71.1566 59.882V53.8311H75.1932V54.9774H72.3684V56.3366H74.8493V57.4747H72.3684V59.882H71.1566ZM90.4913 59.9802C88.6899 59.9802 87.3471 58.6129 87.3471 56.877C87.3471 55.1166 88.7309 53.7247 90.4994 53.7247C92.268 53.7247 93.6518 55.1248 93.6518 56.8607C93.6518 58.5883 92.2844 59.9802 90.4913 59.9802ZM90.4994 58.7848C91.5639 58.7848 92.399 57.966 92.3908 56.8607C92.3908 55.7307 91.5393 54.9201 90.4994 54.9201C89.4514 54.9201 88.608 55.7471 88.608 56.8607C88.608 57.966 89.435 58.7848 90.4994 58.7848ZM109.546 59.882L108.269 57.6794H107.549V59.882H106.337V53.8311H108.654C110.07 53.8311 110.725 54.74 110.725 55.7471C110.725 56.4758 110.357 57.2127 109.497 57.5239L110.963 59.882H109.546ZM107.549 54.9529V56.5905H108.539C109.219 56.5905 109.481 56.1811 109.481 55.7635C109.481 55.3295 109.194 54.9529 108.646 54.9529H107.549ZM123.559 59.882V53.8311H124.361L126.736 57.2619L129.086 53.8311H129.905V59.882H128.693V56.4513L126.932 58.9813H126.515L124.754 56.4513V59.882H123.559Z" fill="#102C57"/>
<path d="M160.183 3.02997H158.439V1.94917H163.057V3.02997H161.313V8.00003H160.183V3.02997ZM163.866 8.00003V1.94917H164.57L166.994 5.47816L169.409 1.94917H170.122V8.00003H169.008V4.41373L167.174 7.06661H166.806L164.972 4.41373V8.00003H163.866Z" fill="#102C57"/>
<path d="M24.7145 37.7532C23.7784 40.0414 22.461 41.8096 20.7621 43.0577C19.0633 44.3059 16.515 44.9299 13.1173 44.9299C8.85284 44.9299 5.76718 43.6298 3.86031 41.0295C1.95344 38.3946 1 34.3035 1 28.7562V23.6597C1 18.1124 1.95344 14.0386 3.86031 11.4384C5.76718 8.80341 8.85284 7.48593 13.1173 7.48593C16.515 7.48593 19.0633 8.11 20.7621 9.35813C22.461 10.6063 23.7784 12.3745 24.7145 14.6627L23.3104 15.3388C22.513 13.3279 21.3862 11.7851 19.93 10.7103C18.4739 9.60083 16.203 9.0461 13.1173 9.0461C11.4184 9.0461 9.96229 9.27146 8.74883 9.72217C7.53537 10.1382 6.44325 10.8663 5.47248 11.9064C4.50171 12.9465 3.77363 14.4547 3.28824 16.4309C2.80286 18.3724 2.56017 20.782 2.56017 23.6597V28.7562C2.56017 31.6338 2.80286 34.0608 3.28824 36.037C3.77363 37.9785 4.50171 39.4694 5.47248 40.5095C6.44325 41.5496 7.53537 42.295 8.74883 42.7457C9.96229 43.1617 11.4184 43.3698 13.1173 43.3698C16.203 43.3698 18.4739 42.8324 19.93 41.7576C21.3862 40.6481 22.513 39.088 23.3104 37.0771L24.7145 37.7532Z" fill="#102C57"/>
<path d="M39.3475 14.2467V29.3283C39.3475 34.4942 40.1623 38.1345 41.7918 40.2494C43.4559 42.3297 45.7269 43.3698 48.6045 43.3698C51.4821 43.3698 53.7357 42.3297 55.3652 40.2494C57.0294 38.1345 57.8615 34.4942 57.8615 29.3283V14.2467H59.4217V29.3283C59.4217 39.7294 55.8159 44.9299 48.6045 44.9299C41.3931 44.9299 37.7873 39.7294 37.7873 29.3283V14.2467H39.3475Z" fill="#102C57"/>
<path d="M82.1167 44.4099H74.6279V14.2467H80.3485C84.4396 14.2467 87.5253 14.9574 89.6055 16.3789C91.7204 17.8004 92.7778 19.7419 92.7778 22.2035C92.7778 25.1505 90.308 27.2827 87.7077 28.6002C89.6146 29.2589 92.2058 30.247 93.1419 31.5645C94.078 32.8473 94.546 34.3381 94.546 36.037C94.546 38.5333 93.5059 40.5615 91.4257 42.1216C89.3801 43.6471 86.2771 44.4099 82.1167 44.4099ZM82.1167 42.8497C85.1677 42.8497 87.7333 42.295 89.8135 41.1855C91.9284 40.0761 92.9859 38.3599 92.9859 36.037C92.9859 34.9622 92.5872 33.8007 91.7897 32.5526C90.9923 31.2698 88.5918 30.3337 86.9276 29.7443L84.2234 28.8082L86.7196 27.5081C87.5864 27.0574 89.5188 26.3813 90.1776 25.4799C90.871 24.5438 91.2177 23.4516 91.2177 22.2035C91.2177 20.0193 90.1776 18.4071 88.0973 17.367C86.0171 16.3269 83.4342 15.8068 80.3485 15.8068H76.1881V42.8497H82.1167Z" fill="#102C57"/>
<path d="M115.847 44.4099H108.358V14.2467H114.079C118.17 14.2467 121.256 14.9574 123.336 16.3789C125.451 17.8004 126.508 19.7419 126.508 22.2035C126.508 25.1505 124.038 27.2827 121.438 28.6002C123.345 29.2589 125.936 30.247 126.872 31.5645C127.808 32.8473 128.276 34.3381 128.276 36.037C128.276 38.5333 127.236 40.5615 125.156 42.1216C123.111 43.6471 120.008 44.4099 115.847 44.4099ZM115.847 42.8497C118.898 42.8497 121.464 42.295 123.544 41.1855C125.659 40.0761 126.716 38.3599 126.716 36.037C126.716 34.9622 126.318 33.8007 125.52 32.5526C124.723 31.2698 122.322 30.3337 120.658 29.7443L117.954 28.8082L120.45 27.5081C121.317 27.0574 123.249 26.3813 123.908 25.4799C124.601 24.5438 124.948 23.4516 124.948 22.2035C124.948 20.0193 123.908 18.4071 121.828 17.367C119.748 16.3269 117.165 15.8068 114.079 15.8068H109.918V42.8497H115.847Z" fill="#102C57"/>
<path d="M24.7145 37.7532C23.7784 40.0414 22.461 41.8096 20.7621 43.0577C19.0633 44.3059 16.515 44.9299 13.1173 44.9299C8.85284 44.9299 5.76718 43.6298 3.86031 41.0295C1.95344 38.3946 1 34.3035 1 28.7562V23.6597C1 18.1124 1.95344 14.0386 3.86031 11.4384C5.76718 8.80341 8.85284 7.48593 13.1173 7.48593C16.515 7.48593 19.0633 8.11 20.7621 9.35813C22.461 10.6063 23.7784 12.3745 24.7145 14.6627L23.3104 15.3388C22.513 13.3279 21.3862 11.7851 19.93 10.7103C18.4739 9.60083 16.203 9.0461 13.1173 9.0461C11.4184 9.0461 9.96229 9.27146 8.74883 9.72217C7.53537 10.1382 6.44325 10.8663 5.47248 11.9064C4.50171 12.9465 3.77363 14.4547 3.28824 16.4309C2.80286 18.3724 2.56017 20.782 2.56017 23.6597V28.7562C2.56017 31.6338 2.80286 34.0608 3.28824 36.037C3.77363 37.9785 4.50171 39.4694 5.47248 40.5095C6.44325 41.5496 7.53537 42.295 8.74883 42.7457C9.96229 43.1617 11.4184 43.3698 13.1173 43.3698C16.203 43.3698 18.4739 42.8324 19.93 41.7576C21.3862 40.6481 22.513 39.088 23.3104 37.0771L24.7145 37.7532Z" stroke="#102C57" stroke-width="1.1697"/>
<path d="M39.3475 14.2467V29.3283C39.3475 34.4942 40.1623 38.1345 41.7918 40.2494C43.4559 42.3297 45.7269 43.3698 48.6045 43.3698C51.4821 43.3698 53.7357 42.3297 55.3652 40.2494C57.0294 38.1345 57.8615 34.4942 57.8615 29.3283V14.2467H59.4217V29.3283C59.4217 39.7294 55.8159 44.9299 48.6045 44.9299C41.3931 44.9299 37.7873 39.7294 37.7873 29.3283V14.2467H39.3475Z" stroke="#102C57" stroke-width="1.1697"/>
<path d="M82.1167 44.4099H74.6279V14.2467H80.3485C84.4396 14.2467 87.5253 14.9574 89.6055 16.3789C91.7204 17.8004 92.7778 19.7419 92.7778 22.2035C92.7778 25.1505 90.308 27.2827 87.7077 28.6002C89.6146 29.2589 92.2058 30.247 93.1419 31.5645C94.078 32.8473 94.546 34.3381 94.546 36.037C94.546 38.5333 93.5059 40.5615 91.4257 42.1216C89.3801 43.6471 86.2771 44.4099 82.1167 44.4099ZM82.1167 42.8497C85.1677 42.8497 87.7333 42.295 89.8135 41.1855C91.9284 40.0761 92.9859 38.3599 92.9859 36.037C92.9859 34.9622 92.5872 33.8007 91.7897 32.5526C90.9923 31.2698 88.5918 30.3337 86.9276 29.7443L84.2234 28.8082L86.7196 27.5081C87.5864 27.0574 89.5188 26.3813 90.1776 25.4799C90.871 24.5438 91.2177 23.4516 91.2177 22.2035C91.2177 20.0193 90.1776 18.4071 88.0973 17.367C86.0171 16.3269 83.4342 15.8068 80.3485 15.8068H76.1881V42.8497H82.1167Z" stroke="#102C57" stroke-width="1.1697"/>
<path d="M115.847 44.4099H108.358V14.2467H114.079C118.17 14.2467 121.256 14.9574 123.336 16.3789C125.451 17.8004 126.508 19.7419 126.508 22.2035C126.508 25.1505 124.038 27.2827 121.438 28.6002C123.345 29.2589 125.936 30.247 126.872 31.5645C127.808 32.8473 128.276 34.3381 128.276 36.037C128.276 38.5333 127.236 40.5615 125.156 42.1216C123.111 43.6471 120.008 44.4099 115.847 44.4099ZM115.847 42.8497C118.898 42.8497 121.464 42.295 123.544 41.1855C125.659 40.0761 126.716 38.3599 126.716 36.037C126.716 34.9622 126.318 33.8007 125.52 32.5526C124.723 31.2698 122.322 30.3337 120.658 29.7443L117.954 28.8082L120.45 27.5081C121.317 27.0574 123.249 26.3813 123.908 25.4799C124.601 24.5438 124.948 23.4516 124.948 22.2035C124.948 20.0193 123.908 18.4071 121.828 17.367C119.748 16.3269 117.165 15.8068 114.079 15.8068H109.918V42.8497H115.847Z" stroke="#102C57" stroke-width="1.1697"/>
<path d="M146.833 14.2466H164.035L151.814 43.1097V54.8109H150.254V43.1097L138.032 14.2466H139.697L151.034 40.9255L161.695 15.8068H146.833V14.2466Z" fill="#D9C0A3"/>
<path d="M146.833 14.2466H164.035L151.814 43.1097V54.8109H150.254V43.1097L138.032 14.2466H139.697L151.034 40.9255L161.695 15.8068H146.833V14.2466Z" stroke="#D9C0A3" stroke-width="1.1697"/>
</svg>
