<svg version="1.1" id="Layer_1" xmlns="http://www.w3.org/2000/svg" x="0" y="0" viewBox="0 0 152.3 18.6" xml:space="preserve"><style>.st0{fill:#fff}</style><g id="Group_6073-2" transform="translate(677.978 833.502)"><path id="Path_13079" class="st0" d="M-598.2-827v-1.9h-.7v-.4h1.8v.4h-.7v1.9h-.4z"/><path id="Path_13080" class="st0" d="M-596.8-827v-2.2h.7l.4 1.5.4-1.5h.7v2.2h-.4v-1.8l-.4 1.8h-.4l-.4-1.8v1.8h-.6z"/></g><path id="Path_13081_00000161622788038725395000000013935420637706605731_" class="st0" d="M15.4 10.3H7.9c.3 1.3 1.6 2.3 2.9 2.1 1.2 0 2.3-.4 3.2-1l1 1.8c-1.3.9-2.8 1.4-4.4 1.4-3.8 0-5.4-2.6-5.4-5.2-.1-2.8 2-5.1 4.8-5.3h.4c2.6-.2 4.9 1.8 5 4.5v.6c.1.4.1.7 0 1.1zM7.9 8.4H13c-.2-1.2-1.3-2.1-2.5-2.1-1.3 0-2.4.9-2.6 2.1z"/><path id="Path_13082_00000032637515879729395080000011364346838332862655_" class="st0" d="M16.2 4.4h2.5v1.4c.7-1.1 1.9-1.7 3.1-1.7 2.1-.1 3.9 1.6 3.9 3.7v6.6h-2.6V9c0-1.6-.9-2.5-2.1-2.5-1.3 0-2.3 1-2.3 2.3v5.6h-2.6l.1-10z"/><path id="Path_13083_00000060715028576331436770000012356580799601085592_" class="st0" d="M34.1 13.8c-.9.5-1.9.8-3 .8-2.3 0-3.5-1.4-3.5-4v-4H26V4.4h1.7V.9h2.6v3.6h3.3v2.2h-3.3v4c0 1.2.4 1.8 1.4 1.8.6 0 1.2-.2 1.7-.5l.7 1.8z"/><path id="Path_13084" class="st0" d="M43.7 10.3h-7.5c.3 1.3 1.6 2.3 2.9 2.1 1.2 0 2.3-.4 3.2-1l1 1.8c-1.3.9-2.8 1.4-4.4 1.4-3.8 0-5.4-2.6-5.4-5.2-.1-2.8 2-5.1 4.8-5.3h.4c2.6-.2 4.9 1.8 5 4.5v.6c.1.4 0 .7 0 1.1zm-7.5-1.9h5.1c-.2-1.2-1.3-2.1-2.5-2.1-1.3 0-2.4.9-2.6 2.1z"/><path id="Path_13085" class="st0" d="M60.8 9.4c-.1-2.8 2.1-5.2 5-5.3h.4c2-.1 3.8 1 4.7 2.8L68.8 8c-.5-.9-1.5-1.5-2.6-1.5-1.6 0-2.9 1.3-2.9 2.8 0 1.6 1.3 2.9 2.8 2.9 1.1 0 2-.6 2.6-1.5l2.1 1.2c-1 1.7-2.8 2.7-4.7 2.6-2.8.1-5.2-2-5.3-4.8v-.3z"/><path id="Path_13086" class="st0" d="M79 13.8c-.9.5-1.9.8-3 .8-2.3 0-3.5-1.4-3.5-4v-4h-1.6V4.4h1.7V.9h2.6v3.6h3.3v2.2h-3.3v4c0 1.2.4 1.8 1.4 1.8.6 0 1.2-.2 1.7-.5l.7 1.8z"/><path id="Path_13087" class="st0" d="M50.7 4.5v2.2c0 .2-.2.3-.3.3-1.4.5-2.4 1.7-2.7 3.1-.1.4-.1.8-.1 1.3v3h-2.8v-2.9c0-.8.1-1.6.5-2.3.9-2.1 2.7-3.8 4.9-4.6.1 0 .3-.1.5-.1z"/><path id="Path_13088" class="st0" d="M44.8 8.2V4.1h2.7c.1.4 0 .8-.3 1-1 .7-1.7 1.6-2.2 2.7 0 .2-.1.3-.2.4z"/><path id="Path_13089" class="st0" d="M59.9 7.7c.1-1.5-.8-2.9-2.3-3.5-1.8-.7-3.8-.7-5.6 0-.1 0-.2.1-.2.2v2.1c.2-.1.4-.2.6-.2 1.2-.4 2.5-.3 3.6.1.9.3 1.4 1.2 1.1 2.1l-1.5-.3c-.5-.1-1-.1-1.6 0-1.7.1-3.1.9-3.2 3-.2 1.2.4 2.4 1.5 3 1.4.7 3.1.5 4.4-.4.1-.1.2-.2.4-.3v1h2.6v-.1c.2-2.3.2-4.5.2-6.7zm-4.1 4.9c-1.7.4-2.7 0-2.7-1.3s1.2-1.6 2.3-1.5c.5 0 1.1.1 1.6.2 0 .1.5 2.2-1.2 2.6z"/><g id="Group_6074" transform="translate(683.433 833.447)"><path id="Path_13090" class="st0" d="M-591.3-829.2c1.2 0 2.4.5 3.2 1.5.8 1 1.2 2.2 1.2 3.5v.6h-7.8c.1.9.5 1.7 1.2 2.2.7.6 1.5.9 2.4.8.6 0 1.2-.1 1.8-.4.5-.3.9-.7 1.1-1.1l1 .6c-.4.7-.9 1.2-1.6 1.6-.7.4-1.5.6-2.3.6-1.3 0-2.5-.5-3.4-1.4-.9-.9-1.4-2.2-1.3-3.5 0-1.3.4-2.5 1.3-3.5.7-1 1.9-1.5 3.2-1.5zm0 1.2c-.9 0-1.7.3-2.3.9-.6.6-1 1.4-1.1 2.2h6.7c-.1-.9-.5-1.7-1.1-2.3-.7-.5-1.4-.8-2.2-.8z"/><path id="Path_13091" class="st0" d="M-581.6-829.2c1 0 1.9.3 2.6 1 .7.8 1 1.8.9 2.8v5.7h-1.2v-5.7c0-.7-.2-1.4-.6-1.9-.5-.5-1.1-.7-1.8-.7-.8 0-1.5.3-2.1.8-.6.7-.9 1.7-.8 2.6v4.9h-1.2v-9.3h1.2v1.5c.6-1.1 1.8-1.7 3-1.7z"/><path id="Path_13092" class="st0" d="M-568.9-829h1.2v8.9c.1 1.2-.4 2.4-1.3 3.2-.9.8-2 1.2-3.2 1.2-2.1 0-3.5-.8-4.2-2.3l1-.6c.5 1.1 1.6 1.7 3.2 1.7.9 0 1.8-.3 2.4-.8.6-.6.9-1.4.9-2.3v-1.5c-.7 1.3-2.1 2.1-3.6 2-1.2 0-2.4-.5-3.3-1.4-1.8-2-1.8-5 0-6.9.8-.9 2-1.4 3.3-1.4 1.5-.1 2.9.7 3.6 2v-1.8zm-6.1 7.3c1.3 1.4 3.5 1.4 4.9.1l.1-.1c1.4-1.5 1.4-3.7 0-5.2-1.3-1.4-3.5-1.4-4.9-.1l-.1.1c-1.3 1.4-1.3 3.7 0 5.2z"/><path id="Path_13093" class="st0" d="M-558.4-829h1.2v9.3h-1.2v-1.8c-.7 1.3-2.1 2.1-3.6 2-1.2 0-2.4-.5-3.3-1.4-1.8-2-1.8-5 0-6.9.8-.9 2-1.4 3.3-1.4 1.5-.1 2.9.7 3.6 2v-1.8zm-6 7.3c1.3 1.4 3.5 1.4 4.9.1l.1-.1c1.4-1.5 1.4-3.7 0-5.2-1.3-1.4-3.5-1.4-4.9-.1l-.1.1c-1.4 1.4-1.4 3.7 0 5.2z"/><path id="Path_13094" class="st0" d="M-547.8-829h1.2v8.9c.1 1.2-.4 2.4-1.3 3.2-.9.8-2 1.2-3.2 1.2-2.1 0-3.5-.8-4.2-2.3l1-.6c.5 1.1 1.6 1.7 3.2 1.7.9 0 1.8-.3 2.4-.8.6-.6.9-1.4.9-2.3v-1.5c-.7 1.3-2.1 2.1-3.6 2-1.2 0-2.4-.5-3.3-1.4-1.8-2-1.8-5 0-6.9.8-.9 2-1.4 3.3-1.4 1.5-.1 2.9.7 3.6 2v-1.8zm-6 7.3c1.3 1.4 3.5 1.4 4.9.1l.1-.1c1.4-1.5 1.4-3.7 0-5.2-1.3-1.4-3.5-1.4-4.9-.1l-.1.1c-1.4 1.4-1.4 3.7 0 5.2z"/><path id="Path_13095" class="st0" d="M-540.8-829.2c1.2 0 2.4.5 3.2 1.5.8 1 1.2 2.2 1.2 3.5v.6h-7.8c.1.9.5 1.7 1.2 2.2.7.6 1.5.9 2.4.8.6 0 1.2-.1 1.8-.4.5-.3.9-.7 1.1-1.1l1 .6c-.4.7-.9 1.2-1.6 1.6-.7.4-1.5.6-2.3.6-1.3 0-2.5-.5-3.4-1.4-.9-.9-1.4-2.2-1.3-3.5 0-1.3.4-2.5 1.3-3.5.7-1 1.9-1.5 3.2-1.5zm0 1.2c-.9 0-1.7.3-2.3.9-.6.6-1 1.4-1.1 2.2h6.7c-.1-.9-.5-1.7-1.1-2.3-.6-.5-1.4-.8-2.2-.8z"/></g><g id="Group_6069_00000046319447523920282100000010456977998931916685_" transform="translate(845.69 946.866)"><g id="Group_6068_00000073692441509262569730000000020500545338825379_"><path id="Path_13081_00000018926539893167576430000015219358094616013247_" class="st0" d="M-761.3-933.4c-.6.6-1.6.7-2.3 0-.6-.7-.6-1.7 0-2.4.6-.6 1.6-.7 2.3 0 .6.7.6 1.8 0 2.4z"/></g></g></svg>