<?xml version="1.0" encoding="utf-8"?>
<!-- Generator: Adobe Illustrator 24.0.2, SVG Export Plug-In . SVG Version: 6.00 Build 0)  -->
<svg version="1.1" id="Layer_1" xmlns="http://www.w3.org/2000/svg" xmlns:xlink="http://www.w3.org/1999/xlink" x="0px" y="0px"
	 viewBox="0 0 318 305" style="enable-background:new 0 0 318 305;" xml:space="preserve">
<style type="text/css">
	.st0{fill:#FFFFFF;filter:url(#Adobe_OpacityMaskFilter);}
	.st1{mask:url(#a_1_);}
	.st2{fill:#FFFFFF;}
	.st3{opacity:0.2;clip-path:url(#SVGID_2_);fill:#5F91FF;}
	.st4{opacity:0.4;clip-path:url(#SVGID_2_);}
	.st5{fill:#5F91FF;}
</style>
<defs>
	<filter id="Adobe_OpacityMaskFilter">
		<feColorMatrix  type="matrix" values="1 0 0 0 0  0 1 0 0 0  0 0 1 0 0  0 0 0 1 0"/>
	</filter>
</defs>
<mask maskUnits="userSpaceOnUse" x="0" y="0" width="0" height="0" id="a_1_">
	<path class="st0" d="M6,0h306c3.3,0,6,2.7,6,6v293c0,3.3-2.7,6-6,6H6c-3.3,0-6-2.7-6-6V6C0,2.7,2.7,0,6,0z"/>
</mask>
<g class="st1">
	<path class="st2" d="M0,0"/>
	<path class="st2" d="M0,0"/>
</g>
<g>
	<defs>
		<rect id="SVGID_1_" x="0" y="0" width="318" height="305"/>
	</defs>
	<clipPath id="SVGID_2_">
		<use xlink:href="#SVGID_1_"  style="overflow:visible;"/>
	</clipPath>
	<path class="st3" d="M79,75.9L54.8-74.6c-0.6-3.5,3.3-5.9,6.2-3.8l87.6,63.1c1.8,1.3,2.2,3.7,0.9,5.5L86,77.6
		C84,80.4,79.5,79.3,79,75.9z"/>
	<path class="st3" d="M0,108.2v-216.5c0-7.1,8.6-10.7,13.6-5.7L122.3-5.7c3.1,3.1,3.1,8.2,0,11.3L13.6,113.9
		C8.6,118.9,0,115.4,0,108.2z"/>
	<g class="st4">
		<path class="st5" d="M314,227.3c1,0,1.8-0.8,1.8-1.8s-0.8-1.8-1.8-1.8s-1.8,0.8-1.8,1.8S313,227.3,314,227.3z"/>
		<path class="st5" d="M314,241.9c1,0,1.8-0.8,1.8-1.8s-0.8-1.8-1.8-1.8s-1.8,0.8-1.8,1.8S313,241.9,314,241.9z"/>
		<path class="st5" d="M314,256.4c1,0,1.8-0.8,1.8-1.8s-0.8-1.8-1.8-1.8s-1.8,0.8-1.8,1.8S313,256.4,314,256.4z"/>
		<path class="st5" d="M314,271c1,0,1.8-0.8,1.8-1.8s-0.8-1.8-1.8-1.8s-1.8,0.8-1.8,1.8S313,271,314,271z"/>
		<path class="st5" d="M314,289.7c1,0,1.8-0.8,1.8-1.8s-0.8-1.8-1.8-1.8s-1.8,0.8-1.8,1.8S313,289.7,314,289.7z"/>
		<path class="st5" d="M298.8,227.3c1,0,1.8-0.8,1.8-1.8s-0.8-1.8-1.8-1.8c-1,0-1.8,0.8-1.8,1.8S297.8,227.3,298.8,227.3z"/>
		<path class="st5" d="M298.8,241.9c1,0,1.8-0.8,1.8-1.8s-0.8-1.8-1.8-1.8c-1,0-1.8,0.8-1.8,1.8S297.8,241.9,298.8,241.9z"/>
		<path class="st5" d="M298.8,256.4c1,0,1.8-0.8,1.8-1.8s-0.8-1.8-1.8-1.8c-1,0-1.8,0.8-1.8,1.8S297.8,256.4,298.8,256.4z"/>
		<path class="st5" d="M298.8,271c1,0,1.8-0.8,1.8-1.8s-0.8-1.8-1.8-1.8c-1,0-1.8,0.8-1.8,1.8S297.8,271,298.8,271z"/>
		<path class="st5" d="M298.8,289.7c1,0,1.8-0.8,1.8-1.8s-0.8-1.8-1.8-1.8c-1,0-1.8,0.8-1.8,1.8S297.8,289.7,298.8,289.7z"/>
		<path class="st5" d="M283.6,227.3c1,0,1.8-0.8,1.8-1.8s-0.8-1.8-1.8-1.8s-1.8,0.8-1.8,1.8S282.6,227.3,283.6,227.3z"/>
		<path class="st5" d="M283.6,241.9c1,0,1.8-0.8,1.8-1.8s-0.8-1.8-1.8-1.8s-1.8,0.8-1.8,1.8S282.6,241.9,283.6,241.9z"/>
		<path class="st5" d="M283.6,256.4c1,0,1.8-0.8,1.8-1.8s-0.8-1.8-1.8-1.8s-1.8,0.8-1.8,1.8S282.6,256.4,283.6,256.4z"/>
		<path class="st5" d="M283.6,271c1,0,1.8-0.8,1.8-1.8s-0.8-1.8-1.8-1.8s-1.8,0.8-1.8,1.8S282.6,271,283.6,271z"/>
		<path class="st5" d="M283.6,289.7c1,0,1.8-0.8,1.8-1.8s-0.8-1.8-1.8-1.8s-1.8,0.8-1.8,1.8S282.6,289.7,283.6,289.7z"/>
		<path class="st5" d="M268.4,227.3c1,0,1.8-0.8,1.8-1.8s-0.8-1.8-1.8-1.8c-1,0-1.8,0.8-1.8,1.8S267.4,227.3,268.4,227.3z"/>
		<path class="st5" d="M268.4,241.9c1,0,1.8-0.8,1.8-1.8s-0.8-1.8-1.8-1.8c-1,0-1.8,0.8-1.8,1.8S267.4,241.9,268.4,241.9z"/>
		<path class="st5" d="M268.4,256.4c1,0,1.8-0.8,1.8-1.8s-0.8-1.8-1.8-1.8c-1,0-1.8,0.8-1.8,1.8S267.4,256.4,268.4,256.4z"/>
		<path class="st5" d="M268.4,271c1,0,1.8-0.8,1.8-1.8s-0.8-1.8-1.8-1.8c-1,0-1.8,0.8-1.8,1.8S267.4,271,268.4,271z"/>
		<path class="st5" d="M268.4,289.7c1,0,1.8-0.8,1.8-1.8s-0.8-1.8-1.8-1.8c-1,0-1.8,0.8-1.8,1.8S267.4,289.7,268.4,289.7z"/>
		<path class="st5" d="M253.2,227.3c1,0,1.8-0.8,1.8-1.8s-0.8-1.8-1.8-1.8c-1,0-1.8,0.8-1.8,1.8S252.2,227.3,253.2,227.3z"/>
		<path class="st5" d="M253.2,241.9c1,0,1.8-0.8,1.8-1.8s-0.8-1.8-1.8-1.8c-1,0-1.8,0.8-1.8,1.8S252.2,241.9,253.2,241.9z"/>
		<path class="st5" d="M253.2,256.4c1,0,1.8-0.8,1.8-1.8s-0.8-1.8-1.8-1.8c-1,0-1.8,0.8-1.8,1.8S252.2,256.4,253.2,256.4z"/>
		<path class="st5" d="M253.2,271c1,0,1.8-0.8,1.8-1.8s-0.8-1.8-1.8-1.8c-1,0-1.8,0.8-1.8,1.8S252.2,271,253.2,271z"/>
		<path class="st5" d="M253.2,289.7c1,0,1.8-0.8,1.8-1.8s-0.8-1.8-1.8-1.8c-1,0-1.8,0.8-1.8,1.8S252.2,289.7,253.2,289.7z"/>
		<path class="st5" d="M314,302.2c1,0,1.8-0.8,1.8-1.8c0-1-0.8-1.8-1.8-1.8s-1.8,0.8-1.8,1.8C312.2,301.4,313,302.2,314,302.2z"/>
		<path class="st5" d="M314,316.8c1,0,1.8-0.8,1.8-1.8s-0.8-1.8-1.8-1.8s-1.8,0.8-1.8,1.8S313,316.8,314,316.8z"/>
		<path class="st5" d="M314,331.4c1,0,1.8-0.8,1.8-1.8s-0.8-1.8-1.8-1.8s-1.8,0.8-1.8,1.8S313,331.4,314,331.4z"/>
		<path class="st5" d="M314,346c1,0,1.8-0.8,1.8-1.8s-0.8-1.8-1.8-1.8s-1.8,0.8-1.8,1.8S313,346,314,346z"/>
		<path class="st5" d="M314,364.6c1,0,1.8-0.8,1.8-1.8c0-1-0.8-1.8-1.8-1.8s-1.8,0.8-1.8,1.8C312.2,363.9,313,364.6,314,364.6z"/>
		<path class="st5" d="M298.8,302.2c1,0,1.8-0.8,1.8-1.8c0-1-0.8-1.8-1.8-1.8c-1,0-1.8,0.8-1.8,1.8
			C297,301.4,297.8,302.2,298.8,302.2z"/>
		<path class="st5" d="M298.8,316.8c1,0,1.8-0.8,1.8-1.8s-0.8-1.8-1.8-1.8c-1,0-1.8,0.8-1.8,1.8S297.8,316.8,298.8,316.8z"/>
		<path class="st5" d="M298.8,331.4c1,0,1.8-0.8,1.8-1.8s-0.8-1.8-1.8-1.8c-1,0-1.8,0.8-1.8,1.8S297.8,331.4,298.8,331.4z"/>
		<path class="st5" d="M298.8,346c1,0,1.8-0.8,1.8-1.8s-0.8-1.8-1.8-1.8c-1,0-1.8,0.8-1.8,1.8S297.8,346,298.8,346z"/>
		<path class="st5" d="M298.8,364.6c1,0,1.8-0.8,1.8-1.8c0-1-0.8-1.8-1.8-1.8c-1,0-1.8,0.8-1.8,1.8
			C297,363.9,297.8,364.6,298.8,364.6z"/>
		<path class="st5" d="M283.6,302.2c1,0,1.8-0.8,1.8-1.8c0-1-0.8-1.8-1.8-1.8s-1.8,0.8-1.8,1.8C281.8,301.4,282.6,302.2,283.6,302.2
			z"/>
		<path class="st5" d="M283.6,316.8c1,0,1.8-0.8,1.8-1.8s-0.8-1.8-1.8-1.8s-1.8,0.8-1.8,1.8S282.6,316.8,283.6,316.8z"/>
		<path class="st5" d="M283.6,331.4c1,0,1.8-0.8,1.8-1.8s-0.8-1.8-1.8-1.8s-1.8,0.8-1.8,1.8S282.6,331.4,283.6,331.4z"/>
		<path class="st5" d="M283.6,346c1,0,1.8-0.8,1.8-1.8s-0.8-1.8-1.8-1.8s-1.8,0.8-1.8,1.8S282.6,346,283.6,346z"/>
		<path class="st5" d="M283.6,364.6c1,0,1.8-0.8,1.8-1.8c0-1-0.8-1.8-1.8-1.8s-1.8,0.8-1.8,1.8C281.8,363.9,282.6,364.6,283.6,364.6
			z"/>
		<path class="st5" d="M268.4,302.2c1,0,1.8-0.8,1.8-1.8c0-1-0.8-1.8-1.8-1.8c-1,0-1.8,0.8-1.8,1.8
			C266.6,301.4,267.4,302.2,268.4,302.2z"/>
		<path class="st5" d="M268.4,316.8c1,0,1.8-0.8,1.8-1.8s-0.8-1.8-1.8-1.8c-1,0-1.8,0.8-1.8,1.8S267.4,316.8,268.4,316.8z"/>
		<path class="st5" d="M268.4,331.4c1,0,1.8-0.8,1.8-1.8s-0.8-1.8-1.8-1.8c-1,0-1.8,0.8-1.8,1.8S267.4,331.4,268.4,331.4z"/>
		<path class="st5" d="M268.4,346c1,0,1.8-0.8,1.8-1.8s-0.8-1.8-1.8-1.8c-1,0-1.8,0.8-1.8,1.8S267.4,346,268.4,346z"/>
		<path class="st5" d="M268.4,364.6c1,0,1.8-0.8,1.8-1.8c0-1-0.8-1.8-1.8-1.8c-1,0-1.8,0.8-1.8,1.8
			C266.6,363.9,267.4,364.6,268.4,364.6z"/>
		<path class="st5" d="M253.2,302.2c1,0,1.8-0.8,1.8-1.8c0-1-0.8-1.8-1.8-1.8c-1,0-1.8,0.8-1.8,1.8
			C251.4,301.4,252.2,302.2,253.2,302.2z"/>
		<path class="st5" d="M253.2,316.8c1,0,1.8-0.8,1.8-1.8s-0.8-1.8-1.8-1.8c-1,0-1.8,0.8-1.8,1.8S252.2,316.8,253.2,316.8z"/>
		<path class="st5" d="M253.2,331.4c1,0,1.8-0.8,1.8-1.8s-0.8-1.8-1.8-1.8c-1,0-1.8,0.8-1.8,1.8S252.2,331.4,253.2,331.4z"/>
		<path class="st5" d="M253.2,346c1,0,1.8-0.8,1.8-1.8s-0.8-1.8-1.8-1.8c-1,0-1.8,0.8-1.8,1.8S252.2,346,253.2,346z"/>
		<path class="st5" d="M253.2,364.6c1,0,1.8-0.8,1.8-1.8c0-1-0.8-1.8-1.8-1.8c-1,0-1.8,0.8-1.8,1.8
			C251.4,363.9,252.2,364.6,253.2,364.6z"/>
	</g>
</g>
</svg>
