<?xml version="1.0" encoding="utf-8"?>
<!-- Generator: Adobe Illustrator 24.0.2, SVG Export Plug-In . SVG Version: 6.00 Build 0)  -->
<svg version="1.1" id="Layer_1" xmlns="http://www.w3.org/2000/svg" xmlns:xlink="http://www.w3.org/1999/xlink" x="0px" y="0px"
	 viewBox="0 0 44 44" style="enable-background:new 0 0 44 44;" xml:space="preserve">
<style type="text/css">
	.st0{fill:#3924B9;}
	.st1{fill:#FFFFFF;}
</style>
<circle class="st0" cx="22" cy="22" r="22"/>
<path class="st0" d="M0,0"/>
<path class="st0" d="M0,0"/>
<path class="st0" d="M0,0"/>
<path class="st0" d="M0,0"/>
<g>
	<path class="st1" d="M31.5,12.5C28.9,10,25.6,8.6,22,8.6v1.6c6.5,0,11.8,5.3,11.8,11.8S28.5,33.8,22,33.8S10.2,28.5,10.2,22
		c0-2.6,0.9-5.1,2.4-7.2c0.2,0.1,0.5,0.1,0.7,0.1c1.3,0,2.4-1.1,2.4-2.4s-1.1-2.4-2.4-2.4S11,11.2,11,12.5c0,0.5,0.1,0.9,0.4,1.3
		C9.6,16.2,8.6,19,8.6,22c0,3.6,1.4,6.9,3.9,9.5c2.5,2.5,5.9,3.9,9.5,3.9s6.9-1.4,9.5-3.9c2.5-2.5,3.9-5.9,3.9-9.5
		S34,15.1,31.5,12.5L31.5,12.5z"/>
	<path class="st1" d="M11.8,22c0,2.6,2.1,4.7,4.7,4.7c1.1,0,2.5-0.7,4.1-2.2c0.6-0.5,1.1-1,1.4-1.4c0.4,0.4,0.9,0.9,1.4,1.4
		c1.6,1.5,3,2.2,4.1,2.2c2.6,0,4.7-2.1,4.7-4.7s-2.1-4.7-4.7-4.7c-1.1,0-2.5,0.7-4.1,2.2c-0.6,0.5-1.1,1-1.4,1.4
		c-0.4-0.4-0.9-0.9-1.4-1.4c-1.6-1.5-3-2.2-4.1-2.2C13.9,17.3,11.8,19.4,11.8,22z M27.5,18.8c1.7,0,3.2,1.4,3.2,3.2
		s-1.4,3.2-3.2,3.2c-1.2,0-3.2-1.8-4.5-3.2C24.3,20.6,26.4,18.8,27.5,18.8z M16.5,18.8c1.2,0,3.2,1.8,4.5,3.2
		c-1.3,1.4-3.3,3.2-4.5,3.2c-1.7,0-3.2-1.4-3.2-3.2S14.7,18.8,16.5,18.8z"/>
</g>
</svg>
