<svg xmlns="http://www.w3.org/2000/svg" width="40" height="42.521" viewBox="0 0 40 42.521">
  <path id="Path_7698" data-name="Path 7698" d="M24.741,42.125l-1.713-4.407H21.956V41.9a.621.621,0,1,1-1.243,0V37.364a.889.889,0,0,1,.888-.888H23.27a.883.883,0,0,1,.828.566l1.8,4.633a.621.621,0,1,1-1.158.45Zm2.7,0-2.566-6.6H15.121l-2.566,6.6a.621.621,0,0,1-1.158-.45L13.875,35.3a1.619,1.619,0,0,1-.8-1.394v-1.19H9.315a.621.621,0,1,1,0-1.243H38.529a.229.229,0,0,0,.228-.228v-.75a.229.229,0,0,0-.228-.228H1.471a.229.229,0,0,0-.228.228v.75a.229.229,0,0,0,.228.228H6.664a.621.621,0,0,1,0,1.243H1.471A1.473,1.473,0,0,1,0,31.244v-.75a1.472,1.472,0,0,1,.85-1.332V6.724A1.472,1.472,0,0,1,0,5.392v-.75A1.473,1.473,0,0,1,1.471,3.171H15.884v-.7A2.474,2.474,0,0,1,18.355,0h3.29a2.474,2.474,0,0,1,2.471,2.471v.7H38.529A1.473,1.473,0,0,1,40,4.642v.75a1.472,1.472,0,0,1-.85,1.332V29.162A1.472,1.472,0,0,1,40,30.493v.75a1.473,1.473,0,0,1-1.471,1.471H26.841V33.9a1.619,1.619,0,0,1-.732,1.354L28.6,41.675a.621.621,0,1,1-1.158.45ZM14.319,33.9a.378.378,0,0,0,.377.377H25.221A.378.378,0,0,0,25.6,33.9v-1.19H14.319ZM2.093,29.022H37.907V6.863H34.233a.621.621,0,1,1,0-1.243h4.3a.229.229,0,0,0,.228-.228v-.75a.229.229,0,0,0-.228-.228H1.471a.229.229,0,0,0-.228.228v.75a.229.229,0,0,0,.228.228H31.582a.621.621,0,1,1,0,1.243H2.093ZM17.127,2.471v.7h5.746v-.7a1.229,1.229,0,0,0-1.228-1.228h-3.29A1.229,1.229,0,0,0,17.127,2.471ZM14.455,42.479a.621.621,0,0,1-.354-.8l1.8-4.633a.883.883,0,0,1,.828-.566H18.4a.889.889,0,0,1,.888.888V41.9a.621.621,0,0,1-1.243,0V37.718H16.973l-1.713,4.407a.621.621,0,0,1-.8.354Zm13.121-15.84-1.043-.757H17.964a3.714,3.714,0,0,1-3.71-3.71v-.955H12.111l-1.043.757a1.134,1.134,0,0,1-1.8-.917V13.334a3.714,3.714,0,0,1,3.71-3.71h7.7a3.714,3.714,0,0,1,3.71,3.71v.955h1.277A3.714,3.714,0,0,1,29.375,18v7.723a1.133,1.133,0,0,1-1.8.917ZM15.5,22.172a2.47,2.47,0,0,0,2.467,2.467h8.77a.622.622,0,0,1,.365.119l1.033.75V18a2.47,2.47,0,0,0-2.467-2.467H24.388v1.976a3.714,3.714,0,0,1-3.71,3.71h-.687a.621.621,0,1,1,0-1.243h.687a2.47,2.47,0,0,0,2.467-2.467V13.334a2.47,2.47,0,0,0-2.467-2.467h-7.7a2.47,2.47,0,0,0-2.467,2.467v7.509l1.034-.75a.621.621,0,0,1,.365-.119h5.432a.621.621,0,1,1,0,1.243H15.5Z" fill="#e84f14"/>
</svg>
