<svg xmlns="http://www.w3.org/2000/svg" width="44.719" height="44.719" viewBox="0 0 44.719 44.719">
  <path id="Path_7763" data-name="Path 7763" d="M.66,44.719A.66.66,0,0,1,0,44.059V41.795a.66.66,0,0,1,.66-.661H2.3L2.537,36.1a.66.66,0,0,1,.66-.629h.5L4.9,10.205a.66.66,0,0,1-.394-.6V7.337a.66.66,0,0,1,.66-.66h7.547a.66.66,0,0,1,.661.66V9.6a.659.659,0,0,1-.39.6l.457,9.653,8.224-.987.411-8.663a.659.659,0,0,1-.392-.6V7.337a.66.66,0,0,1,.66-.66H29.9a.661.661,0,0,1,.66.66V9.6a.66.66,0,0,1-.391.6l.362,7.6L43.98,16.186a.66.66,0,0,1,.158,1.311l-1.683.2V41.134h1.6a.66.66,0,0,1,.661.661v2.264a.661.661,0,0,1-.661.661ZM1.321,43.4H43.4v-.944H1.321Zm35.447-9.812a.66.66,0,0,1,.66.66v6.887h3.705V17.858L9.6,21.648V41.134H24.711V34.247a.66.66,0,0,1,.66-.66H29.9a.66.66,0,0,1,.661.66v6.887h1.019V34.247a.66.66,0,0,1,.66-.66ZM32.9,41.134h3.208V34.907H32.9Zm-6.868,0H29.24V34.907H26.032Zm-22.414,0H8.283v-4.34H3.826Zm1.4-5.661H8.283V21.806l-1.526.184a.694.694,0,0,1-.08,0A.661.661,0,0,1,6.6,20.678l5.531-.665-.462-9.751H6.226ZM23,18.707l6.213-.747-.367-7.7H23.4Zm.012-9.766H29.24V8H23.013Zm-17.182,0h6.227V8H5.833Zm7.641,23.766a.66.66,0,0,1,0-1.321h7.548a.66.66,0,0,1,0,1.321Zm19.9-1.132a.66.66,0,0,1-.661-.66V28.649a.66.66,0,0,1,.661-.66h2.264a.66.66,0,0,1,.661.66v2.264a.66.66,0,0,1-.661.66Zm.66-1.321h.944V29.31h-.944ZM26.5,31.574a.66.66,0,0,1-.66-.66V28.649a.66.66,0,0,1,.66-.66h2.264a.66.66,0,0,1,.66.66v2.264a.66.66,0,0,1-.66.66Zm.661-1.321h.943V29.31h-.943Zm-13.692.189a.66.66,0,0,1,0-1.321h7.548a.66.66,0,0,1,0,1.321Zm0-2.264a.66.66,0,0,1,0-1.321h7.548a.66.66,0,0,1,0,1.321Zm25.4-3.371V22.543a.66.66,0,0,1,1.321,0v2.264a.66.66,0,0,1-1.321,0ZM26.595,5.189a2.928,2.928,0,0,1,2.925-2.925h1.992a.66.66,0,0,1,0,1.321H29.519a1.605,1.605,0,0,0-1.6,1.6.66.66,0,0,1-1.321,0Zm-2.071.467a.658.658,0,0,1-.193-.467A5.2,5.2,0,0,1,29.519,0h3.713a.66.66,0,0,1,0,1.321H29.519a3.872,3.872,0,0,0-3.868,3.868.661.661,0,0,1-1.128.467ZM9.415,5.189a2.928,2.928,0,0,1,2.924-2.925h4.3a.66.66,0,0,1,0,1.321h-4.3a1.605,1.605,0,0,0-1.6,1.6.66.66,0,0,1-1.321,0Zm-1.6.66a.66.66,0,0,1-.66-.66A5.194,5.194,0,0,1,12.339,0h1.743a.66.66,0,1,1,0,1.321H12.339A3.873,3.873,0,0,0,8.472,5.189a.66.66,0,0,1-.66.66ZM34.294,3.585a.66.66,0,1,1,0-1.321h3.481a.66.66,0,0,1,0,1.321Zm-14.869,0a.66.66,0,0,1,0-1.321h1.17a.66.66,0,0,1,0,1.321Zm17.44-2.264a.66.66,0,0,1,0-1.321h.91a.66.66,0,0,1,0,1.321Zm-19.9,0a.66.66,0,0,1,0-1.321h3.626a.66.66,0,0,1,0,1.321Z" fill="#e84f14"/>
</svg>
