<svg xmlns="http://www.w3.org/2000/svg" width="51.207" height="56" viewBox="0 0 51.207 56">
  <path id="Path_7759" data-name="Path 7759" d="M72.215,11.061H44.76A5.118,5.118,0,0,0,39.8,7.189h-.356L36.638.55a.9.9,0,0,0-1.661,0L32.169,7.189H30a.9.9,0,0,0-.9.9v2.97H22.812a.9.9,0,0,0-.9.9v7.19a.9.9,0,0,0,.9.9H29.1V22.1a.9.9,0,0,0,.9.9h1.311V49.4h-6.1a.9.9,0,0,0-.9.9V55.1a.9.9,0,0,0,.9.9H37.777a.9.9,0,0,0,0-1.8H26.11v-2.99h19.4V54.2H40.662a.9.9,0,1,0,0,1.8h5.746a.9.9,0,0,0,.9-.9V50.305a.9.9,0,0,0-.9-.9H40.3V23h3.707a.9.9,0,0,0,.9-.9V20.053H66.89v8.18h-.541a.9.9,0,0,0,0,1.8h.541v2.3a.9.9,0,0,0,.9.9,1.633,1.633,0,1,1-1.633,1.633.9.9,0,0,0-1.8,0,3.436,3.436,0,1,0,4.338-3.316V30.036h.541a.9.9,0,1,0,0-1.8h-.541v-8.18h3.523a.9.9,0,0,0,.9-.9V11.962A.9.9,0,0,0,72.215,11.061Zm-48.5,7.189V14.139l4.111,4.111ZM29.1,16.975l-4.111-4.111H29.1ZM35.808,3.216l1.681,3.974H34.127ZM38.5,49.4H34.39L38.5,45.293Zm-5.386-1.275V38.1l5.013,5.013ZM38.5,40.939l-5.013-5.013L38.5,30.914ZM33.115,33.75V24.278l4.736,4.736ZM38.5,27.114,34.39,23H38.5Zm4.609-10.032H36.617V14.409a.9.9,0,0,0-1.8,0v3.574a.9.9,0,0,0,.9.9h7.394V21.2H30.9V8.993h3.911v2.472a.9.9,0,1,0,1.8,0V8.993H39.8A3.31,3.31,0,0,1,43.109,12.3v4.783Zm1.8-.107V12.864h4.111Zm1.275,1.275,4.736-4.736L55.66,18.25Zm6.636-5.386H62.849l-5.013,5.013Zm7.189,5.386,5.013-5.013,5.013,5.013Zm11.3-1.275L67.2,12.864h4.111Z" transform="translate(-21.91)" fill="#e84f14"/>
</svg>
