<svg xmlns="http://www.w3.org/2000/svg" width="42.55" height="42.548" viewBox="0 0 42.55 42.548">
  <path id="Path_7760" data-name="Path 7760" d="M30.883,42.548a.686.686,0,0,1-.686-.687V30.881a.686.686,0,0,1,.686-.686h4.8V26.763H35a.686.686,0,0,1-.686-.686V25.39H23.334v.686a.686.686,0,0,1-.686.686h-.686v3.432h4.8a.686.686,0,0,1,.686.686v10.98a.686.686,0,0,1-.686.687H15.785a.687.687,0,0,1-.687-.687V30.881a.686.686,0,0,1,.687-.686h4.8V26.763H19.9a.686.686,0,0,1-.686-.686V25.39H8.235v.686a.686.686,0,0,1-.686.686H6.863v3.432h4.8a.686.686,0,0,1,.686.686v10.98a.686.686,0,0,1-.686.687H.686A.686.686,0,0,1,0,41.861V30.881a.686.686,0,0,1,.686-.686h4.8V26.763H4.8a.686.686,0,0,1-.686-.686V23.331a.686.686,0,0,1,.686-.686H7.549a.686.686,0,0,1,.686.686v.687H19.216v-.687a.687.687,0,0,1,.686-.686h.686v-4.3l-8.437-2.6a.686.686,0,0,1-.485-.656V4.115a.686.686,0,0,1,.279-.549,1.241,1.241,0,0,1,.161-.089L21.029.045a.7.7,0,0,1,.492,0l8.922,3.432a1.241,1.241,0,0,1,.161.089.688.688,0,0,1,.279.549V15.1a.686.686,0,0,1-.484.656l-8.437,2.6v4.3h.686a.687.687,0,0,1,.686.686v.687H34.315v-.687A.686.686,0,0,1,35,22.645h2.745a.686.686,0,0,1,.686.686v2.746a.686.686,0,0,1-.686.686H37.06v3.432h4.8a.686.686,0,0,1,.686.686v10.98a.687.687,0,0,1-.686.687Zm.686-1.373h9.608V31.567H31.569Zm-15.1,0h9.608V31.567H16.471Zm-15.1,0h9.608V31.567H1.372ZM35.687,25.39H37.06V24.018H35.687Zm-15.1,0h1.373V24.018H20.589Zm-15.1,0H6.863V24.018H5.49ZM21.962,7.368v9.544l7.549-2.323V5.045ZM13.04,14.589l7.549,2.323V7.368L13.04,5.045ZM14.453,4.046l6.822,2.1,6.823-2.1L21.275,1.419ZM39.119,40.489a.686.686,0,0,1,0-1.372H39.8a.686.686,0,1,1,0,1.372Zm-6.177,0a.686.686,0,1,1,0-1.372H37.06a.686.686,0,0,1,0,1.372Zm1.373-4.117a2.059,2.059,0,1,1,2.059,2.059A2.059,2.059,0,0,1,34.315,36.371Zm1.372,0a.686.686,0,1,0,.686-.687A.686.686,0,0,0,35.687,36.371Zm-16.471,0a2.059,2.059,0,1,1,2.059,2.059A2.059,2.059,0,0,1,19.216,36.371Zm1.372,0a.687.687,0,1,0,.686-.687A.687.687,0,0,0,20.589,36.371Zm-16.471,0A2.059,2.059,0,1,1,6.177,38.43,2.059,2.059,0,0,1,4.118,36.371Zm1.372,0a.686.686,0,1,0,.686-.687A.686.686,0,0,0,5.49,36.371Z" fill="#e84f14"/>
</svg>
