<svg xmlns="http://www.w3.org/2000/svg" width="50.498" height="45" viewBox="0 0 50.498 45">
  <path id="Path_7762" data-name="Path 7762" d="M16.693,45a.74.74,0,1,1,0-1.479h2.233V37.74H2.712A2.715,2.715,0,0,1,0,35.027V6.382A2.715,2.715,0,0,1,2.712,3.669h8.821a.74.74,0,0,1,0,1.479H2.712A1.234,1.234,0,0,0,1.479,6.382V29.663H39.442a.74.74,0,0,1,0,1.479H1.479v3.885A1.234,1.234,0,0,0,2.712,36.26H47.785a1.234,1.234,0,0,0,1.233-1.233V31.143H43.167a.74.74,0,0,1,0-1.479h5.851V6.382a1.234,1.234,0,0,0-1.233-1.233H35.794a13.524,13.524,0,1,1-6.3-4.44.74.74,0,1,1-.473,1.4,12.1,12.1,0,1,0,3,1.509A.74.74,0,0,1,32.867,2.4a13.6,13.6,0,0,1,1.57,1.269l.041,0H47.785A2.715,2.715,0,0,1,50.5,6.382V35.027a2.715,2.715,0,0,1-2.712,2.712H31.39v5.781h2.233a.74.74,0,1,1,0,1.479Zm3.713-1.479h9.505V37.74H20.406ZM4.818,27.72a.74.74,0,0,1,0-1.479h8.164a.74.74,0,0,1,0,1.479Zm0-3.337a.74.74,0,0,1,0-1.479H9.193a.74.74,0,0,1,0,1.479ZM26.6,21.047a1.374,1.374,0,0,1,.352-.919H23.905a1.381,1.381,0,1,1-2.056,0h-.5a.74.74,0,0,1-.727-.6L18.434,7.93a.293.293,0,0,0-.287-.238h-.791a.74.74,0,0,1,0-1.479h.791a1.773,1.773,0,0,1,1.741,1.443l.154.813H31.093a.889.889,0,0,1,.877,1.039l0,.013-1.313,6.926a.74.74,0,0,1-.727.6H21.661l.3,1.6H29.67a.74.74,0,0,1,0,1.479H29a1.38,1.38,0,1,1-2.408.919Zm1.01-5.476h1.71l.393-2.071H27.757Zm-2.961,0h1.478l.151-2.071H24.493Zm-3.262,0h1.778L23.009,13.5H20.991Zm6.483-3.551h2.124l.393-2.071H28.016Zm-3.481,0h2l.151-2.071h-2.3Zm-3.673,0H22.9L22.75,9.948H20.321Zm22.431,1.842V12.01H41.291a.74.74,0,0,1,0-1.479h1.851V8.679a.74.74,0,1,1,1.479,0v1.851h1.851a.74.74,0,1,1,0,1.479H44.622v1.851a.74.74,0,0,1-1.479,0Z" fill="#e84f14"/>
</svg>
