<svg xmlns="http://www.w3.org/2000/svg" xmlns:xlink="http://www.w3.org/1999/xlink" width="202.5" height="60" viewBox="0 0 202.5 60">
  <defs>
    <linearGradient id="linear-gradient" x1="0.915" y1="6.614" x2="-0.383" y2="5.945" gradientUnits="objectBoundingBox">
      <stop offset="0" stop-color="#00a0ff"/>
      <stop offset="0.007" stop-color="#00a1ff"/>
      <stop offset="0.26" stop-color="#00beff"/>
      <stop offset="0.512" stop-color="#00d2ff"/>
      <stop offset="0.76" stop-color="#00dfff"/>
      <stop offset="1" stop-color="#00e3ff"/>
    </linearGradient>
    <linearGradient id="linear-gradient-2" x1="1.076" y1="17.098" x2="-1.305" y2="17.098" gradientUnits="objectBoundingBox">
      <stop offset="0" stop-color="#ffe000"/>
      <stop offset="0.409" stop-color="#ffbd00"/>
      <stop offset="0.775" stop-color="orange"/>
      <stop offset="1" stop-color="#ff9c00"/>
    </linearGradient>
    <linearGradient id="linear-gradient-3" x1="0.862" y1="10.863" x2="-0.501" y2="9.093" gradientUnits="objectBoundingBox">
      <stop offset="0" stop-color="#ff3a44"/>
      <stop offset="1" stop-color="#c31162"/>
    </linearGradient>
    <linearGradient id="linear-gradient-4" x1="-0.188" y1="13.583" x2="0.421" y2="12.793" gradientUnits="objectBoundingBox">
      <stop offset="0" stop-color="#32a071"/>
      <stop offset="0.068" stop-color="#2da771"/>
      <stop offset="0.476" stop-color="#15cf74"/>
      <stop offset="0.801" stop-color="#06e775"/>
      <stop offset="1" stop-color="#00f076"/>
    </linearGradient>
  </defs>
  <g id="Group_5307" data-name="Group 5307" transform="translate(-10 -10)">
    <path id="Path_7640" data-name="Path 7640" d="M7.5,0H195a7.5,7.5,0,0,1,7.5,7.5v45A7.5,7.5,0,0,1,195,60H7.5A7.5,7.5,0,0,1,0,52.5V7.5A7.5,7.5,0,0,1,7.5,0Z" transform="translate(10 10)"/>
    <path id="Path_7622" data-name="Path 7622" d="M205,11.2a6.307,6.307,0,0,1,6.3,6.3v45a6.307,6.307,0,0,1-6.3,6.3H17.5a6.307,6.307,0,0,1-6.3-6.3v-45a6.307,6.307,0,0,1,6.3-6.3H205m0-1.2H17.5A7.522,7.522,0,0,0,10,17.5v45A7.522,7.522,0,0,0,17.5,70H205a7.522,7.522,0,0,0,7.5-7.5v-45A7.522,7.522,0,0,0,205,10Z" transform="translate(0 0)" fill="#a6a6a6"/>
    <path id="Path_7639" data-name="Path 7639" d="M14263.731-23017.957l2.438-1.016a3.519,3.519,0,0,0,3.211,2.273c2.1,0,3.412-1.3,3.412-3.75v-.918h-.1a4.351,4.351,0,0,1-3.357,1.457,6.327,6.327,0,0,1-6.119-6.363,6.34,6.34,0,0,1,6.119-6.4,4.416,4.416,0,0,1,3.357,1.426h.1v-1.039h2.656v11.453c0,4.715-2.777,6.648-6.068,6.648A6.071,6.071,0,0,1,14263.731-23017.957Zm2.291-8.316a3.66,3.66,0,0,0,3.551,3.844,3.565,3.565,0,0,0,3.41-3.844,3.6,3.6,0,0,0-3.41-3.887A3.694,3.694,0,0,0,14266.022-23026.273Zm65.525,11.656,2.848-6.316-4.99-11.363h3.012l3.332,8.125h.1l3.213-8.125h3.105l-7.7,17.68Zm-50.008-11.672a6.057,6.057,0,0,1,6.016-6.383,5.931,5.931,0,0,1,5.459,4.055l.295.73-8.531,3.531a3.238,3.238,0,0,0,3.088,1.926,3.656,3.656,0,0,0,3.143-1.758l2.178,1.445a6.348,6.348,0,0,1-5.32,2.832A6.244,6.244,0,0,1,14281.54-23026.289Zm2.777-.2,5.7-2.371a2.486,2.486,0,0,0-2.371-1.352A3.5,3.5,0,0,0,14284.317-23026.488Zm-35.08.2a6.288,6.288,0,0,1,6.4-6.383,6.284,6.284,0,0,1,6.406,6.383,6.3,6.3,0,0,1-6.406,6.379A6.307,6.307,0,0,1,14249.237-23026.289Zm2.8,0a3.687,3.687,0,0,0,3.6,3.859,3.687,3.687,0,0,0,3.6-3.859,3.676,3.676,0,0,0-3.6-3.871A3.676,3.676,0,0,0,14252.04-23026.289Zm-16.775,0a6.288,6.288,0,0,1,6.4-6.383,6.284,6.284,0,0,1,6.406,6.383,6.3,6.3,0,0,1-6.406,6.379A6.307,6.307,0,0,1,14235.265-23026.289Zm2.8,0a3.693,3.693,0,0,0,3.6,3.859,3.687,3.687,0,0,0,3.6-3.859,3.676,3.676,0,0,0-3.6-3.871A3.682,3.682,0,0,0,14238.067-23026.289Zm-23.068-3.535a10.051,10.051,0,0,1,10.059-9.91,9.459,9.459,0,0,1,6.787,2.734l-1.91,1.91a6.919,6.919,0,0,0-4.877-1.937,7.11,7.11,0,0,0-7.109,7.2,7.113,7.113,0,0,0,7.109,7.207,6.636,6.636,0,0,0,5-1.988,5.687,5.687,0,0,0,1.475-3.4h-6.475v-2.707h9.1a8.918,8.918,0,0,1,.148,1.691,8.916,8.916,0,0,1-2.344,6.324,9.06,9.06,0,0,1-6.908,2.789A10.047,10.047,0,0,1,14215-23029.824Zm103.184,5.754c0-2.75,2.727-4.227,5.406-4.227a6.112,6.112,0,0,1,2.918.73v-.2a2.694,2.694,0,0,0-2.941-2.41,2.651,2.651,0,0,0-2.561,1.379l-2.484-1.043a5.265,5.265,0,0,1,5-2.871c3.2,0,5.686,1.855,5.686,5.188v7.188h-2.7v-1.441h-.1a3.942,3.942,0,0,1-3.566,1.832C14320.378-23019.945,14318.183-23021.562,14318.183-23024.07Zm2.8.047c0,1.137,1.275,1.594,2.2,1.594a3.39,3.39,0,0,0,3.324-2.965,4.972,4.972,0,0,0-2.561-.633C14322.575-23026.027,14320.987-23025.465,14320.987-23024.023Zm-7.143,3.723v-18.758h2.793v18.758Zm-14.408,0v-18.758h6.709a5.943,5.943,0,0,1,6.152,5.824,5.936,5.936,0,0,1-6.152,5.824h-3.906v7.109Zm2.8-9.711h3.977a3.264,3.264,0,0,0,3.279-3.223,3.245,3.245,0,0,0-3.279-3.211h-3.977Zm-24.855,9.711v-18.758h2.8v18.758Zm-20.137-26.664a4.618,4.618,0,0,1-1.318-3.332,4.636,4.636,0,0,1,1.318-3.34,4.47,4.47,0,0,1,3.309-1.363,4.415,4.415,0,0,1,3.287,1.371,4.561,4.561,0,0,1,1.338,3.332,4.548,4.548,0,0,1-1.338,3.332,4.376,4.376,0,0,1-3.287,1.371A4.447,4.447,0,0,1,14257.247-23046.965Zm.869-5.918a3.523,3.523,0,0,0-1.006,2.586,3.5,3.5,0,0,0,1.006,2.578,3.238,3.238,0,0,0,2.439,1.016,3.329,3.329,0,0,0,2.447-1.016,3.5,3.5,0,0,0,1-2.578,3.517,3.517,0,0,0-1-2.586,3.337,3.337,0,0,0-2.447-1.008A3.246,3.246,0,0,0,14258.116-23052.883Zm-41.295,5.938a4.589,4.589,0,0,1-1.354-3.352,4.576,4.576,0,0,1,1.354-3.352,4.541,4.541,0,0,1,3.314-1.352,4.592,4.592,0,0,1,1.848.379,3.754,3.754,0,0,1,1.406,1l-.789.793a3.064,3.064,0,0,0-2.465-1.062,3.418,3.418,0,0,0-2.447,1,3.434,3.434,0,0,0-1.041,2.594,3.446,3.446,0,0,0,1.041,2.594,3.4,3.4,0,0,0,2.447,1,3.436,3.436,0,0,0,2.527-1.008,2.773,2.773,0,0,0,.744-1.824h-3.271v-1.074h4.375a4.841,4.841,0,0,1,.051.676,4.1,4.1,0,0,1-1.109,3,4.39,4.39,0,0,1-3.316,1.336A4.541,4.541,0,0,1,14216.821-23046.945Zm55.711,1.145-4.574-7.344h-.053l.053,1.746v5.6h-1.154v-9h1.406l4.375,7h.041l-.041-1.738v-5.266h1.162v9Zm-24.059,0v-7.891h-2.518v-1.109h6.189v1.109h-2.518v7.891Zm-5.121,0v-9h1.154v9Zm-8.158,0v-7.891h-2.5v-1.109h6.17v1.109h-2.516v7.891Zm-8.965,0v-9h5.25v1.109h-4.1v2.855h3.7v1.078h-3.7v2.855h4.1v1.1Z" transform="translate(-14143.439 23075.301)" fill="#fff" stroke="#fff" stroke-width="0.2"/>
    <g id="Group_5311" data-name="Group 5311" transform="translate(24.959 20.711)">
      <path id="Path_7631" data-name="Path 7631" d="M20.666,17.575a3.01,3.01,0,0,0-.693,2.107V52.856a3.008,3.008,0,0,0,.693,2.107l.111.108L39.36,36.488V36.05L20.777,17.465Z" transform="translate(-19.973 -16.978)" fill="url(#linear-gradient)"/>
      <path id="Path_7632" data-name="Path 7632" d="M39.093,38.556l-6.195-6.2V31.92l6.2-6.2.14.081,7.339,4.17c2.1,1.191,2.1,3.139,0,4.33l-7.339,4.17Z" transform="translate(-13.511 -12.849)" fill="url(#linear-gradient-2)"/>
      <path id="Path_7633" data-name="Path 7633" d="M45.465,36.337,39.129,30,20.435,48.7c.691.732,1.833.822,3.118.092l21.912-12.45" transform="translate(-19.742 -10.71)" fill="url(#linear-gradient-3)"/>
      <path id="Path_7634" data-name="Path 7634" d="M45.465,30.1,23.553,17.645c-1.285-.73-2.427-.64-3.118.092L39.129,36.431Z" transform="translate(-19.742 -17.14)" fill="url(#linear-gradient-4)"/>
      <g id="Group_5310" data-name="Group 5310" transform="translate(0 25.487)">
        <path id="Path_7635" data-name="Path 7635" d="M45.326,34.132,23.553,46.5a2.5,2.5,0,0,1-3.006.016h0l-.112.111h0l.111.109h0a2.5,2.5,0,0,0,3.006-.016l21.912-12.45Z" transform="translate(-19.742 -34.132)" opacity="0.2" style="isolation: isolate"/>
        <path id="Path_7636" data-name="Path 7636" d="M20.666,43.021a3.008,3.008,0,0,1-.693-2.107v.221a3,3,0,0,0,.693,2.106l.113-.111Z" transform="translate(-19.973 -30.742)" opacity="0.12" style="isolation: isolate"/>
      </g>
      <path id="Path_7637" data-name="Path 7637" d="M44.508,31.948,37.029,36.2l.14.139,7.339-4.17A2.633,2.633,0,0,0,46.08,30h0A2.791,2.791,0,0,1,44.508,31.948Z" transform="translate(-11.445 -10.71)" opacity="0.12" style="isolation: isolate"/>
      <path id="Path_7638" data-name="Path 7638" d="M23.784,17.864l29.251,16.62a2.791,2.791,0,0,1,1.572,1.947h0a2.629,2.629,0,0,0-1.572-2.166L23.784,17.645c-2.1-1.191-3.811-.2-3.811,2.2v.22C19.973,17.663,21.687,16.673,23.784,17.864Z" transform="translate(-19.973 -17.14)" fill="#fff" opacity="0.25" style="isolation: isolate"/>
    </g>
  </g>
</svg>
