<svg xmlns="http://www.w3.org/2000/svg" xmlns:xlink="http://www.w3.org/1999/xlink" width="173.566" height="76.934" viewBox="0 0 173.566 76.934">
  <defs>
    <linearGradient id="linear-gradient" x1="0.5" x2="0.5" y2="1" gradientUnits="objectBoundingBox">
      <stop offset="0" stop-color="#fff" stop-opacity="0.502"/>
      <stop offset="1" stop-color="#fff" stop-opacity="0"/>
    </linearGradient>
  </defs>
  <g id="Group_5104" data-name="Group 5104" transform="translate(1.336 1.004)">
    <path id="Path_7102" data-name="Path 7102" d="M3195.454-22338.623s5.916-12.209,11.831-12.209,4.6,12.209,11.832,12.209,8.654-3.383,17.089-12.209,7.012-23.9,16.652-23.111c9.64.8,11.832,29.215,21.91,26.332s11.065-30.336,18.4-37.889,4.382,8.986,10.955,7.7,7.12-16.693,15.336-12.834,9.86,24.074,17.528,28.248,2.524-11.211,11.334-10.979c10.579.217,6.366-13.191,18.272-12.135" transform="translate(-3195.454 22391.254)" fill="none" stroke="#fff" stroke-linecap="round" stroke-width="2"/>
    <path id="Path_7103" data-name="Path 7103" d="M3195.43-22338.623s5.916-12.209,11.831-12.209,4.6,12.209,11.832,12.209,8.654-3.383,17.089-12.209,7.013-23.9,16.652-23.111c9.641.8,11.832,29.215,21.911,26.332s11.064-30.336,18.4-37.889,4.382,8.986,10.956,7.7,7.119-16.693,15.336-12.834,9.86,24.074,17.528,28.248,2.524-11.211,11.334-10.979c10.579.217,6.366-13.191,18.273-12.135.034,13.66,0,62.225,0,62.225v7.951H3195.43v-23.3Z" transform="translate(-3195.429 22391.254)" fill="url(#linear-gradient)"/>
  </g>
</svg>
