<svg xmlns="http://www.w3.org/2000/svg" width="40" height="33.333" viewBox="0 0 40 33.333">
  <path id="Path_7701" data-name="Path 7701" d="M26.75,30h-8.5a4.167,4.167,0,0,1-8.165,0H8.25a4.166,4.166,0,1,1,0-1.666h1.834a4.167,4.167,0,0,1,8.165,0h.084V2.5a.835.835,0,0,0-.832-.834H.834A.833.833,0,1,1,.834,0H17.5A2.5,2.5,0,0,1,20,2.5V28.333h3.334V.834A.833.833,0,0,1,24.166,0h1.666a10.848,10.848,0,0,1,10.8,10h2.532a.834.834,0,0,1,.834.832V27.5A2.5,2.5,0,0,1,37.5,30H34.915a4.167,4.167,0,0,1-8.165,0Zm1.583-.834a2.5,2.5,0,1,0,2.5-2.5A2.5,2.5,0,0,0,28.333,29.166Zm-16.666,0a2.5,2.5,0,1,0,2.5-2.5A2.5,2.5,0,0,0,11.667,29.166Zm-10,0a2.5,2.5,0,1,0,2.5-2.5A2.5,2.5,0,0,0,1.666,29.166ZM37.5,28.333a.835.835,0,0,0,.834-.834V21.666H29.166a.833.833,0,0,1-.832-.832v-5A.834.834,0,0,1,29.166,15h9.168V11.667H25V28.333h1.75a4.167,4.167,0,0,1,8.165,0ZM30,20h8.334V16.666H30Zm4.962-10a9.18,9.18,0,0,0-9.129-8.334H25V10ZM11.667,20.833v-15a.833.833,0,1,1,1.666,0v15a.833.833,0,0,1-1.666,0Zm-8.334,0v-15A.833.833,0,1,1,5,5.833v15a.833.833,0,0,1-1.666,0Z" fill="#e84f14"/>
</svg>
