<svg xmlns="http://www.w3.org/2000/svg" width="40" height="34.779" viewBox="0 0 40 34.779">
  <path id="Path_7668" data-name="Path 7668" d="M19.74,34.738.61,28.651A.869.869,0,0,1,0,27.823V6.953a.869.869,0,0,1,.611-.825L19.743.041a.87.87,0,0,1,.527,0L39.4,6.128a.8.8,0,0,1,.078.039.945.945,0,0,1,.1.05.887.887,0,0,1,.168.132c.022.023.045.041.065.066a.857.857,0,0,1,.153.274v.03A.865.865,0,0,1,40,6.953v20.87a.87.87,0,0,1-.6.829l-19.13,6.087a.87.87,0,0,1-.527,0Zm1.13-5.176V32.72l17.391-5.534V8.143l-4.5,1.43v6.323a.869.869,0,0,1-.609.829l-1.595.507a.846.846,0,0,1-.261.041.87.87,0,0,1-.261-1.7l.988-.314v-5.13l-4.492,1.43v5.13l.9-.285a.87.87,0,0,1,.527,1.657l-2.029.647a.888.888,0,0,1-.261.041.87.87,0,0,1-.87-.87V12.111L20.87,13.676V26.084a.87.87,0,0,1-1.739,0V13.676L4.952,9.165a.87.87,0,1,1,.527-1.657L20,12.127l3.8-1.208L7.537,5.745,1.74,7.589v19.6L19.131,32.72V29.562a.87.87,0,0,1,1.739,0ZM10.407,4.832l16.261,5.174,3.363-1.07L13.77,3.762Zm6.231-1.984L32.9,8.024l3.363-1.07L20,1.779ZM6.957,26.084V23.475a.87.87,0,0,1,1.739,0v2.609a.87.87,0,1,1-1.739,0Zm-3.478-.87V22.605a.87.87,0,0,1,1.739,0v2.609a.87.87,0,0,1-1.739,0Z" fill="#e84f14"/>
</svg>
