<svg xmlns="http://www.w3.org/2000/svg" width="40" height="49.23" viewBox="0 0 40 49.23">
  <path id="Path_7686" data-name="Path 7686" d="M88,20.769V20a20,20,0,0,0-40,0v.769a2.311,2.311,0,0,0,1.538,2.175v4.88A2.311,2.311,0,0,0,48,30v4.615a2.31,2.31,0,0,0,2.308,2.308h2.385A3.853,3.853,0,0,0,56.462,40H58a2.31,2.31,0,0,0,2.308-2.308V26.923A2.31,2.31,0,0,0,58,24.615H56.462a3.853,3.853,0,0,0-3.769,3.077H51.077V23.077h.769a2.31,2.31,0,0,0,2.308-2.308V20a13.846,13.846,0,0,1,27.692,0v.769a2.31,2.31,0,0,0,2.308,2.308h.769v4.615H83.307a3.853,3.853,0,0,0-3.769-3.077H78a2.31,2.31,0,0,0-2.308,2.308V37.692A2.31,2.31,0,0,0,78,40h1.538a3.853,3.853,0,0,0,3.769-3.077h1.616v3.462a5.006,5.006,0,0,1-5,5h-2.79a3.077,3.077,0,1,0,0,1.538h2.79a6.546,6.546,0,0,0,6.538-6.538V36.791A2.311,2.311,0,0,0,88,34.615V30a2.311,2.311,0,0,0-1.538-2.175v-4.88A2.311,2.311,0,0,0,88,20.769ZM74.154,47.692a1.538,1.538,0,1,1,1.538-1.538A1.54,1.54,0,0,1,74.154,47.692ZM56.462,26.154H58a.77.77,0,0,1,.769.769V37.692a.77.77,0,0,1-.769.769H56.462a2.31,2.31,0,0,1-2.308-2.308V28.462A2.31,2.31,0,0,1,56.462,26.154Zm-3.846,9.231H50.308a.77.77,0,0,1-.769-.769V30a.77.77,0,0,1,.769-.769h2.308ZM83.385,20.769V20a15.385,15.385,0,1,0-30.769,0v.769a.77.77,0,0,1-.769.769H50.308a.77.77,0,0,1-.769-.769V20a18.462,18.462,0,1,1,36.923,0v.769a.77.77,0,0,1-.769.769H84.154A.77.77,0,0,1,83.385,20.769ZM79.538,38.462H78a.77.77,0,0,1-.769-.769V26.923A.77.77,0,0,1,78,26.154h1.538a2.31,2.31,0,0,1,2.308,2.308v7.692A2.31,2.31,0,0,1,79.538,38.462Zm6.923-3.846a.77.77,0,0,1-.769.769H83.385V29.231h2.308a.77.77,0,0,1,.769.769Z" transform="translate(-48)" fill="#e84f14"/>
</svg>
